<mxfile host="app.diagrams.net" modified="2023-10-02T00:27:21.111Z" agent="Mozilla/5.0 (Windows NT 10.0; Win64; x64) AppleWebKit/537.36 (KHTML, like Gecko) Chrome/117.0.0.0 Safari/537.36" etag="XIyKu7uhcthS6M9bQbCD" version="22.0.0" type="google">
  <diagram name="PÃ¡gina-1" id="ggXF_oAEcB1K8jYUZBv0">
    <mxGraphModel grid="1" page="1" gridSize="10" guides="1" tooltips="1" connect="1" arrows="1" fold="1" pageScale="1" pageWidth="827" pageHeight="1169" math="0" shadow="0">
      <root>
        <mxCell id="0" />
        <mxCell id="1" parent="0" />
        <mxCell id="it1oy1Ev6lmP9NEfRzvG-23" style="edgeStyle=orthogonalEdgeStyle;rounded=0;orthogonalLoop=1;jettySize=auto;html=1;entryX=0;entryY=0.5;entryDx=0;entryDy=0;exitX=0.5;exitY=0;exitDx=0;exitDy=0;" edge="1" parent="1" target="it1oy1Ev6lmP9NEfRzvG-3">
          <mxGeometry relative="1" as="geometry">
            <mxPoint x="250" y="430" as="sourcePoint" />
            <Array as="points">
              <mxPoint x="250" y="90" />
            </Array>
          </mxGeometry>
        </mxCell>
        <mxCell id="it1oy1Ev6lmP9NEfRzvG-31" style="edgeStyle=orthogonalEdgeStyle;rounded=0;orthogonalLoop=1;jettySize=auto;html=1;exitX=0.5;exitY=0;exitDx=0;exitDy=0;entryX=0;entryY=0.5;entryDx=0;entryDy=0;" edge="1" parent="1" source="it1oy1Ev6lmP9NEfRzvG-1" target="it1oy1Ev6lmP9NEfRzvG-25">
          <mxGeometry relative="1" as="geometry" />
        </mxCell>
        <mxCell id="it1oy1Ev6lmP9NEfRzvG-32" style="edgeStyle=orthogonalEdgeStyle;rounded=0;orthogonalLoop=1;jettySize=auto;html=1;exitX=0.5;exitY=0;exitDx=0;exitDy=0;entryX=0;entryY=0.5;entryDx=0;entryDy=0;" edge="1" parent="1" source="it1oy1Ev6lmP9NEfRzvG-1" target="it1oy1Ev6lmP9NEfRzvG-29">
          <mxGeometry relative="1" as="geometry" />
        </mxCell>
        <mxCell id="it1oy1Ev6lmP9NEfRzvG-33" style="edgeStyle=orthogonalEdgeStyle;rounded=0;orthogonalLoop=1;jettySize=auto;html=1;entryX=0;entryY=0.5;entryDx=0;entryDy=0;" edge="1" parent="1" source="it1oy1Ev6lmP9NEfRzvG-1" target="it1oy1Ev6lmP9NEfRzvG-34">
          <mxGeometry relative="1" as="geometry">
            <mxPoint x="990" y="640" as="targetPoint" />
          </mxGeometry>
        </mxCell>
        <mxCell id="it1oy1Ev6lmP9NEfRzvG-51" style="edgeStyle=orthogonalEdgeStyle;rounded=0;orthogonalLoop=1;jettySize=auto;html=1;entryX=0;entryY=0.5;entryDx=0;entryDy=0;" edge="1" parent="1" target="it1oy1Ev6lmP9NEfRzvG-38">
          <mxGeometry relative="1" as="geometry">
            <mxPoint x="250" y="590" as="sourcePoint" />
            <Array as="points">
              <mxPoint x="250" y="370" />
            </Array>
          </mxGeometry>
        </mxCell>
        <mxCell id="it1oy1Ev6lmP9NEfRzvG-111" style="edgeStyle=orthogonalEdgeStyle;rounded=0;orthogonalLoop=1;jettySize=auto;html=1;entryX=0;entryY=0.5;entryDx=0;entryDy=0;" edge="1" parent="1" source="it1oy1Ev6lmP9NEfRzvG-1" target="it1oy1Ev6lmP9NEfRzvG-101">
          <mxGeometry relative="1" as="geometry">
            <Array as="points">
              <mxPoint x="250" y="530" />
            </Array>
          </mxGeometry>
        </mxCell>
        <mxCell id="it1oy1Ev6lmP9NEfRzvG-176" style="edgeStyle=orthogonalEdgeStyle;rounded=0;orthogonalLoop=1;jettySize=auto;html=1;entryX=0;entryY=0.5;entryDx=0;entryDy=0;" edge="1" parent="1" source="it1oy1Ev6lmP9NEfRzvG-1" target="it1oy1Ev6lmP9NEfRzvG-166">
          <mxGeometry relative="1" as="geometry">
            <Array as="points">
              <mxPoint x="250" y="780" />
            </Array>
          </mxGeometry>
        </mxCell>
        <mxCell id="it1oy1Ev6lmP9NEfRzvG-205" style="edgeStyle=orthogonalEdgeStyle;rounded=0;orthogonalLoop=1;jettySize=auto;html=1;entryX=0;entryY=0.5;entryDx=0;entryDy=0;" edge="1" parent="1" source="it1oy1Ev6lmP9NEfRzvG-1" target="it1oy1Ev6lmP9NEfRzvG-192">
          <mxGeometry relative="1" as="geometry">
            <Array as="points">
              <mxPoint x="250" y="960" />
            </Array>
          </mxGeometry>
        </mxCell>
        <mxCell id="it1oy1Ev6lmP9NEfRzvG-252" style="edgeStyle=orthogonalEdgeStyle;rounded=0;orthogonalLoop=1;jettySize=auto;html=1;entryX=0;entryY=0.5;entryDx=0;entryDy=0;" edge="1" parent="1" source="it1oy1Ev6lmP9NEfRzvG-1" target="it1oy1Ev6lmP9NEfRzvG-224">
          <mxGeometry relative="1" as="geometry">
            <Array as="points">
              <mxPoint x="250" y="1160" />
            </Array>
          </mxGeometry>
        </mxCell>
        <mxCell id="it1oy1Ev6lmP9NEfRzvG-331" style="edgeStyle=orthogonalEdgeStyle;rounded=0;orthogonalLoop=1;jettySize=auto;html=1;entryX=0;entryY=0.5;entryDx=0;entryDy=0;" edge="1" parent="1" source="it1oy1Ev6lmP9NEfRzvG-1" target="it1oy1Ev6lmP9NEfRzvG-317">
          <mxGeometry relative="1" as="geometry">
            <Array as="points">
              <mxPoint x="250" y="1390" />
            </Array>
          </mxGeometry>
        </mxCell>
        <mxCell id="it1oy1Ev6lmP9NEfRzvG-360" style="edgeStyle=orthogonalEdgeStyle;rounded=0;orthogonalLoop=1;jettySize=auto;html=1;entryX=0;entryY=0.5;entryDx=0;entryDy=0;" edge="1" parent="1" source="it1oy1Ev6lmP9NEfRzvG-1" target="it1oy1Ev6lmP9NEfRzvG-358">
          <mxGeometry relative="1" as="geometry">
            <Array as="points">
              <mxPoint x="250" y="1570" />
            </Array>
          </mxGeometry>
        </mxCell>
        <mxCell id="it1oy1Ev6lmP9NEfRzvG-365" style="edgeStyle=orthogonalEdgeStyle;rounded=0;orthogonalLoop=1;jettySize=auto;html=1;entryX=0;entryY=0.5;entryDx=0;entryDy=0;" edge="1" parent="1" source="it1oy1Ev6lmP9NEfRzvG-1" target="it1oy1Ev6lmP9NEfRzvG-364">
          <mxGeometry relative="1" as="geometry">
            <Array as="points">
              <mxPoint x="250" y="1690" />
            </Array>
          </mxGeometry>
        </mxCell>
        <mxCell id="it1oy1Ev6lmP9NEfRzvG-378" style="edgeStyle=orthogonalEdgeStyle;rounded=0;orthogonalLoop=1;jettySize=auto;html=1;entryX=0;entryY=0.5;entryDx=0;entryDy=0;" edge="1" parent="1" source="it1oy1Ev6lmP9NEfRzvG-1" target="it1oy1Ev6lmP9NEfRzvG-376">
          <mxGeometry relative="1" as="geometry">
            <Array as="points">
              <mxPoint x="250" y="2000" />
            </Array>
          </mxGeometry>
        </mxCell>
        <mxCell id="it1oy1Ev6lmP9NEfRzvG-381" style="edgeStyle=orthogonalEdgeStyle;rounded=0;orthogonalLoop=1;jettySize=auto;html=1;entryX=0;entryY=0.5;entryDx=0;entryDy=0;" edge="1" parent="1" source="it1oy1Ev6lmP9NEfRzvG-1" target="it1oy1Ev6lmP9NEfRzvG-380">
          <mxGeometry relative="1" as="geometry">
            <Array as="points">
              <mxPoint x="250" y="2120" />
            </Array>
          </mxGeometry>
        </mxCell>
        <mxCell id="it1oy1Ev6lmP9NEfRzvG-399" style="edgeStyle=orthogonalEdgeStyle;rounded=0;orthogonalLoop=1;jettySize=auto;html=1;entryX=0;entryY=0.5;entryDx=0;entryDy=0;" edge="1" parent="1" source="it1oy1Ev6lmP9NEfRzvG-1" target="it1oy1Ev6lmP9NEfRzvG-385">
          <mxGeometry relative="1" as="geometry">
            <Array as="points">
              <mxPoint x="250" y="2260" />
            </Array>
          </mxGeometry>
        </mxCell>
        <mxCell id="it1oy1Ev6lmP9NEfRzvG-440" style="edgeStyle=orthogonalEdgeStyle;rounded=0;orthogonalLoop=1;jettySize=auto;html=1;entryX=0;entryY=0.5;entryDx=0;entryDy=0;" edge="1" parent="1" source="it1oy1Ev6lmP9NEfRzvG-1" target="it1oy1Ev6lmP9NEfRzvG-436">
          <mxGeometry relative="1" as="geometry">
            <Array as="points">
              <mxPoint x="250" y="2790" />
            </Array>
          </mxGeometry>
        </mxCell>
        <mxCell id="it1oy1Ev6lmP9NEfRzvG-547" style="edgeStyle=orthogonalEdgeStyle;rounded=0;orthogonalLoop=1;jettySize=auto;html=1;entryX=0;entryY=0.5;entryDx=0;entryDy=0;" edge="1" parent="1" source="it1oy1Ev6lmP9NEfRzvG-1" target="it1oy1Ev6lmP9NEfRzvG-484">
          <mxGeometry relative="1" as="geometry">
            <Array as="points">
              <mxPoint x="250" y="3152" />
            </Array>
          </mxGeometry>
        </mxCell>
        <mxCell id="it1oy1Ev6lmP9NEfRzvG-548" style="edgeStyle=orthogonalEdgeStyle;rounded=0;orthogonalLoop=1;jettySize=auto;html=1;entryX=0;entryY=0.5;entryDx=0;entryDy=0;" edge="1" parent="1" source="it1oy1Ev6lmP9NEfRzvG-1" target="it1oy1Ev6lmP9NEfRzvG-492">
          <mxGeometry relative="1" as="geometry">
            <Array as="points">
              <mxPoint x="250" y="3299" />
            </Array>
          </mxGeometry>
        </mxCell>
        <mxCell id="it1oy1Ev6lmP9NEfRzvG-549" style="edgeStyle=orthogonalEdgeStyle;rounded=0;orthogonalLoop=1;jettySize=auto;html=1;entryX=0;entryY=0.5;entryDx=0;entryDy=0;" edge="1" parent="1" source="it1oy1Ev6lmP9NEfRzvG-1" target="it1oy1Ev6lmP9NEfRzvG-495">
          <mxGeometry relative="1" as="geometry">
            <Array as="points">
              <mxPoint x="250" y="3492" />
            </Array>
          </mxGeometry>
        </mxCell>
        <mxCell id="it1oy1Ev6lmP9NEfRzvG-550" style="edgeStyle=orthogonalEdgeStyle;rounded=0;orthogonalLoop=1;jettySize=auto;html=1;entryX=0;entryY=0.5;entryDx=0;entryDy=0;" edge="1" parent="1" source="it1oy1Ev6lmP9NEfRzvG-1" target="it1oy1Ev6lmP9NEfRzvG-508">
          <mxGeometry relative="1" as="geometry">
            <Array as="points">
              <mxPoint x="250" y="3672" />
            </Array>
          </mxGeometry>
        </mxCell>
        <mxCell id="it1oy1Ev6lmP9NEfRzvG-586" style="edgeStyle=orthogonalEdgeStyle;rounded=0;orthogonalLoop=1;jettySize=auto;html=1;entryX=0;entryY=0.5;entryDx=0;entryDy=0;" edge="1" parent="1" source="it1oy1Ev6lmP9NEfRzvG-1" target="it1oy1Ev6lmP9NEfRzvG-557">
          <mxGeometry relative="1" as="geometry">
            <Array as="points">
              <mxPoint x="250" y="4030" />
            </Array>
          </mxGeometry>
        </mxCell>
        <mxCell id="it1oy1Ev6lmP9NEfRzvG-587" style="edgeStyle=orthogonalEdgeStyle;rounded=0;orthogonalLoop=1;jettySize=auto;html=1;entryX=0;entryY=0.5;entryDx=0;entryDy=0;" edge="1" parent="1" source="it1oy1Ev6lmP9NEfRzvG-1" target="it1oy1Ev6lmP9NEfRzvG-571">
          <mxGeometry relative="1" as="geometry">
            <Array as="points">
              <mxPoint x="250" y="4200" />
            </Array>
          </mxGeometry>
        </mxCell>
        <mxCell id="it1oy1Ev6lmP9NEfRzvG-588" style="edgeStyle=orthogonalEdgeStyle;rounded=0;orthogonalLoop=1;jettySize=auto;html=1;entryX=0;entryY=0.5;entryDx=0;entryDy=0;" edge="1" parent="1" source="it1oy1Ev6lmP9NEfRzvG-1" target="it1oy1Ev6lmP9NEfRzvG-559">
          <mxGeometry relative="1" as="geometry">
            <Array as="points">
              <mxPoint x="250" y="4410" />
            </Array>
          </mxGeometry>
        </mxCell>
        <mxCell id="it1oy1Ev6lmP9NEfRzvG-590" style="edgeStyle=orthogonalEdgeStyle;rounded=0;orthogonalLoop=1;jettySize=auto;html=1;entryX=0;entryY=0.5;entryDx=0;entryDy=0;" edge="1" parent="1" source="it1oy1Ev6lmP9NEfRzvG-1" target="it1oy1Ev6lmP9NEfRzvG-562">
          <mxGeometry relative="1" as="geometry">
            <Array as="points">
              <mxPoint x="250" y="4580" />
            </Array>
          </mxGeometry>
        </mxCell>
        <mxCell id="it1oy1Ev6lmP9NEfRzvG-1" value="0" style="ellipse;whiteSpace=wrap;html=1;aspect=fixed;" vertex="1" parent="1">
          <mxGeometry x="210" y="600" width="80" height="80" as="geometry" />
        </mxCell>
        <mxCell id="it1oy1Ev6lmP9NEfRzvG-2" style="edgeStyle=orthogonalEdgeStyle;rounded=0;orthogonalLoop=1;jettySize=auto;html=1;entryX=0;entryY=0.5;entryDx=0;entryDy=0;" edge="1" parent="1" source="it1oy1Ev6lmP9NEfRzvG-3" target="it1oy1Ev6lmP9NEfRzvG-6">
          <mxGeometry relative="1" as="geometry" />
        </mxCell>
        <mxCell id="it1oy1Ev6lmP9NEfRzvG-55" style="edgeStyle=orthogonalEdgeStyle;rounded=0;orthogonalLoop=1;jettySize=auto;html=1;entryX=0.5;entryY=0;entryDx=0;entryDy=0;" edge="1" parent="1" source="it1oy1Ev6lmP9NEfRzvG-3" target="it1oy1Ev6lmP9NEfRzvG-34">
          <mxGeometry relative="1" as="geometry">
            <Array as="points">
              <mxPoint x="500" y="150" />
              <mxPoint x="1580" y="150" />
            </Array>
          </mxGeometry>
        </mxCell>
        <mxCell id="it1oy1Ev6lmP9NEfRzvG-257" style="edgeStyle=orthogonalEdgeStyle;rounded=0;orthogonalLoop=1;jettySize=auto;html=1;entryX=0.5;entryY=0;entryDx=0;entryDy=0;" edge="1" parent="1" source="it1oy1Ev6lmP9NEfRzvG-3" target="it1oy1Ev6lmP9NEfRzvG-256">
          <mxGeometry relative="1" as="geometry">
            <Array as="points">
              <mxPoint x="500" y="-30" />
              <mxPoint x="1780" y="-30" />
            </Array>
          </mxGeometry>
        </mxCell>
        <mxCell id="it1oy1Ev6lmP9NEfRzvG-3" value="1" style="ellipse;whiteSpace=wrap;html=1;aspect=fixed;" vertex="1" parent="1">
          <mxGeometry x="460" y="50" width="80" height="80" as="geometry" />
        </mxCell>
        <mxCell id="it1oy1Ev6lmP9NEfRzvG-4" value="r" style="text;html=1;strokeColor=none;fillColor=none;align=center;verticalAlign=middle;whiteSpace=wrap;rounded=0;" vertex="1" parent="1">
          <mxGeometry x="550" y="55" width="40" height="20" as="geometry" />
        </mxCell>
        <mxCell id="it1oy1Ev6lmP9NEfRzvG-5" style="edgeStyle=orthogonalEdgeStyle;rounded=0;orthogonalLoop=1;jettySize=auto;html=1;entryX=0;entryY=0.5;entryDx=0;entryDy=0;" edge="1" parent="1" source="it1oy1Ev6lmP9NEfRzvG-6" target="it1oy1Ev6lmP9NEfRzvG-9">
          <mxGeometry relative="1" as="geometry" />
        </mxCell>
        <mxCell id="it1oy1Ev6lmP9NEfRzvG-56" style="edgeStyle=orthogonalEdgeStyle;rounded=0;orthogonalLoop=1;jettySize=auto;html=1;exitX=0.5;exitY=1;exitDx=0;exitDy=0;" edge="1" parent="1" source="it1oy1Ev6lmP9NEfRzvG-6">
          <mxGeometry relative="1" as="geometry">
            <mxPoint x="1580" y="600" as="targetPoint" />
            <Array as="points">
              <mxPoint x="650" y="150" />
              <mxPoint x="1581" y="150" />
              <mxPoint x="1581" y="600" />
            </Array>
          </mxGeometry>
        </mxCell>
        <mxCell id="it1oy1Ev6lmP9NEfRzvG-258" style="edgeStyle=orthogonalEdgeStyle;rounded=0;orthogonalLoop=1;jettySize=auto;html=1;" edge="1" parent="1" source="it1oy1Ev6lmP9NEfRzvG-6">
          <mxGeometry relative="1" as="geometry">
            <mxPoint x="1780" y="600" as="targetPoint" />
            <Array as="points">
              <mxPoint x="650" y="-30" />
              <mxPoint x="1781" y="-30" />
              <mxPoint x="1781" y="600" />
            </Array>
          </mxGeometry>
        </mxCell>
        <mxCell id="it1oy1Ev6lmP9NEfRzvG-6" value="2" style="ellipse;whiteSpace=wrap;html=1;aspect=fixed;" vertex="1" parent="1">
          <mxGeometry x="610" y="50" width="80" height="80" as="geometry" />
        </mxCell>
        <mxCell id="it1oy1Ev6lmP9NEfRzvG-7" value="o" style="text;html=1;strokeColor=none;fillColor=none;align=center;verticalAlign=middle;whiteSpace=wrap;rounded=0;" vertex="1" parent="1">
          <mxGeometry x="700" y="50" width="40" height="20" as="geometry" />
        </mxCell>
        <mxCell id="it1oy1Ev6lmP9NEfRzvG-8" style="edgeStyle=orthogonalEdgeStyle;rounded=0;orthogonalLoop=1;jettySize=auto;html=1;entryX=0;entryY=0.5;entryDx=0;entryDy=0;" edge="1" parent="1" source="it1oy1Ev6lmP9NEfRzvG-9" target="it1oy1Ev6lmP9NEfRzvG-12">
          <mxGeometry relative="1" as="geometry" />
        </mxCell>
        <mxCell id="it1oy1Ev6lmP9NEfRzvG-57" style="edgeStyle=orthogonalEdgeStyle;rounded=0;orthogonalLoop=1;jettySize=auto;html=1;entryX=0.5;entryY=0;entryDx=0;entryDy=0;" edge="1" parent="1" source="it1oy1Ev6lmP9NEfRzvG-9" target="it1oy1Ev6lmP9NEfRzvG-34">
          <mxGeometry relative="1" as="geometry">
            <Array as="points">
              <mxPoint x="800" y="150" />
              <mxPoint x="1580" y="150" />
            </Array>
          </mxGeometry>
        </mxCell>
        <mxCell id="it1oy1Ev6lmP9NEfRzvG-259" style="edgeStyle=orthogonalEdgeStyle;rounded=0;orthogonalLoop=1;jettySize=auto;html=1;entryX=0.5;entryY=0;entryDx=0;entryDy=0;" edge="1" parent="1" source="it1oy1Ev6lmP9NEfRzvG-9" target="it1oy1Ev6lmP9NEfRzvG-256">
          <mxGeometry relative="1" as="geometry">
            <Array as="points">
              <mxPoint x="800" y="-30" />
              <mxPoint x="1780" y="-30" />
            </Array>
          </mxGeometry>
        </mxCell>
        <mxCell id="it1oy1Ev6lmP9NEfRzvG-9" value="3" style="ellipse;whiteSpace=wrap;html=1;aspect=fixed;" vertex="1" parent="1">
          <mxGeometry x="760" y="50" width="80" height="80" as="geometry" />
        </mxCell>
        <mxCell id="it1oy1Ev6lmP9NEfRzvG-10" value="g" style="text;html=1;strokeColor=none;fillColor=none;align=center;verticalAlign=middle;whiteSpace=wrap;rounded=0;" vertex="1" parent="1">
          <mxGeometry x="850" y="50" width="40" height="20" as="geometry" />
        </mxCell>
        <mxCell id="it1oy1Ev6lmP9NEfRzvG-11" style="edgeStyle=orthogonalEdgeStyle;rounded=0;orthogonalLoop=1;jettySize=auto;html=1;entryX=0;entryY=0.5;entryDx=0;entryDy=0;" edge="1" parent="1" source="it1oy1Ev6lmP9NEfRzvG-12" target="it1oy1Ev6lmP9NEfRzvG-15">
          <mxGeometry relative="1" as="geometry" />
        </mxCell>
        <mxCell id="it1oy1Ev6lmP9NEfRzvG-58" style="edgeStyle=orthogonalEdgeStyle;rounded=0;orthogonalLoop=1;jettySize=auto;html=1;" edge="1" parent="1" source="it1oy1Ev6lmP9NEfRzvG-12">
          <mxGeometry relative="1" as="geometry">
            <mxPoint x="1580" y="600" as="targetPoint" />
            <Array as="points">
              <mxPoint x="950" y="150" />
              <mxPoint x="1581" y="150" />
              <mxPoint x="1581" y="600" />
            </Array>
          </mxGeometry>
        </mxCell>
        <mxCell id="it1oy1Ev6lmP9NEfRzvG-260" style="edgeStyle=orthogonalEdgeStyle;rounded=0;orthogonalLoop=1;jettySize=auto;html=1;entryX=0.5;entryY=0;entryDx=0;entryDy=0;" edge="1" parent="1" source="it1oy1Ev6lmP9NEfRzvG-12" target="it1oy1Ev6lmP9NEfRzvG-256">
          <mxGeometry relative="1" as="geometry">
            <Array as="points">
              <mxPoint x="950" y="-30" />
              <mxPoint x="1780" y="-30" />
            </Array>
          </mxGeometry>
        </mxCell>
        <mxCell id="it1oy1Ev6lmP9NEfRzvG-12" value="4" style="ellipse;whiteSpace=wrap;html=1;aspect=fixed;" vertex="1" parent="1">
          <mxGeometry x="910" y="50" width="80" height="80" as="geometry" />
        </mxCell>
        <mxCell id="it1oy1Ev6lmP9NEfRzvG-13" value="r" style="text;html=1;strokeColor=none;fillColor=none;align=center;verticalAlign=middle;whiteSpace=wrap;rounded=0;" vertex="1" parent="1">
          <mxGeometry x="1000" y="50" width="40" height="20" as="geometry" />
        </mxCell>
        <mxCell id="it1oy1Ev6lmP9NEfRzvG-14" style="edgeStyle=orthogonalEdgeStyle;rounded=0;orthogonalLoop=1;jettySize=auto;html=1;entryX=0;entryY=0.5;entryDx=0;entryDy=0;" edge="1" parent="1" source="it1oy1Ev6lmP9NEfRzvG-15" target="it1oy1Ev6lmP9NEfRzvG-18">
          <mxGeometry relative="1" as="geometry" />
        </mxCell>
        <mxCell id="it1oy1Ev6lmP9NEfRzvG-59" style="edgeStyle=orthogonalEdgeStyle;rounded=0;orthogonalLoop=1;jettySize=auto;html=1;" edge="1" parent="1" source="it1oy1Ev6lmP9NEfRzvG-15">
          <mxGeometry relative="1" as="geometry">
            <mxPoint x="1580" y="600" as="targetPoint" />
            <Array as="points">
              <mxPoint x="1100" y="150" />
              <mxPoint x="1581" y="150" />
              <mxPoint x="1581" y="600" />
            </Array>
          </mxGeometry>
        </mxCell>
        <mxCell id="it1oy1Ev6lmP9NEfRzvG-261" style="edgeStyle=orthogonalEdgeStyle;rounded=0;orthogonalLoop=1;jettySize=auto;html=1;" edge="1" parent="1" source="it1oy1Ev6lmP9NEfRzvG-15">
          <mxGeometry relative="1" as="geometry">
            <mxPoint x="1780" y="590" as="targetPoint" />
            <Array as="points">
              <mxPoint x="1100" y="-30" />
              <mxPoint x="1780" y="-30" />
            </Array>
          </mxGeometry>
        </mxCell>
        <mxCell id="it1oy1Ev6lmP9NEfRzvG-15" value="5" style="ellipse;whiteSpace=wrap;html=1;aspect=fixed;" vertex="1" parent="1">
          <mxGeometry x="1060" y="50" width="80" height="80" as="geometry" />
        </mxCell>
        <mxCell id="it1oy1Ev6lmP9NEfRzvG-16" value="a" style="text;html=1;strokeColor=none;fillColor=none;align=center;verticalAlign=middle;whiteSpace=wrap;rounded=0;" vertex="1" parent="1">
          <mxGeometry x="1150" y="50" width="40" height="20" as="geometry" />
        </mxCell>
        <mxCell id="it1oy1Ev6lmP9NEfRzvG-60" style="edgeStyle=orthogonalEdgeStyle;rounded=0;orthogonalLoop=1;jettySize=auto;html=1;" edge="1" parent="1" source="it1oy1Ev6lmP9NEfRzvG-18">
          <mxGeometry relative="1" as="geometry">
            <mxPoint x="1580" y="600" as="targetPoint" />
            <Array as="points">
              <mxPoint x="1250" y="150" />
              <mxPoint x="1581" y="150" />
              <mxPoint x="1581" y="600" />
            </Array>
          </mxGeometry>
        </mxCell>
        <mxCell id="it1oy1Ev6lmP9NEfRzvG-62" style="edgeStyle=orthogonalEdgeStyle;rounded=0;orthogonalLoop=1;jettySize=auto;html=1;" edge="1" parent="1" source="it1oy1Ev6lmP9NEfRzvG-18" target="it1oy1Ev6lmP9NEfRzvG-61">
          <mxGeometry relative="1" as="geometry" />
        </mxCell>
        <mxCell id="it1oy1Ev6lmP9NEfRzvG-262" style="edgeStyle=orthogonalEdgeStyle;rounded=0;orthogonalLoop=1;jettySize=auto;html=1;entryX=0.5;entryY=0;entryDx=0;entryDy=0;" edge="1" parent="1" source="it1oy1Ev6lmP9NEfRzvG-18" target="it1oy1Ev6lmP9NEfRzvG-256">
          <mxGeometry relative="1" as="geometry">
            <Array as="points">
              <mxPoint x="1250" y="-30" />
              <mxPoint x="1780" y="-30" />
            </Array>
          </mxGeometry>
        </mxCell>
        <mxCell id="it1oy1Ev6lmP9NEfRzvG-18" value="6" style="ellipse;whiteSpace=wrap;html=1;aspect=fixed;" vertex="1" parent="1">
          <mxGeometry x="1210" y="50" width="80" height="80" as="geometry" />
        </mxCell>
        <mxCell id="it1oy1Ev6lmP9NEfRzvG-19" value="m" style="text;html=1;strokeColor=none;fillColor=none;align=center;verticalAlign=middle;whiteSpace=wrap;rounded=0;" vertex="1" parent="1">
          <mxGeometry x="1300" y="50" width="40" height="20" as="geometry" />
        </mxCell>
        <mxCell id="it1oy1Ev6lmP9NEfRzvG-20" value="8" style="ellipse;shape=doubleEllipse;whiteSpace=wrap;html=1;aspect=fixed;" vertex="1" parent="1">
          <mxGeometry x="1520" y="50" width="80" height="80" as="geometry" />
        </mxCell>
        <mxCell id="it1oy1Ev6lmP9NEfRzvG-21" value="RETURN(program, NULL)" style="text;html=1;strokeColor=none;fillColor=none;align=center;verticalAlign=middle;whiteSpace=wrap;rounded=0;" vertex="1" parent="1">
          <mxGeometry x="1640" y="80" width="40" height="20" as="geometry" />
        </mxCell>
        <mxCell id="it1oy1Ev6lmP9NEfRzvG-22" value="p" style="text;html=1;strokeColor=none;fillColor=none;align=center;verticalAlign=middle;whiteSpace=wrap;rounded=0;" vertex="1" parent="1">
          <mxGeometry x="400" y="60" width="40" height="20" as="geometry" />
        </mxCell>
        <mxCell id="it1oy1Ev6lmP9NEfRzvG-24" value="(" style="text;html=1;strokeColor=none;fillColor=none;align=center;verticalAlign=middle;whiteSpace=wrap;rounded=0;" vertex="1" parent="1">
          <mxGeometry x="250" y="150" width="40" height="20" as="geometry" />
        </mxCell>
        <mxCell id="it1oy1Ev6lmP9NEfRzvG-25" value="9" style="ellipse;shape=doubleEllipse;whiteSpace=wrap;html=1;aspect=fixed;" vertex="1" parent="1">
          <mxGeometry x="284" y="150" width="80" height="80" as="geometry" />
        </mxCell>
        <mxCell id="it1oy1Ev6lmP9NEfRzvG-26" value="RETURN((, NULL)" style="text;html=1;strokeColor=none;fillColor=none;align=center;verticalAlign=middle;whiteSpace=wrap;rounded=0;" vertex="1" parent="1">
          <mxGeometry x="375" y="160" width="40" height="20" as="geometry" />
        </mxCell>
        <mxCell id="it1oy1Ev6lmP9NEfRzvG-28" value=")" style="text;html=1;strokeColor=none;fillColor=none;align=center;verticalAlign=middle;whiteSpace=wrap;rounded=0;" vertex="1" parent="1">
          <mxGeometry x="244" y="250" width="40" height="20" as="geometry" />
        </mxCell>
        <mxCell id="it1oy1Ev6lmP9NEfRzvG-29" value="10" style="ellipse;shape=doubleEllipse;whiteSpace=wrap;html=1;aspect=fixed;" vertex="1" parent="1">
          <mxGeometry x="284" y="240" width="80" height="80" as="geometry" />
        </mxCell>
        <mxCell id="it1oy1Ev6lmP9NEfRzvG-30" value="RETURN(), NULL)" style="text;html=1;strokeColor=none;fillColor=none;align=center;verticalAlign=middle;whiteSpace=wrap;rounded=0;" vertex="1" parent="1">
          <mxGeometry x="374" y="250" width="40" height="20" as="geometry" />
        </mxCell>
        <mxCell id="it1oy1Ev6lmP9NEfRzvG-255" style="edgeStyle=orthogonalEdgeStyle;rounded=0;orthogonalLoop=1;jettySize=auto;html=1;entryX=0;entryY=0.5;entryDx=0;entryDy=0;" edge="1" parent="1" source="it1oy1Ev6lmP9NEfRzvG-34">
          <mxGeometry relative="1" as="geometry">
            <mxPoint x="1740.0000000000127" y="639.9999999999998" as="targetPoint" />
          </mxGeometry>
        </mxCell>
        <mxCell id="it1oy1Ev6lmP9NEfRzvG-34" value="91" style="ellipse;whiteSpace=wrap;html=1;aspect=fixed;" vertex="1" parent="1">
          <mxGeometry x="1540" y="600" width="80" height="80" as="geometry" />
        </mxCell>
        <mxCell id="it1oy1Ev6lmP9NEfRzvG-36" value="b" style="text;html=1;strokeColor=none;fillColor=none;align=center;verticalAlign=middle;whiteSpace=wrap;rounded=0;" vertex="1" parent="1">
          <mxGeometry x="304" y="330" width="40" height="20" as="geometry" />
        </mxCell>
        <mxCell id="it1oy1Ev6lmP9NEfRzvG-37" style="edgeStyle=orthogonalEdgeStyle;rounded=0;orthogonalLoop=1;jettySize=auto;html=1;entryX=0;entryY=0.5;entryDx=0;entryDy=0;" edge="1" parent="1" source="it1oy1Ev6lmP9NEfRzvG-38" target="it1oy1Ev6lmP9NEfRzvG-41">
          <mxGeometry relative="1" as="geometry" />
        </mxCell>
        <mxCell id="it1oy1Ev6lmP9NEfRzvG-77" style="edgeStyle=orthogonalEdgeStyle;rounded=0;orthogonalLoop=1;jettySize=auto;html=1;entryX=0.5;entryY=0;entryDx=0;entryDy=0;" edge="1" parent="1" source="it1oy1Ev6lmP9NEfRzvG-38" target="it1oy1Ev6lmP9NEfRzvG-34">
          <mxGeometry relative="1" as="geometry">
            <Array as="points">
              <mxPoint x="404" y="430" />
              <mxPoint x="1580" y="430" />
            </Array>
          </mxGeometry>
        </mxCell>
        <mxCell id="it1oy1Ev6lmP9NEfRzvG-274" style="edgeStyle=orthogonalEdgeStyle;rounded=0;orthogonalLoop=1;jettySize=auto;html=1;entryX=0.5;entryY=0;entryDx=0;entryDy=0;" edge="1" parent="1" source="it1oy1Ev6lmP9NEfRzvG-38" target="it1oy1Ev6lmP9NEfRzvG-256">
          <mxGeometry relative="1" as="geometry">
            <Array as="points">
              <mxPoint x="404" y="300" />
              <mxPoint x="1780" y="300" />
            </Array>
          </mxGeometry>
        </mxCell>
        <mxCell id="it1oy1Ev6lmP9NEfRzvG-38" value="11" style="ellipse;whiteSpace=wrap;html=1;aspect=fixed;" vertex="1" parent="1">
          <mxGeometry x="364" y="330" width="80" height="80" as="geometry" />
        </mxCell>
        <mxCell id="it1oy1Ev6lmP9NEfRzvG-39" value="e" style="text;html=1;strokeColor=none;fillColor=none;align=center;verticalAlign=middle;whiteSpace=wrap;rounded=0;" vertex="1" parent="1">
          <mxGeometry x="454" y="330" width="40" height="20" as="geometry" />
        </mxCell>
        <mxCell id="it1oy1Ev6lmP9NEfRzvG-40" style="edgeStyle=orthogonalEdgeStyle;rounded=0;orthogonalLoop=1;jettySize=auto;html=1;entryX=0;entryY=0.5;entryDx=0;entryDy=0;" edge="1" parent="1" source="it1oy1Ev6lmP9NEfRzvG-41" target="it1oy1Ev6lmP9NEfRzvG-44">
          <mxGeometry relative="1" as="geometry" />
        </mxCell>
        <mxCell id="it1oy1Ev6lmP9NEfRzvG-78" style="edgeStyle=orthogonalEdgeStyle;rounded=0;orthogonalLoop=1;jettySize=auto;html=1;entryX=0.5;entryY=0;entryDx=0;entryDy=0;" edge="1" parent="1" source="it1oy1Ev6lmP9NEfRzvG-41" target="it1oy1Ev6lmP9NEfRzvG-34">
          <mxGeometry relative="1" as="geometry">
            <Array as="points">
              <mxPoint x="554" y="430" />
              <mxPoint x="1580" y="430" />
            </Array>
          </mxGeometry>
        </mxCell>
        <mxCell id="it1oy1Ev6lmP9NEfRzvG-275" style="edgeStyle=orthogonalEdgeStyle;rounded=0;orthogonalLoop=1;jettySize=auto;html=1;" edge="1" parent="1" source="it1oy1Ev6lmP9NEfRzvG-41" target="it1oy1Ev6lmP9NEfRzvG-256">
          <mxGeometry relative="1" as="geometry">
            <Array as="points">
              <mxPoint x="554" y="300" />
              <mxPoint x="1780" y="300" />
            </Array>
          </mxGeometry>
        </mxCell>
        <mxCell id="it1oy1Ev6lmP9NEfRzvG-41" value="12" style="ellipse;whiteSpace=wrap;html=1;aspect=fixed;" vertex="1" parent="1">
          <mxGeometry x="514" y="330" width="80" height="80" as="geometry" />
        </mxCell>
        <mxCell id="it1oy1Ev6lmP9NEfRzvG-42" value="g" style="text;html=1;strokeColor=none;fillColor=none;align=center;verticalAlign=middle;whiteSpace=wrap;rounded=0;" vertex="1" parent="1">
          <mxGeometry x="604" y="330" width="40" height="20" as="geometry" />
        </mxCell>
        <mxCell id="it1oy1Ev6lmP9NEfRzvG-43" style="edgeStyle=orthogonalEdgeStyle;rounded=0;orthogonalLoop=1;jettySize=auto;html=1;entryX=0;entryY=0.5;entryDx=0;entryDy=0;" edge="1" parent="1" source="it1oy1Ev6lmP9NEfRzvG-44" target="it1oy1Ev6lmP9NEfRzvG-47">
          <mxGeometry relative="1" as="geometry" />
        </mxCell>
        <mxCell id="it1oy1Ev6lmP9NEfRzvG-79" style="edgeStyle=orthogonalEdgeStyle;rounded=0;orthogonalLoop=1;jettySize=auto;html=1;" edge="1" parent="1" source="it1oy1Ev6lmP9NEfRzvG-44">
          <mxGeometry relative="1" as="geometry">
            <mxPoint x="1580" y="600" as="targetPoint" />
            <Array as="points">
              <mxPoint x="704" y="430" />
              <mxPoint x="1581" y="430" />
              <mxPoint x="1581" y="600" />
            </Array>
          </mxGeometry>
        </mxCell>
        <mxCell id="it1oy1Ev6lmP9NEfRzvG-285" style="edgeStyle=orthogonalEdgeStyle;rounded=0;orthogonalLoop=1;jettySize=auto;html=1;entryX=0.5;entryY=0;entryDx=0;entryDy=0;" edge="1" parent="1" source="it1oy1Ev6lmP9NEfRzvG-44" target="it1oy1Ev6lmP9NEfRzvG-256">
          <mxGeometry relative="1" as="geometry">
            <Array as="points">
              <mxPoint x="704" y="300" />
              <mxPoint x="1780" y="300" />
            </Array>
          </mxGeometry>
        </mxCell>
        <mxCell id="it1oy1Ev6lmP9NEfRzvG-44" value="13" style="ellipse;whiteSpace=wrap;html=1;aspect=fixed;" vertex="1" parent="1">
          <mxGeometry x="664" y="330" width="80" height="80" as="geometry" />
        </mxCell>
        <mxCell id="it1oy1Ev6lmP9NEfRzvG-45" value="i" style="text;html=1;strokeColor=none;fillColor=none;align=center;verticalAlign=middle;whiteSpace=wrap;rounded=0;" vertex="1" parent="1">
          <mxGeometry x="754" y="330" width="40" height="20" as="geometry" />
        </mxCell>
        <mxCell id="it1oy1Ev6lmP9NEfRzvG-54" style="edgeStyle=orthogonalEdgeStyle;rounded=0;orthogonalLoop=1;jettySize=auto;html=1;entryX=0;entryY=0.5;entryDx=0;entryDy=0;" edge="1" parent="1" source="it1oy1Ev6lmP9NEfRzvG-47" target="it1oy1Ev6lmP9NEfRzvG-52">
          <mxGeometry relative="1" as="geometry" />
        </mxCell>
        <mxCell id="it1oy1Ev6lmP9NEfRzvG-80" style="edgeStyle=orthogonalEdgeStyle;rounded=0;orthogonalLoop=1;jettySize=auto;html=1;entryX=0.5;entryY=0;entryDx=0;entryDy=0;" edge="1" parent="1" source="it1oy1Ev6lmP9NEfRzvG-47" target="it1oy1Ev6lmP9NEfRzvG-34">
          <mxGeometry relative="1" as="geometry">
            <Array as="points">
              <mxPoint x="854" y="430" />
              <mxPoint x="1580" y="430" />
            </Array>
          </mxGeometry>
        </mxCell>
        <mxCell id="it1oy1Ev6lmP9NEfRzvG-276" style="edgeStyle=orthogonalEdgeStyle;rounded=0;orthogonalLoop=1;jettySize=auto;html=1;" edge="1" parent="1" source="it1oy1Ev6lmP9NEfRzvG-47">
          <mxGeometry relative="1" as="geometry">
            <mxPoint x="1780" y="600" as="targetPoint" />
            <Array as="points">
              <mxPoint x="854" y="300" />
              <mxPoint x="1781" y="300" />
              <mxPoint x="1781" y="600" />
            </Array>
          </mxGeometry>
        </mxCell>
        <mxCell id="it1oy1Ev6lmP9NEfRzvG-47" value="14" style="ellipse;whiteSpace=wrap;html=1;aspect=fixed;" vertex="1" parent="1">
          <mxGeometry x="814" y="330" width="80" height="80" as="geometry" />
        </mxCell>
        <mxCell id="it1oy1Ev6lmP9NEfRzvG-48" value="n" style="text;html=1;strokeColor=none;fillColor=none;align=center;verticalAlign=middle;whiteSpace=wrap;rounded=0;" vertex="1" parent="1">
          <mxGeometry x="904" y="330" width="40" height="20" as="geometry" />
        </mxCell>
        <mxCell id="it1oy1Ev6lmP9NEfRzvG-49" value="16" style="ellipse;shape=doubleEllipse;whiteSpace=wrap;html=1;aspect=fixed;" vertex="1" parent="1">
          <mxGeometry x="1140" y="330" width="80" height="80" as="geometry" />
        </mxCell>
        <mxCell id="it1oy1Ev6lmP9NEfRzvG-50" value="RETURN(begin, NULL)" style="text;html=1;strokeColor=none;fillColor=none;align=center;verticalAlign=middle;whiteSpace=wrap;rounded=0;" vertex="1" parent="1">
          <mxGeometry x="1260" y="360" width="40" height="20" as="geometry" />
        </mxCell>
        <mxCell id="it1oy1Ev6lmP9NEfRzvG-53" style="edgeStyle=orthogonalEdgeStyle;rounded=0;orthogonalLoop=1;jettySize=auto;html=1;entryX=0;entryY=0.5;entryDx=0;entryDy=0;" edge="1" parent="1" source="it1oy1Ev6lmP9NEfRzvG-52" target="it1oy1Ev6lmP9NEfRzvG-49">
          <mxGeometry relative="1" as="geometry" />
        </mxCell>
        <mxCell id="it1oy1Ev6lmP9NEfRzvG-81" style="edgeStyle=orthogonalEdgeStyle;rounded=0;orthogonalLoop=1;jettySize=auto;html=1;" edge="1" parent="1" source="it1oy1Ev6lmP9NEfRzvG-52">
          <mxGeometry relative="1" as="geometry">
            <mxPoint x="1580" y="600" as="targetPoint" />
            <Array as="points">
              <mxPoint x="1020" y="430" />
              <mxPoint x="1580" y="430" />
            </Array>
          </mxGeometry>
        </mxCell>
        <mxCell id="it1oy1Ev6lmP9NEfRzvG-52" value="15" style="ellipse;whiteSpace=wrap;html=1;aspect=fixed;" vertex="1" parent="1">
          <mxGeometry x="980" y="330" width="80" height="80" as="geometry" />
        </mxCell>
        <mxCell id="it1oy1Ev6lmP9NEfRzvG-63" style="edgeStyle=orthogonalEdgeStyle;rounded=0;orthogonalLoop=1;jettySize=auto;html=1;" edge="1" parent="1" source="it1oy1Ev6lmP9NEfRzvG-61" target="it1oy1Ev6lmP9NEfRzvG-20">
          <mxGeometry relative="1" as="geometry" />
        </mxCell>
        <mxCell id="it1oy1Ev6lmP9NEfRzvG-64" style="edgeStyle=orthogonalEdgeStyle;rounded=0;orthogonalLoop=1;jettySize=auto;html=1;entryX=0.5;entryY=0;entryDx=0;entryDy=0;" edge="1" parent="1" source="it1oy1Ev6lmP9NEfRzvG-61" target="it1oy1Ev6lmP9NEfRzvG-34">
          <mxGeometry relative="1" as="geometry">
            <Array as="points">
              <mxPoint x="1390" y="150" />
              <mxPoint x="1580" y="150" />
            </Array>
          </mxGeometry>
        </mxCell>
        <mxCell id="it1oy1Ev6lmP9NEfRzvG-61" value="7" style="ellipse;whiteSpace=wrap;html=1;aspect=fixed;" vertex="1" parent="1">
          <mxGeometry x="1350" y="50" width="80" height="80" as="geometry" />
        </mxCell>
        <mxCell id="it1oy1Ev6lmP9NEfRzvG-65" value="[^a-zA-Z0-9_]&lt;br&gt;" style="text;html=1;align=center;verticalAlign=middle;resizable=0;points=[];autosize=1;strokeColor=none;fillColor=none;" vertex="1" parent="1">
          <mxGeometry x="1420" y="55" width="100" height="30" as="geometry" />
        </mxCell>
        <mxCell id="it1oy1Ev6lmP9NEfRzvG-66" value="[a-qs-zA-Z0-9_]&lt;br&gt;" style="text;html=1;align=center;verticalAlign=middle;resizable=0;points=[];autosize=1;strokeColor=none;fillColor=none;" vertex="1" parent="1">
          <mxGeometry x="514" y="120" width="110" height="30" as="geometry" />
        </mxCell>
        <mxCell id="it1oy1Ev6lmP9NEfRzvG-67" value="[a-np-zA-Z0-9_]" style="text;html=1;align=center;verticalAlign=middle;resizable=0;points=[];autosize=1;strokeColor=none;fillColor=none;" vertex="1" parent="1">
          <mxGeometry x="665" y="120" width="110" height="30" as="geometry" />
        </mxCell>
        <mxCell id="it1oy1Ev6lmP9NEfRzvG-69" value="[a-fh-zA-Z0-9_]" style="text;html=1;align=center;verticalAlign=middle;resizable=0;points=[];autosize=1;strokeColor=none;fillColor=none;" vertex="1" parent="1">
          <mxGeometry x="820" y="120" width="100" height="30" as="geometry" />
        </mxCell>
        <mxCell id="it1oy1Ev6lmP9NEfRzvG-70" value="[a-qs-zA-Z0-9_]" style="text;html=1;align=center;verticalAlign=middle;resizable=0;points=[];autosize=1;strokeColor=none;fillColor=none;" vertex="1" parent="1">
          <mxGeometry x="965" y="120" width="110" height="30" as="geometry" />
        </mxCell>
        <mxCell id="it1oy1Ev6lmP9NEfRzvG-71" value="[b-zA-Z0-9_]" style="text;html=1;align=center;verticalAlign=middle;resizable=0;points=[];autosize=1;strokeColor=none;fillColor=none;" vertex="1" parent="1">
          <mxGeometry x="1125" y="120" width="90" height="30" as="geometry" />
        </mxCell>
        <mxCell id="it1oy1Ev6lmP9NEfRzvG-72" value="[a-ln-zA-Z0-9_]" style="text;html=1;align=center;verticalAlign=middle;resizable=0;points=[];autosize=1;strokeColor=none;fillColor=none;" vertex="1" parent="1">
          <mxGeometry x="1270" y="120" width="100" height="30" as="geometry" />
        </mxCell>
        <mxCell id="it1oy1Ev6lmP9NEfRzvG-74" value="[a-zA-Z0-9_]" style="text;html=1;align=center;verticalAlign=middle;resizable=0;points=[];autosize=1;strokeColor=none;fillColor=none;" vertex="1" parent="1">
          <mxGeometry x="1405" y="120" width="90" height="30" as="geometry" />
        </mxCell>
        <mxCell id="it1oy1Ev6lmP9NEfRzvG-75" value="[^a-zA-Z0-9_]&lt;br&gt;" style="text;html=1;align=center;verticalAlign=middle;resizable=0;points=[];autosize=1;strokeColor=none;fillColor=none;" vertex="1" parent="1">
          <mxGeometry x="1050" y="330" width="100" height="30" as="geometry" />
        </mxCell>
        <mxCell id="it1oy1Ev6lmP9NEfRzvG-76" value="*" style="text;html=1;align=center;verticalAlign=middle;resizable=0;points=[];autosize=1;strokeColor=none;fillColor=none;" vertex="1" parent="1">
          <mxGeometry x="1590" y="30" width="30" height="30" as="geometry" />
        </mxCell>
        <mxCell id="it1oy1Ev6lmP9NEfRzvG-82" value="[a-df-zA-Z0-9_]" style="text;html=1;align=center;verticalAlign=middle;resizable=0;points=[];autosize=1;strokeColor=none;fillColor=none;" vertex="1" parent="1">
          <mxGeometry x="425" y="400" width="100" height="30" as="geometry" />
        </mxCell>
        <mxCell id="it1oy1Ev6lmP9NEfRzvG-83" value="[a-fh-zA-Z0-9_]" style="text;html=1;align=center;verticalAlign=middle;resizable=0;points=[];autosize=1;strokeColor=none;fillColor=none;" vertex="1" parent="1">
          <mxGeometry x="574" y="400" width="100" height="30" as="geometry" />
        </mxCell>
        <mxCell id="it1oy1Ev6lmP9NEfRzvG-84" value="[a-hj-zA-Z0-9_]" style="text;html=1;align=center;verticalAlign=middle;resizable=0;points=[];autosize=1;strokeColor=none;fillColor=none;" vertex="1" parent="1">
          <mxGeometry x="720" y="400" width="100" height="30" as="geometry" />
        </mxCell>
        <mxCell id="it1oy1Ev6lmP9NEfRzvG-85" value="[a-mo-zA-Z0-9_]" style="text;html=1;align=center;verticalAlign=middle;resizable=0;points=[];autosize=1;strokeColor=none;fillColor=none;" vertex="1" parent="1">
          <mxGeometry x="885" y="400" width="110" height="30" as="geometry" />
        </mxCell>
        <mxCell id="it1oy1Ev6lmP9NEfRzvG-86" value="[a-zA-Z0-9_]" style="text;html=1;align=center;verticalAlign=middle;resizable=0;points=[];autosize=1;strokeColor=none;fillColor=none;" vertex="1" parent="1">
          <mxGeometry x="1045" y="400" width="90" height="30" as="geometry" />
        </mxCell>
        <mxCell id="it1oy1Ev6lmP9NEfRzvG-99" value="t" style="text;html=1;strokeColor=none;fillColor=none;align=center;verticalAlign=middle;whiteSpace=wrap;rounded=0;" vertex="1" parent="1">
          <mxGeometry x="300" y="490" width="40" height="20" as="geometry" />
        </mxCell>
        <mxCell id="it1oy1Ev6lmP9NEfRzvG-100" style="edgeStyle=orthogonalEdgeStyle;rounded=0;orthogonalLoop=1;jettySize=auto;html=1;entryX=0;entryY=0.5;entryDx=0;entryDy=0;" edge="1" parent="1" source="it1oy1Ev6lmP9NEfRzvG-101" target="it1oy1Ev6lmP9NEfRzvG-104">
          <mxGeometry relative="1" as="geometry" />
        </mxCell>
        <mxCell id="it1oy1Ev6lmP9NEfRzvG-118" style="edgeStyle=orthogonalEdgeStyle;rounded=0;orthogonalLoop=1;jettySize=auto;html=1;entryX=0.5;entryY=0;entryDx=0;entryDy=0;" edge="1" parent="1" source="it1oy1Ev6lmP9NEfRzvG-101" target="it1oy1Ev6lmP9NEfRzvG-34">
          <mxGeometry relative="1" as="geometry">
            <Array as="points">
              <mxPoint x="400" y="590" />
              <mxPoint x="1580" y="590" />
            </Array>
          </mxGeometry>
        </mxCell>
        <mxCell id="it1oy1Ev6lmP9NEfRzvG-279" style="edgeStyle=orthogonalEdgeStyle;rounded=0;orthogonalLoop=1;jettySize=auto;html=1;entryX=0.5;entryY=0;entryDx=0;entryDy=0;" edge="1" parent="1" source="it1oy1Ev6lmP9NEfRzvG-101" target="it1oy1Ev6lmP9NEfRzvG-256">
          <mxGeometry relative="1" as="geometry">
            <Array as="points">
              <mxPoint x="400" y="470" />
              <mxPoint x="1780" y="470" />
            </Array>
          </mxGeometry>
        </mxCell>
        <mxCell id="it1oy1Ev6lmP9NEfRzvG-101" value="17" style="ellipse;whiteSpace=wrap;html=1;aspect=fixed;" vertex="1" parent="1">
          <mxGeometry x="360" y="490" width="80" height="80" as="geometry" />
        </mxCell>
        <mxCell id="it1oy1Ev6lmP9NEfRzvG-102" value="h" style="text;html=1;strokeColor=none;fillColor=none;align=center;verticalAlign=middle;whiteSpace=wrap;rounded=0;" vertex="1" parent="1">
          <mxGeometry x="450" y="490" width="40" height="20" as="geometry" />
        </mxCell>
        <mxCell id="it1oy1Ev6lmP9NEfRzvG-103" style="edgeStyle=orthogonalEdgeStyle;rounded=0;orthogonalLoop=1;jettySize=auto;html=1;entryX=0;entryY=0.5;entryDx=0;entryDy=0;" edge="1" parent="1" source="it1oy1Ev6lmP9NEfRzvG-104" target="it1oy1Ev6lmP9NEfRzvG-107">
          <mxGeometry relative="1" as="geometry" />
        </mxCell>
        <mxCell id="it1oy1Ev6lmP9NEfRzvG-119" style="edgeStyle=orthogonalEdgeStyle;rounded=0;orthogonalLoop=1;jettySize=auto;html=1;" edge="1" parent="1" source="it1oy1Ev6lmP9NEfRzvG-104">
          <mxGeometry relative="1" as="geometry">
            <mxPoint x="1580" y="600" as="targetPoint" />
            <Array as="points">
              <mxPoint x="550" y="590" />
              <mxPoint x="1581" y="590" />
              <mxPoint x="1581" y="600" />
            </Array>
          </mxGeometry>
        </mxCell>
        <mxCell id="it1oy1Ev6lmP9NEfRzvG-280" style="edgeStyle=orthogonalEdgeStyle;rounded=0;orthogonalLoop=1;jettySize=auto;html=1;" edge="1" parent="1" source="it1oy1Ev6lmP9NEfRzvG-104" target="it1oy1Ev6lmP9NEfRzvG-256">
          <mxGeometry relative="1" as="geometry">
            <Array as="points">
              <mxPoint x="550" y="470" />
              <mxPoint x="1780" y="470" />
            </Array>
          </mxGeometry>
        </mxCell>
        <mxCell id="it1oy1Ev6lmP9NEfRzvG-104" value="18" style="ellipse;whiteSpace=wrap;html=1;aspect=fixed;" vertex="1" parent="1">
          <mxGeometry x="510" y="490" width="80" height="80" as="geometry" />
        </mxCell>
        <mxCell id="it1oy1Ev6lmP9NEfRzvG-105" value="e" style="text;html=1;strokeColor=none;fillColor=none;align=center;verticalAlign=middle;whiteSpace=wrap;rounded=0;" vertex="1" parent="1">
          <mxGeometry x="600" y="490" width="40" height="20" as="geometry" />
        </mxCell>
        <mxCell id="it1oy1Ev6lmP9NEfRzvG-113" style="edgeStyle=orthogonalEdgeStyle;rounded=0;orthogonalLoop=1;jettySize=auto;html=1;" edge="1" parent="1" source="it1oy1Ev6lmP9NEfRzvG-107" target="it1oy1Ev6lmP9NEfRzvG-112">
          <mxGeometry relative="1" as="geometry" />
        </mxCell>
        <mxCell id="it1oy1Ev6lmP9NEfRzvG-120" style="edgeStyle=orthogonalEdgeStyle;rounded=0;orthogonalLoop=1;jettySize=auto;html=1;" edge="1" parent="1" source="it1oy1Ev6lmP9NEfRzvG-107">
          <mxGeometry relative="1" as="geometry">
            <mxPoint x="1580" y="600" as="targetPoint" />
            <Array as="points">
              <mxPoint x="700" y="590" />
              <mxPoint x="1581" y="590" />
              <mxPoint x="1581" y="600" />
            </Array>
          </mxGeometry>
        </mxCell>
        <mxCell id="it1oy1Ev6lmP9NEfRzvG-281" style="edgeStyle=orthogonalEdgeStyle;rounded=0;orthogonalLoop=1;jettySize=auto;html=1;entryX=0.5;entryY=0;entryDx=0;entryDy=0;" edge="1" parent="1" source="it1oy1Ev6lmP9NEfRzvG-107" target="it1oy1Ev6lmP9NEfRzvG-256">
          <mxGeometry relative="1" as="geometry">
            <Array as="points">
              <mxPoint x="700" y="470" />
              <mxPoint x="1780" y="470" />
            </Array>
          </mxGeometry>
        </mxCell>
        <mxCell id="it1oy1Ev6lmP9NEfRzvG-107" value="20" style="ellipse;whiteSpace=wrap;html=1;aspect=fixed;" vertex="1" parent="1">
          <mxGeometry x="660" y="490" width="80" height="80" as="geometry" />
        </mxCell>
        <mxCell id="it1oy1Ev6lmP9NEfRzvG-108" value="n" style="text;html=1;strokeColor=none;fillColor=none;align=center;verticalAlign=middle;whiteSpace=wrap;rounded=0;" vertex="1" parent="1">
          <mxGeometry x="750" y="490" width="40" height="20" as="geometry" />
        </mxCell>
        <mxCell id="it1oy1Ev6lmP9NEfRzvG-109" value="22" style="ellipse;shape=doubleEllipse;whiteSpace=wrap;html=1;aspect=fixed;" vertex="1" parent="1">
          <mxGeometry x="975" y="490" width="80" height="80" as="geometry" />
        </mxCell>
        <mxCell id="it1oy1Ev6lmP9NEfRzvG-110" value="RETURN(then, NULL)" style="text;html=1;strokeColor=none;fillColor=none;align=center;verticalAlign=middle;whiteSpace=wrap;rounded=0;" vertex="1" parent="1">
          <mxGeometry x="1095" y="520" width="40" height="20" as="geometry" />
        </mxCell>
        <mxCell id="it1oy1Ev6lmP9NEfRzvG-115" style="edgeStyle=orthogonalEdgeStyle;rounded=0;orthogonalLoop=1;jettySize=auto;html=1;entryX=0;entryY=0.5;entryDx=0;entryDy=0;" edge="1" parent="1" source="it1oy1Ev6lmP9NEfRzvG-112" target="it1oy1Ev6lmP9NEfRzvG-109">
          <mxGeometry relative="1" as="geometry" />
        </mxCell>
        <mxCell id="it1oy1Ev6lmP9NEfRzvG-121" style="edgeStyle=orthogonalEdgeStyle;rounded=0;orthogonalLoop=1;jettySize=auto;html=1;" edge="1" parent="1" source="it1oy1Ev6lmP9NEfRzvG-112">
          <mxGeometry relative="1" as="geometry">
            <mxPoint x="1580" y="600" as="targetPoint" />
            <Array as="points">
              <mxPoint x="854" y="590" />
              <mxPoint x="1581" y="590" />
              <mxPoint x="1581" y="600" />
            </Array>
          </mxGeometry>
        </mxCell>
        <mxCell id="it1oy1Ev6lmP9NEfRzvG-112" value="21" style="ellipse;whiteSpace=wrap;html=1;aspect=fixed;" vertex="1" parent="1">
          <mxGeometry x="814" y="490" width="80" height="80" as="geometry" />
        </mxCell>
        <mxCell id="it1oy1Ev6lmP9NEfRzvG-122" value="[a-gi-zA-Z0-9_]" style="text;html=1;align=center;verticalAlign=middle;resizable=0;points=[];autosize=1;strokeColor=none;fillColor=none;" vertex="1" parent="1">
          <mxGeometry x="425" y="560" width="100" height="30" as="geometry" />
        </mxCell>
        <mxCell id="it1oy1Ev6lmP9NEfRzvG-123" value="[a-df-zA-Z0-9_]" style="text;html=1;align=center;verticalAlign=middle;resizable=0;points=[];autosize=1;strokeColor=none;fillColor=none;" vertex="1" parent="1">
          <mxGeometry x="570" y="560" width="100" height="30" as="geometry" />
        </mxCell>
        <mxCell id="it1oy1Ev6lmP9NEfRzvG-124" value="[a-mo-zA-Z0-9_]" style="text;html=1;align=center;verticalAlign=middle;resizable=0;points=[];autosize=1;strokeColor=none;fillColor=none;" vertex="1" parent="1">
          <mxGeometry x="722" y="560" width="110" height="30" as="geometry" />
        </mxCell>
        <mxCell id="it1oy1Ev6lmP9NEfRzvG-125" value="[^a-zA-Z0-9_]&lt;br&gt;" style="text;html=1;align=center;verticalAlign=middle;resizable=0;points=[];autosize=1;strokeColor=none;fillColor=none;" vertex="1" parent="1">
          <mxGeometry x="880" y="500" width="100" height="30" as="geometry" />
        </mxCell>
        <mxCell id="it1oy1Ev6lmP9NEfRzvG-126" value="[a-zA-Z0-9_]" style="text;html=1;align=center;verticalAlign=middle;resizable=0;points=[];autosize=1;strokeColor=none;fillColor=none;" vertex="1" parent="1">
          <mxGeometry x="860" y="560" width="90" height="30" as="geometry" />
        </mxCell>
        <mxCell id="it1oy1Ev6lmP9NEfRzvG-164" value="c" style="text;html=1;strokeColor=none;fillColor=none;align=center;verticalAlign=middle;whiteSpace=wrap;rounded=0;" vertex="1" parent="1">
          <mxGeometry x="310" y="780" width="40" height="20" as="geometry" />
        </mxCell>
        <mxCell id="it1oy1Ev6lmP9NEfRzvG-165" style="edgeStyle=orthogonalEdgeStyle;rounded=0;orthogonalLoop=1;jettySize=auto;html=1;entryX=0;entryY=0.5;entryDx=0;entryDy=0;" edge="1" parent="1" source="it1oy1Ev6lmP9NEfRzvG-166" target="it1oy1Ev6lmP9NEfRzvG-169">
          <mxGeometry relative="1" as="geometry" />
        </mxCell>
        <mxCell id="it1oy1Ev6lmP9NEfRzvG-177" style="edgeStyle=orthogonalEdgeStyle;rounded=0;orthogonalLoop=1;jettySize=auto;html=1;entryX=0.5;entryY=1;entryDx=0;entryDy=0;" edge="1" parent="1" source="it1oy1Ev6lmP9NEfRzvG-166" target="it1oy1Ev6lmP9NEfRzvG-34">
          <mxGeometry relative="1" as="geometry">
            <Array as="points">
              <mxPoint x="410" y="720" />
              <mxPoint x="1580" y="720" />
            </Array>
          </mxGeometry>
        </mxCell>
        <mxCell id="it1oy1Ev6lmP9NEfRzvG-292" style="edgeStyle=orthogonalEdgeStyle;rounded=0;orthogonalLoop=1;jettySize=auto;html=1;entryX=0.5;entryY=1;entryDx=0;entryDy=0;" edge="1" parent="1" source="it1oy1Ev6lmP9NEfRzvG-166" target="it1oy1Ev6lmP9NEfRzvG-256">
          <mxGeometry relative="1" as="geometry">
            <Array as="points">
              <mxPoint x="410" y="850" />
              <mxPoint x="1780" y="850" />
            </Array>
          </mxGeometry>
        </mxCell>
        <mxCell id="it1oy1Ev6lmP9NEfRzvG-166" value="23" style="ellipse;whiteSpace=wrap;html=1;aspect=fixed;" vertex="1" parent="1">
          <mxGeometry x="370" y="740" width="80" height="80" as="geometry" />
        </mxCell>
        <mxCell id="it1oy1Ev6lmP9NEfRzvG-167" value="h" style="text;html=1;strokeColor=none;fillColor=none;align=center;verticalAlign=middle;whiteSpace=wrap;rounded=0;" vertex="1" parent="1">
          <mxGeometry x="460" y="780" width="40" height="20" as="geometry" />
        </mxCell>
        <mxCell id="it1oy1Ev6lmP9NEfRzvG-168" style="edgeStyle=orthogonalEdgeStyle;rounded=0;orthogonalLoop=1;jettySize=auto;html=1;entryX=0;entryY=0.5;entryDx=0;entryDy=0;" edge="1" parent="1" source="it1oy1Ev6lmP9NEfRzvG-169" target="it1oy1Ev6lmP9NEfRzvG-172">
          <mxGeometry relative="1" as="geometry" />
        </mxCell>
        <mxCell id="it1oy1Ev6lmP9NEfRzvG-178" style="edgeStyle=orthogonalEdgeStyle;rounded=0;orthogonalLoop=1;jettySize=auto;html=1;" edge="1" parent="1" source="it1oy1Ev6lmP9NEfRzvG-169">
          <mxGeometry relative="1" as="geometry">
            <mxPoint x="1580" y="680" as="targetPoint" />
            <Array as="points">
              <mxPoint x="560" y="720" />
              <mxPoint x="1580" y="720" />
            </Array>
          </mxGeometry>
        </mxCell>
        <mxCell id="it1oy1Ev6lmP9NEfRzvG-293" style="edgeStyle=orthogonalEdgeStyle;rounded=0;orthogonalLoop=1;jettySize=auto;html=1;" edge="1" parent="1" source="it1oy1Ev6lmP9NEfRzvG-169">
          <mxGeometry relative="1" as="geometry">
            <mxPoint x="1780" y="680" as="targetPoint" />
            <Array as="points">
              <mxPoint x="560" y="850" />
              <mxPoint x="1781" y="850" />
              <mxPoint x="1781" y="680" />
            </Array>
          </mxGeometry>
        </mxCell>
        <mxCell id="it1oy1Ev6lmP9NEfRzvG-169" value="24" style="ellipse;whiteSpace=wrap;html=1;aspect=fixed;" vertex="1" parent="1">
          <mxGeometry x="520" y="740" width="80" height="80" as="geometry" />
        </mxCell>
        <mxCell id="it1oy1Ev6lmP9NEfRzvG-170" value="a" style="text;html=1;strokeColor=none;fillColor=none;align=center;verticalAlign=middle;whiteSpace=wrap;rounded=0;" vertex="1" parent="1">
          <mxGeometry x="610" y="780" width="40" height="20" as="geometry" />
        </mxCell>
        <mxCell id="it1oy1Ev6lmP9NEfRzvG-179" style="edgeStyle=orthogonalEdgeStyle;rounded=0;orthogonalLoop=1;jettySize=auto;html=1;" edge="1" parent="1" source="it1oy1Ev6lmP9NEfRzvG-172">
          <mxGeometry relative="1" as="geometry">
            <mxPoint x="1582.3529411764705" y="680" as="targetPoint" />
            <Array as="points">
              <mxPoint x="710" y="720" />
              <mxPoint x="1582" y="720" />
            </Array>
          </mxGeometry>
        </mxCell>
        <mxCell id="it1oy1Ev6lmP9NEfRzvG-181" style="edgeStyle=orthogonalEdgeStyle;rounded=0;orthogonalLoop=1;jettySize=auto;html=1;entryX=0;entryY=0.5;entryDx=0;entryDy=0;" edge="1" parent="1" source="it1oy1Ev6lmP9NEfRzvG-172" target="it1oy1Ev6lmP9NEfRzvG-180">
          <mxGeometry relative="1" as="geometry" />
        </mxCell>
        <mxCell id="it1oy1Ev6lmP9NEfRzvG-294" style="edgeStyle=orthogonalEdgeStyle;rounded=0;orthogonalLoop=1;jettySize=auto;html=1;" edge="1" parent="1" source="it1oy1Ev6lmP9NEfRzvG-172">
          <mxGeometry relative="1" as="geometry">
            <mxPoint x="1780" y="680" as="targetPoint" />
            <Array as="points">
              <mxPoint x="710" y="850" />
              <mxPoint x="1781" y="850" />
              <mxPoint x="1781" y="680" />
            </Array>
          </mxGeometry>
        </mxCell>
        <mxCell id="it1oy1Ev6lmP9NEfRzvG-172" value="25" style="ellipse;whiteSpace=wrap;html=1;aspect=fixed;" vertex="1" parent="1">
          <mxGeometry x="670" y="740" width="80" height="80" as="geometry" />
        </mxCell>
        <mxCell id="it1oy1Ev6lmP9NEfRzvG-173" value="r" style="text;html=1;strokeColor=none;fillColor=none;align=center;verticalAlign=middle;whiteSpace=wrap;rounded=0;" vertex="1" parent="1">
          <mxGeometry x="754" y="780" width="40" height="20" as="geometry" />
        </mxCell>
        <mxCell id="it1oy1Ev6lmP9NEfRzvG-174" value="27" style="ellipse;shape=doubleEllipse;whiteSpace=wrap;html=1;aspect=fixed;" vertex="1" parent="1">
          <mxGeometry x="980" y="740" width="80" height="80" as="geometry" />
        </mxCell>
        <mxCell id="it1oy1Ev6lmP9NEfRzvG-175" value="RETURN(tipo, CHAR)" style="text;html=1;strokeColor=none;fillColor=none;align=center;verticalAlign=middle;whiteSpace=wrap;rounded=0;" vertex="1" parent="1">
          <mxGeometry x="1085" y="770" width="40" height="20" as="geometry" />
        </mxCell>
        <mxCell id="it1oy1Ev6lmP9NEfRzvG-182" style="edgeStyle=orthogonalEdgeStyle;rounded=0;orthogonalLoop=1;jettySize=auto;html=1;entryX=0;entryY=0.5;entryDx=0;entryDy=0;" edge="1" parent="1" source="it1oy1Ev6lmP9NEfRzvG-180" target="it1oy1Ev6lmP9NEfRzvG-174">
          <mxGeometry relative="1" as="geometry" />
        </mxCell>
        <mxCell id="it1oy1Ev6lmP9NEfRzvG-183" style="edgeStyle=orthogonalEdgeStyle;rounded=0;orthogonalLoop=1;jettySize=auto;html=1;" edge="1" parent="1" source="it1oy1Ev6lmP9NEfRzvG-180" target="it1oy1Ev6lmP9NEfRzvG-34">
          <mxGeometry relative="1" as="geometry">
            <Array as="points">
              <mxPoint x="854" y="720" />
              <mxPoint x="1580" y="720" />
            </Array>
          </mxGeometry>
        </mxCell>
        <mxCell id="it1oy1Ev6lmP9NEfRzvG-180" value="26" style="ellipse;whiteSpace=wrap;html=1;aspect=fixed;" vertex="1" parent="1">
          <mxGeometry x="814" y="740" width="80" height="80" as="geometry" />
        </mxCell>
        <mxCell id="it1oy1Ev6lmP9NEfRzvG-184" value="[a-zA-Z0-9_]" style="text;html=1;align=center;verticalAlign=middle;resizable=0;points=[];autosize=1;strokeColor=none;fillColor=none;" vertex="1" parent="1">
          <mxGeometry x="854" y="720" width="90" height="30" as="geometry" />
        </mxCell>
        <mxCell id="it1oy1Ev6lmP9NEfRzvG-185" value="[^a-zA-Z0-9_]&lt;br&gt;" style="text;html=1;align=center;verticalAlign=middle;resizable=0;points=[];autosize=1;strokeColor=none;fillColor=none;" vertex="1" parent="1">
          <mxGeometry x="885" y="780" width="100" height="30" as="geometry" />
        </mxCell>
        <mxCell id="it1oy1Ev6lmP9NEfRzvG-186" value="[a-qs-zA-Z0-9_]" style="text;html=1;align=center;verticalAlign=middle;resizable=0;points=[];autosize=1;strokeColor=none;fillColor=none;" vertex="1" parent="1">
          <mxGeometry x="710" y="720" width="110" height="30" as="geometry" />
        </mxCell>
        <mxCell id="it1oy1Ev6lmP9NEfRzvG-187" value="[b-zA-Z0-9_]" style="text;html=1;align=center;verticalAlign=middle;resizable=0;points=[];autosize=1;strokeColor=none;fillColor=none;" vertex="1" parent="1">
          <mxGeometry x="560" y="720" width="90" height="30" as="geometry" />
        </mxCell>
        <mxCell id="it1oy1Ev6lmP9NEfRzvG-188" value="[a-gi-zA-Z0-9_]" style="text;html=1;align=center;verticalAlign=middle;resizable=0;points=[];autosize=1;strokeColor=none;fillColor=none;" vertex="1" parent="1">
          <mxGeometry x="415" y="720" width="100" height="30" as="geometry" />
        </mxCell>
        <mxCell id="it1oy1Ev6lmP9NEfRzvG-190" value="f" style="text;html=1;strokeColor=none;fillColor=none;align=center;verticalAlign=middle;whiteSpace=wrap;rounded=0;" vertex="1" parent="1">
          <mxGeometry x="304" y="970" width="40" height="20" as="geometry" />
        </mxCell>
        <mxCell id="it1oy1Ev6lmP9NEfRzvG-191" style="edgeStyle=orthogonalEdgeStyle;rounded=0;orthogonalLoop=1;jettySize=auto;html=1;entryX=0;entryY=0.5;entryDx=0;entryDy=0;" edge="1" parent="1" source="it1oy1Ev6lmP9NEfRzvG-192" target="it1oy1Ev6lmP9NEfRzvG-195">
          <mxGeometry relative="1" as="geometry" />
        </mxCell>
        <mxCell id="it1oy1Ev6lmP9NEfRzvG-209" style="edgeStyle=orthogonalEdgeStyle;rounded=0;orthogonalLoop=1;jettySize=auto;html=1;entryX=0.5;entryY=1;entryDx=0;entryDy=0;" edge="1" parent="1" source="it1oy1Ev6lmP9NEfRzvG-192" target="it1oy1Ev6lmP9NEfRzvG-34">
          <mxGeometry relative="1" as="geometry">
            <Array as="points">
              <mxPoint x="410" y="900" />
              <mxPoint x="1580" y="900" />
            </Array>
          </mxGeometry>
        </mxCell>
        <mxCell id="it1oy1Ev6lmP9NEfRzvG-298" style="edgeStyle=orthogonalEdgeStyle;rounded=0;orthogonalLoop=1;jettySize=auto;html=1;entryX=0.5;entryY=1;entryDx=0;entryDy=0;" edge="1" parent="1" source="it1oy1Ev6lmP9NEfRzvG-192" target="it1oy1Ev6lmP9NEfRzvG-256">
          <mxGeometry relative="1" as="geometry">
            <Array as="points">
              <mxPoint x="410" y="1030" />
              <mxPoint x="1780" y="1030" />
            </Array>
          </mxGeometry>
        </mxCell>
        <mxCell id="it1oy1Ev6lmP9NEfRzvG-192" value="28" style="ellipse;whiteSpace=wrap;html=1;aspect=fixed;" vertex="1" parent="1">
          <mxGeometry x="370" y="920" width="80" height="80" as="geometry" />
        </mxCell>
        <mxCell id="it1oy1Ev6lmP9NEfRzvG-193" value="l" style="text;html=1;strokeColor=none;fillColor=none;align=center;verticalAlign=middle;whiteSpace=wrap;rounded=0;" vertex="1" parent="1">
          <mxGeometry x="461" y="970" width="40" height="20" as="geometry" />
        </mxCell>
        <mxCell id="it1oy1Ev6lmP9NEfRzvG-194" style="edgeStyle=orthogonalEdgeStyle;rounded=0;orthogonalLoop=1;jettySize=auto;html=1;entryX=0;entryY=0.5;entryDx=0;entryDy=0;" edge="1" parent="1" source="it1oy1Ev6lmP9NEfRzvG-195" target="it1oy1Ev6lmP9NEfRzvG-198">
          <mxGeometry relative="1" as="geometry" />
        </mxCell>
        <mxCell id="it1oy1Ev6lmP9NEfRzvG-210" style="edgeStyle=orthogonalEdgeStyle;rounded=0;orthogonalLoop=1;jettySize=auto;html=1;" edge="1" parent="1" source="it1oy1Ev6lmP9NEfRzvG-195">
          <mxGeometry relative="1" as="geometry">
            <mxPoint x="1580" y="680" as="targetPoint" />
            <Array as="points">
              <mxPoint x="560" y="900" />
              <mxPoint x="1580" y="900" />
            </Array>
          </mxGeometry>
        </mxCell>
        <mxCell id="it1oy1Ev6lmP9NEfRzvG-299" style="edgeStyle=orthogonalEdgeStyle;rounded=0;orthogonalLoop=1;jettySize=auto;html=1;" edge="1" parent="1" source="it1oy1Ev6lmP9NEfRzvG-195">
          <mxGeometry relative="1" as="geometry">
            <mxPoint x="1780" y="680" as="targetPoint" />
            <Array as="points">
              <mxPoint x="560" y="1030" />
              <mxPoint x="1781" y="1030" />
              <mxPoint x="1781" y="680" />
            </Array>
          </mxGeometry>
        </mxCell>
        <mxCell id="it1oy1Ev6lmP9NEfRzvG-195" value="29" style="ellipse;whiteSpace=wrap;html=1;aspect=fixed;" vertex="1" parent="1">
          <mxGeometry x="520" y="920" width="80" height="80" as="geometry" />
        </mxCell>
        <mxCell id="it1oy1Ev6lmP9NEfRzvG-196" value="o" style="text;html=1;strokeColor=none;fillColor=none;align=center;verticalAlign=middle;whiteSpace=wrap;rounded=0;" vertex="1" parent="1">
          <mxGeometry x="611" y="970" width="40" height="20" as="geometry" />
        </mxCell>
        <mxCell id="it1oy1Ev6lmP9NEfRzvG-197" style="edgeStyle=orthogonalEdgeStyle;rounded=0;orthogonalLoop=1;jettySize=auto;html=1;entryX=0;entryY=0.5;entryDx=0;entryDy=0;" edge="1" parent="1" source="it1oy1Ev6lmP9NEfRzvG-198" target="it1oy1Ev6lmP9NEfRzvG-201">
          <mxGeometry relative="1" as="geometry" />
        </mxCell>
        <mxCell id="it1oy1Ev6lmP9NEfRzvG-211" style="edgeStyle=orthogonalEdgeStyle;rounded=0;orthogonalLoop=1;jettySize=auto;html=1;" edge="1" parent="1" source="it1oy1Ev6lmP9NEfRzvG-198" target="it1oy1Ev6lmP9NEfRzvG-34">
          <mxGeometry relative="1" as="geometry">
            <Array as="points">
              <mxPoint x="710" y="900" />
              <mxPoint x="1580" y="900" />
            </Array>
          </mxGeometry>
        </mxCell>
        <mxCell id="it1oy1Ev6lmP9NEfRzvG-300" style="edgeStyle=orthogonalEdgeStyle;rounded=0;orthogonalLoop=1;jettySize=auto;html=1;" edge="1" parent="1" source="it1oy1Ev6lmP9NEfRzvG-198">
          <mxGeometry relative="1" as="geometry">
            <mxPoint x="1780" y="680" as="targetPoint" />
            <Array as="points">
              <mxPoint x="710" y="1030" />
              <mxPoint x="1781" y="1030" />
              <mxPoint x="1781" y="680" />
            </Array>
          </mxGeometry>
        </mxCell>
        <mxCell id="it1oy1Ev6lmP9NEfRzvG-198" value="30" style="ellipse;whiteSpace=wrap;html=1;aspect=fixed;" vertex="1" parent="1">
          <mxGeometry x="670" y="920" width="80" height="80" as="geometry" />
        </mxCell>
        <mxCell id="it1oy1Ev6lmP9NEfRzvG-199" value="a" style="text;html=1;strokeColor=none;fillColor=none;align=center;verticalAlign=middle;whiteSpace=wrap;rounded=0;" vertex="1" parent="1">
          <mxGeometry x="761" y="970" width="40" height="20" as="geometry" />
        </mxCell>
        <mxCell id="it1oy1Ev6lmP9NEfRzvG-207" style="edgeStyle=orthogonalEdgeStyle;rounded=0;orthogonalLoop=1;jettySize=auto;html=1;entryX=0;entryY=0.5;entryDx=0;entryDy=0;" edge="1" parent="1" source="it1oy1Ev6lmP9NEfRzvG-201" target="it1oy1Ev6lmP9NEfRzvG-206">
          <mxGeometry relative="1" as="geometry" />
        </mxCell>
        <mxCell id="it1oy1Ev6lmP9NEfRzvG-212" style="edgeStyle=orthogonalEdgeStyle;rounded=0;orthogonalLoop=1;jettySize=auto;html=1;" edge="1" parent="1" source="it1oy1Ev6lmP9NEfRzvG-201" target="it1oy1Ev6lmP9NEfRzvG-34">
          <mxGeometry relative="1" as="geometry">
            <Array as="points">
              <mxPoint x="860" y="900" />
              <mxPoint x="1580" y="900" />
            </Array>
          </mxGeometry>
        </mxCell>
        <mxCell id="it1oy1Ev6lmP9NEfRzvG-301" style="edgeStyle=orthogonalEdgeStyle;rounded=0;orthogonalLoop=1;jettySize=auto;html=1;entryX=0.5;entryY=1;entryDx=0;entryDy=0;" edge="1" parent="1" source="it1oy1Ev6lmP9NEfRzvG-201" target="it1oy1Ev6lmP9NEfRzvG-256">
          <mxGeometry relative="1" as="geometry">
            <Array as="points">
              <mxPoint x="860" y="1030" />
              <mxPoint x="1780" y="1030" />
            </Array>
          </mxGeometry>
        </mxCell>
        <mxCell id="it1oy1Ev6lmP9NEfRzvG-201" value="31" style="ellipse;whiteSpace=wrap;html=1;aspect=fixed;" vertex="1" parent="1">
          <mxGeometry x="820" y="920" width="80" height="80" as="geometry" />
        </mxCell>
        <mxCell id="it1oy1Ev6lmP9NEfRzvG-202" value="t" style="text;html=1;strokeColor=none;fillColor=none;align=center;verticalAlign=middle;whiteSpace=wrap;rounded=0;" vertex="1" parent="1">
          <mxGeometry x="911" y="970" width="40" height="20" as="geometry" />
        </mxCell>
        <mxCell id="it1oy1Ev6lmP9NEfRzvG-203" value="33" style="ellipse;shape=doubleEllipse;whiteSpace=wrap;html=1;aspect=fixed;" vertex="1" parent="1">
          <mxGeometry x="1140" y="920" width="80" height="80" as="geometry" />
        </mxCell>
        <mxCell id="it1oy1Ev6lmP9NEfRzvG-204" value="RETURN(tipo, FLOAT)" style="text;html=1;strokeColor=none;fillColor=none;align=center;verticalAlign=middle;whiteSpace=wrap;rounded=0;" vertex="1" parent="1">
          <mxGeometry x="1250" y="950" width="40" height="20" as="geometry" />
        </mxCell>
        <mxCell id="it1oy1Ev6lmP9NEfRzvG-208" style="edgeStyle=orthogonalEdgeStyle;rounded=0;orthogonalLoop=1;jettySize=auto;html=1;entryX=0;entryY=0.5;entryDx=0;entryDy=0;" edge="1" parent="1" source="it1oy1Ev6lmP9NEfRzvG-206" target="it1oy1Ev6lmP9NEfRzvG-203">
          <mxGeometry relative="1" as="geometry" />
        </mxCell>
        <mxCell id="it1oy1Ev6lmP9NEfRzvG-214" style="edgeStyle=orthogonalEdgeStyle;rounded=0;orthogonalLoop=1;jettySize=auto;html=1;" edge="1" parent="1" source="it1oy1Ev6lmP9NEfRzvG-206" target="it1oy1Ev6lmP9NEfRzvG-34">
          <mxGeometry relative="1" as="geometry">
            <Array as="points">
              <mxPoint x="1020" y="900" />
              <mxPoint x="1580" y="900" />
            </Array>
          </mxGeometry>
        </mxCell>
        <mxCell id="it1oy1Ev6lmP9NEfRzvG-206" value="32" style="ellipse;whiteSpace=wrap;html=1;aspect=fixed;" vertex="1" parent="1">
          <mxGeometry x="980" y="920" width="80" height="80" as="geometry" />
        </mxCell>
        <mxCell id="it1oy1Ev6lmP9NEfRzvG-213" style="edgeStyle=orthogonalEdgeStyle;rounded=0;orthogonalLoop=1;jettySize=auto;html=1;" edge="1" parent="1" source="it1oy1Ev6lmP9NEfRzvG-201" target="it1oy1Ev6lmP9NEfRzvG-34">
          <mxGeometry relative="1" as="geometry">
            <mxPoint x="900" y="900" as="sourcePoint" />
            <mxPoint x="1580" y="680" as="targetPoint" />
            <Array as="points">
              <mxPoint x="860" y="900" />
              <mxPoint x="1580" y="900" />
            </Array>
          </mxGeometry>
        </mxCell>
        <mxCell id="it1oy1Ev6lmP9NEfRzvG-215" value="[a-km-zA-Z0-9_]" style="text;html=1;align=center;verticalAlign=middle;resizable=0;points=[];autosize=1;strokeColor=none;fillColor=none;" vertex="1" parent="1">
          <mxGeometry x="414" y="900" width="110" height="30" as="geometry" />
        </mxCell>
        <mxCell id="it1oy1Ev6lmP9NEfRzvG-216" value="[a-np-zA-Z0-9_]" style="text;html=1;align=center;verticalAlign=middle;resizable=0;points=[];autosize=1;strokeColor=none;fillColor=none;" vertex="1" parent="1">
          <mxGeometry x="564" y="900" width="110" height="30" as="geometry" />
        </mxCell>
        <mxCell id="it1oy1Ev6lmP9NEfRzvG-217" value="[b-zA-Z0-9_]" style="text;html=1;align=center;verticalAlign=middle;resizable=0;points=[];autosize=1;strokeColor=none;fillColor=none;" vertex="1" parent="1">
          <mxGeometry x="725" y="900" width="90" height="30" as="geometry" />
        </mxCell>
        <mxCell id="it1oy1Ev6lmP9NEfRzvG-218" value="[a-su-zA-Z0-9_]" style="text;html=1;align=center;verticalAlign=middle;resizable=0;points=[];autosize=1;strokeColor=none;fillColor=none;" vertex="1" parent="1">
          <mxGeometry x="865" y="900" width="110" height="30" as="geometry" />
        </mxCell>
        <mxCell id="it1oy1Ev6lmP9NEfRzvG-219" value="[^a-zA-Z0-9_]&lt;br&gt;" style="text;html=1;align=center;verticalAlign=middle;resizable=0;points=[];autosize=1;strokeColor=none;fillColor=none;" vertex="1" parent="1">
          <mxGeometry x="1050" y="960" width="100" height="30" as="geometry" />
        </mxCell>
        <mxCell id="it1oy1Ev6lmP9NEfRzvG-220" value="[a-zA-Z0-9_]" style="text;html=1;align=center;verticalAlign=middle;resizable=0;points=[];autosize=1;strokeColor=none;fillColor=none;" vertex="1" parent="1">
          <mxGeometry x="1040" y="910" width="90" height="30" as="geometry" />
        </mxCell>
        <mxCell id="it1oy1Ev6lmP9NEfRzvG-222" value="w" style="text;html=1;strokeColor=none;fillColor=none;align=center;verticalAlign=middle;whiteSpace=wrap;rounded=0;" vertex="1" parent="1">
          <mxGeometry x="299" y="1170" width="40" height="20" as="geometry" />
        </mxCell>
        <mxCell id="it1oy1Ev6lmP9NEfRzvG-223" style="edgeStyle=orthogonalEdgeStyle;rounded=0;orthogonalLoop=1;jettySize=auto;html=1;entryX=0;entryY=0.5;entryDx=0;entryDy=0;" edge="1" parent="1" source="it1oy1Ev6lmP9NEfRzvG-224" target="it1oy1Ev6lmP9NEfRzvG-227">
          <mxGeometry relative="1" as="geometry" />
        </mxCell>
        <mxCell id="it1oy1Ev6lmP9NEfRzvG-241" style="edgeStyle=orthogonalEdgeStyle;rounded=0;orthogonalLoop=1;jettySize=auto;html=1;" edge="1" parent="1" source="it1oy1Ev6lmP9NEfRzvG-224" target="it1oy1Ev6lmP9NEfRzvG-34">
          <mxGeometry relative="1" as="geometry">
            <Array as="points">
              <mxPoint x="400" y="1090" />
              <mxPoint x="1580" y="1090" />
            </Array>
          </mxGeometry>
        </mxCell>
        <mxCell id="it1oy1Ev6lmP9NEfRzvG-306" style="edgeStyle=orthogonalEdgeStyle;rounded=0;orthogonalLoop=1;jettySize=auto;html=1;entryX=0.5;entryY=1;entryDx=0;entryDy=0;" edge="1" parent="1" source="it1oy1Ev6lmP9NEfRzvG-224" target="it1oy1Ev6lmP9NEfRzvG-256">
          <mxGeometry relative="1" as="geometry">
            <Array as="points">
              <mxPoint x="400" y="1230" />
              <mxPoint x="1780" y="1230" />
            </Array>
          </mxGeometry>
        </mxCell>
        <mxCell id="it1oy1Ev6lmP9NEfRzvG-224" value="34" style="ellipse;whiteSpace=wrap;html=1;aspect=fixed;" vertex="1" parent="1">
          <mxGeometry x="360" y="1120" width="80" height="80" as="geometry" />
        </mxCell>
        <mxCell id="it1oy1Ev6lmP9NEfRzvG-225" value="h" style="text;html=1;strokeColor=none;fillColor=none;align=center;verticalAlign=middle;whiteSpace=wrap;rounded=0;" vertex="1" parent="1">
          <mxGeometry x="449" y="1170" width="40" height="20" as="geometry" />
        </mxCell>
        <mxCell id="it1oy1Ev6lmP9NEfRzvG-226" style="edgeStyle=orthogonalEdgeStyle;rounded=0;orthogonalLoop=1;jettySize=auto;html=1;entryX=0;entryY=0.5;entryDx=0;entryDy=0;" edge="1" parent="1" source="it1oy1Ev6lmP9NEfRzvG-227" target="it1oy1Ev6lmP9NEfRzvG-230">
          <mxGeometry relative="1" as="geometry" />
        </mxCell>
        <mxCell id="it1oy1Ev6lmP9NEfRzvG-242" style="edgeStyle=orthogonalEdgeStyle;rounded=0;orthogonalLoop=1;jettySize=auto;html=1;" edge="1" parent="1" source="it1oy1Ev6lmP9NEfRzvG-227" target="it1oy1Ev6lmP9NEfRzvG-34">
          <mxGeometry relative="1" as="geometry">
            <Array as="points">
              <mxPoint x="550" y="1090" />
              <mxPoint x="1580" y="1090" />
            </Array>
          </mxGeometry>
        </mxCell>
        <mxCell id="it1oy1Ev6lmP9NEfRzvG-307" style="edgeStyle=orthogonalEdgeStyle;rounded=0;orthogonalLoop=1;jettySize=auto;html=1;" edge="1" parent="1" source="it1oy1Ev6lmP9NEfRzvG-227">
          <mxGeometry relative="1" as="geometry">
            <mxPoint x="1780" y="690" as="targetPoint" />
            <Array as="points">
              <mxPoint x="550" y="1230" />
              <mxPoint x="1781" y="1230" />
              <mxPoint x="1781" y="690" />
            </Array>
          </mxGeometry>
        </mxCell>
        <mxCell id="it1oy1Ev6lmP9NEfRzvG-227" value="35" style="ellipse;whiteSpace=wrap;html=1;aspect=fixed;" vertex="1" parent="1">
          <mxGeometry x="510" y="1120" width="80" height="80" as="geometry" />
        </mxCell>
        <mxCell id="it1oy1Ev6lmP9NEfRzvG-228" value="i" style="text;html=1;strokeColor=none;fillColor=none;align=center;verticalAlign=middle;whiteSpace=wrap;rounded=0;" vertex="1" parent="1">
          <mxGeometry x="599" y="1170" width="40" height="20" as="geometry" />
        </mxCell>
        <mxCell id="it1oy1Ev6lmP9NEfRzvG-229" style="edgeStyle=orthogonalEdgeStyle;rounded=0;orthogonalLoop=1;jettySize=auto;html=1;entryX=0;entryY=0.5;entryDx=0;entryDy=0;" edge="1" parent="1" source="it1oy1Ev6lmP9NEfRzvG-230" target="it1oy1Ev6lmP9NEfRzvG-233">
          <mxGeometry relative="1" as="geometry" />
        </mxCell>
        <mxCell id="it1oy1Ev6lmP9NEfRzvG-243" style="edgeStyle=orthogonalEdgeStyle;rounded=0;orthogonalLoop=1;jettySize=auto;html=1;exitX=0.5;exitY=0;exitDx=0;exitDy=0;" edge="1" parent="1" source="it1oy1Ev6lmP9NEfRzvG-230">
          <mxGeometry relative="1" as="geometry">
            <mxPoint x="1580" y="680" as="targetPoint" />
            <Array as="points">
              <mxPoint x="700" y="1090" />
              <mxPoint x="1581" y="1090" />
              <mxPoint x="1581" y="680" />
            </Array>
          </mxGeometry>
        </mxCell>
        <mxCell id="it1oy1Ev6lmP9NEfRzvG-308" style="edgeStyle=orthogonalEdgeStyle;rounded=0;orthogonalLoop=1;jettySize=auto;html=1;" edge="1" parent="1" source="it1oy1Ev6lmP9NEfRzvG-230" target="it1oy1Ev6lmP9NEfRzvG-256">
          <mxGeometry relative="1" as="geometry">
            <Array as="points">
              <mxPoint x="700" y="1230" />
              <mxPoint x="1780" y="1230" />
            </Array>
          </mxGeometry>
        </mxCell>
        <mxCell id="it1oy1Ev6lmP9NEfRzvG-230" value="36" style="ellipse;whiteSpace=wrap;html=1;aspect=fixed;" vertex="1" parent="1">
          <mxGeometry x="660" y="1120" width="80" height="80" as="geometry" />
        </mxCell>
        <mxCell id="it1oy1Ev6lmP9NEfRzvG-231" value="l" style="text;html=1;strokeColor=none;fillColor=none;align=center;verticalAlign=middle;whiteSpace=wrap;rounded=0;" vertex="1" parent="1">
          <mxGeometry x="749" y="1170" width="40" height="20" as="geometry" />
        </mxCell>
        <mxCell id="it1oy1Ev6lmP9NEfRzvG-238" style="edgeStyle=orthogonalEdgeStyle;rounded=0;orthogonalLoop=1;jettySize=auto;html=1;" edge="1" parent="1" source="it1oy1Ev6lmP9NEfRzvG-233" target="it1oy1Ev6lmP9NEfRzvG-237">
          <mxGeometry relative="1" as="geometry" />
        </mxCell>
        <mxCell id="it1oy1Ev6lmP9NEfRzvG-244" style="edgeStyle=orthogonalEdgeStyle;rounded=0;orthogonalLoop=1;jettySize=auto;html=1;" edge="1" parent="1" source="it1oy1Ev6lmP9NEfRzvG-233">
          <mxGeometry relative="1" as="geometry">
            <mxPoint x="1580" y="680" as="targetPoint" />
            <Array as="points">
              <mxPoint x="850" y="1090" />
              <mxPoint x="1581" y="1090" />
              <mxPoint x="1581" y="680" />
            </Array>
          </mxGeometry>
        </mxCell>
        <mxCell id="it1oy1Ev6lmP9NEfRzvG-309" style="edgeStyle=orthogonalEdgeStyle;rounded=0;orthogonalLoop=1;jettySize=auto;html=1;" edge="1" parent="1" source="it1oy1Ev6lmP9NEfRzvG-233" target="it1oy1Ev6lmP9NEfRzvG-256">
          <mxGeometry relative="1" as="geometry">
            <Array as="points">
              <mxPoint x="850" y="1230" />
              <mxPoint x="1780" y="1230" />
            </Array>
          </mxGeometry>
        </mxCell>
        <mxCell id="it1oy1Ev6lmP9NEfRzvG-233" value="37" style="ellipse;whiteSpace=wrap;html=1;aspect=fixed;" vertex="1" parent="1">
          <mxGeometry x="810" y="1120" width="80" height="80" as="geometry" />
        </mxCell>
        <mxCell id="it1oy1Ev6lmP9NEfRzvG-234" value="e" style="text;html=1;strokeColor=none;fillColor=none;align=center;verticalAlign=middle;whiteSpace=wrap;rounded=0;" vertex="1" parent="1">
          <mxGeometry x="899" y="1170" width="40" height="20" as="geometry" />
        </mxCell>
        <mxCell id="it1oy1Ev6lmP9NEfRzvG-235" value="39" style="ellipse;shape=doubleEllipse;whiteSpace=wrap;html=1;aspect=fixed;" vertex="1" parent="1">
          <mxGeometry x="1140" y="1120" width="80" height="80" as="geometry" />
        </mxCell>
        <mxCell id="it1oy1Ev6lmP9NEfRzvG-236" value="RETURN(while, NULL)" style="text;html=1;strokeColor=none;fillColor=none;align=center;verticalAlign=middle;whiteSpace=wrap;rounded=0;" vertex="1" parent="1">
          <mxGeometry x="1260" y="1150" width="40" height="20" as="geometry" />
        </mxCell>
        <mxCell id="it1oy1Ev6lmP9NEfRzvG-239" style="edgeStyle=orthogonalEdgeStyle;rounded=0;orthogonalLoop=1;jettySize=auto;html=1;entryX=0;entryY=0.5;entryDx=0;entryDy=0;" edge="1" parent="1" source="it1oy1Ev6lmP9NEfRzvG-237" target="it1oy1Ev6lmP9NEfRzvG-235">
          <mxGeometry relative="1" as="geometry" />
        </mxCell>
        <mxCell id="it1oy1Ev6lmP9NEfRzvG-245" style="edgeStyle=orthogonalEdgeStyle;rounded=0;orthogonalLoop=1;jettySize=auto;html=1;" edge="1" parent="1" source="it1oy1Ev6lmP9NEfRzvG-237">
          <mxGeometry relative="1" as="geometry">
            <mxPoint x="1580" y="680" as="targetPoint" />
            <Array as="points">
              <mxPoint x="1020" y="1090" />
              <mxPoint x="1580" y="1090" />
            </Array>
          </mxGeometry>
        </mxCell>
        <mxCell id="it1oy1Ev6lmP9NEfRzvG-237" value="38" style="ellipse;whiteSpace=wrap;html=1;aspect=fixed;" vertex="1" parent="1">
          <mxGeometry x="980" y="1120" width="80" height="80" as="geometry" />
        </mxCell>
        <mxCell id="it1oy1Ev6lmP9NEfRzvG-240" value="[^a-zA-Z0-9_]&lt;br&gt;" style="text;html=1;align=center;verticalAlign=middle;resizable=0;points=[];autosize=1;strokeColor=none;fillColor=none;" vertex="1" parent="1">
          <mxGeometry x="1050" y="1160" width="100" height="30" as="geometry" />
        </mxCell>
        <mxCell id="it1oy1Ev6lmP9NEfRzvG-246" value="[a-gi-zA-Z0-9_]" style="text;html=1;align=center;verticalAlign=middle;resizable=0;points=[];autosize=1;strokeColor=none;fillColor=none;" vertex="1" parent="1">
          <mxGeometry x="405" y="1090" width="100" height="30" as="geometry" />
        </mxCell>
        <mxCell id="it1oy1Ev6lmP9NEfRzvG-247" value="[a-hj-zA-Z0-9_]" style="text;html=1;align=center;verticalAlign=middle;resizable=0;points=[];autosize=1;strokeColor=none;fillColor=none;" vertex="1" parent="1">
          <mxGeometry x="550" y="1090" width="100" height="30" as="geometry" />
        </mxCell>
        <mxCell id="it1oy1Ev6lmP9NEfRzvG-248" value="[a-km-zA-Z0-9_]" style="text;html=1;align=center;verticalAlign=middle;resizable=0;points=[];autosize=1;strokeColor=none;fillColor=none;" vertex="1" parent="1">
          <mxGeometry x="696" y="1090" width="110" height="30" as="geometry" />
        </mxCell>
        <mxCell id="it1oy1Ev6lmP9NEfRzvG-249" value="[a-df-zA-Z0-9_]" style="text;html=1;align=center;verticalAlign=middle;resizable=0;points=[];autosize=1;strokeColor=none;fillColor=none;" vertex="1" parent="1">
          <mxGeometry x="860" y="1090" width="100" height="30" as="geometry" />
        </mxCell>
        <mxCell id="it1oy1Ev6lmP9NEfRzvG-251" value="[a-zA-Z0-9_]" style="text;html=1;align=center;verticalAlign=middle;resizable=0;points=[];autosize=1;strokeColor=none;fillColor=none;" vertex="1" parent="1">
          <mxGeometry x="1020" y="1090" width="90" height="30" as="geometry" />
        </mxCell>
        <mxCell id="it1oy1Ev6lmP9NEfRzvG-256" value="92" style="ellipse;shape=doubleEllipse;whiteSpace=wrap;html=1;aspect=fixed;" vertex="1" parent="1">
          <mxGeometry x="1740" y="600" width="80" height="80" as="geometry" />
        </mxCell>
        <mxCell id="it1oy1Ev6lmP9NEfRzvG-265" value="[^a-zA-Z0-9]" style="text;html=1;align=center;verticalAlign=middle;resizable=0;points=[];autosize=1;strokeColor=none;fillColor=none;" vertex="1" parent="1">
          <mxGeometry x="515" y="-62" width="90" height="30" as="geometry" />
        </mxCell>
        <mxCell id="it1oy1Ev6lmP9NEfRzvG-266" value="[^a-zA-Z0-9]" style="text;html=1;align=center;verticalAlign=middle;resizable=0;points=[];autosize=1;strokeColor=none;fillColor=none;" vertex="1" parent="1">
          <mxGeometry x="685" y="-62" width="90" height="30" as="geometry" />
        </mxCell>
        <mxCell id="it1oy1Ev6lmP9NEfRzvG-267" value="[^a-zA-Z0-9]" style="text;html=1;align=center;verticalAlign=middle;resizable=0;points=[];autosize=1;strokeColor=none;fillColor=none;" vertex="1" parent="1">
          <mxGeometry x="815" y="-70" width="90" height="30" as="geometry" />
        </mxCell>
        <mxCell id="it1oy1Ev6lmP9NEfRzvG-268" value="[^a-zA-Z0-9]" style="text;html=1;align=center;verticalAlign=middle;resizable=0;points=[];autosize=1;strokeColor=none;fillColor=none;" vertex="1" parent="1">
          <mxGeometry x="980" y="-70" width="90" height="30" as="geometry" />
        </mxCell>
        <mxCell id="it1oy1Ev6lmP9NEfRzvG-269" value="[^a-zA-Z0-9]" style="text;html=1;align=center;verticalAlign=middle;resizable=0;points=[];autosize=1;strokeColor=none;fillColor=none;" vertex="1" parent="1">
          <mxGeometry x="1120" y="-70" width="90" height="30" as="geometry" />
        </mxCell>
        <mxCell id="it1oy1Ev6lmP9NEfRzvG-270" value="[^a-zA-Z0-9]" style="text;html=1;align=center;verticalAlign=middle;resizable=0;points=[];autosize=1;strokeColor=none;fillColor=none;" vertex="1" parent="1">
          <mxGeometry x="1275" y="-70" width="90" height="30" as="geometry" />
        </mxCell>
        <mxCell id="it1oy1Ev6lmP9NEfRzvG-283" value="[^a-zA-Z0-9]" style="text;html=1;align=center;verticalAlign=middle;resizable=0;points=[];autosize=1;strokeColor=none;fillColor=none;" vertex="1" parent="1">
          <mxGeometry x="434" y="270" width="90" height="30" as="geometry" />
        </mxCell>
        <mxCell id="it1oy1Ev6lmP9NEfRzvG-284" value="[^a-zA-Z0-9]" style="text;html=1;align=center;verticalAlign=middle;resizable=0;points=[];autosize=1;strokeColor=none;fillColor=none;" vertex="1" parent="1">
          <mxGeometry x="590" y="270" width="90" height="30" as="geometry" />
        </mxCell>
        <mxCell id="it1oy1Ev6lmP9NEfRzvG-286" value="[^a-zA-Z0-9]" style="text;html=1;align=center;verticalAlign=middle;resizable=0;points=[];autosize=1;strokeColor=none;fillColor=none;" vertex="1" parent="1">
          <mxGeometry x="732" y="270" width="90" height="30" as="geometry" />
        </mxCell>
        <mxCell id="it1oy1Ev6lmP9NEfRzvG-287" value="[^a-zA-Z0-9]" style="text;html=1;align=center;verticalAlign=middle;resizable=0;points=[];autosize=1;strokeColor=none;fillColor=none;" vertex="1" parent="1">
          <mxGeometry x="879" y="270" width="90" height="30" as="geometry" />
        </mxCell>
        <mxCell id="it1oy1Ev6lmP9NEfRzvG-289" value="[^a-zA-Z0-9]" style="text;html=1;align=center;verticalAlign=middle;resizable=0;points=[];autosize=1;strokeColor=none;fillColor=none;" vertex="1" parent="1">
          <mxGeometry x="420" y="440" width="90" height="30" as="geometry" />
        </mxCell>
        <mxCell id="it1oy1Ev6lmP9NEfRzvG-290" value="[^a-zA-Z0-9]" style="text;html=1;align=center;verticalAlign=middle;resizable=0;points=[];autosize=1;strokeColor=none;fillColor=none;" vertex="1" parent="1">
          <mxGeometry x="579" y="440" width="90" height="30" as="geometry" />
        </mxCell>
        <mxCell id="it1oy1Ev6lmP9NEfRzvG-291" value="[^a-zA-Z0-9]" style="text;html=1;align=center;verticalAlign=middle;resizable=0;points=[];autosize=1;strokeColor=none;fillColor=none;" vertex="1" parent="1">
          <mxGeometry x="725" y="440" width="90" height="30" as="geometry" />
        </mxCell>
        <mxCell id="it1oy1Ev6lmP9NEfRzvG-295" value="[^a-zA-Z0-9]" style="text;html=1;align=center;verticalAlign=middle;resizable=0;points=[];autosize=1;strokeColor=none;fillColor=none;" vertex="1" parent="1">
          <mxGeometry x="434" y="850" width="90" height="30" as="geometry" />
        </mxCell>
        <mxCell id="it1oy1Ev6lmP9NEfRzvG-296" value="[^a-zA-Z0-9]" style="text;html=1;align=center;verticalAlign=middle;resizable=0;points=[];autosize=1;strokeColor=none;fillColor=none;" vertex="1" parent="1">
          <mxGeometry x="575" y="850" width="90" height="30" as="geometry" />
        </mxCell>
        <mxCell id="it1oy1Ev6lmP9NEfRzvG-297" value="[^a-zA-Z0-9]" style="text;html=1;align=center;verticalAlign=middle;resizable=0;points=[];autosize=1;strokeColor=none;fillColor=none;" vertex="1" parent="1">
          <mxGeometry x="732" y="850" width="90" height="30" as="geometry" />
        </mxCell>
        <mxCell id="it1oy1Ev6lmP9NEfRzvG-302" value="[^a-zA-Z0-9]" style="text;html=1;align=center;verticalAlign=middle;resizable=0;points=[];autosize=1;strokeColor=none;fillColor=none;" vertex="1" parent="1">
          <mxGeometry x="436" y="1030" width="90" height="30" as="geometry" />
        </mxCell>
        <mxCell id="it1oy1Ev6lmP9NEfRzvG-303" value="[^a-zA-Z0-9]" style="text;html=1;align=center;verticalAlign=middle;resizable=0;points=[];autosize=1;strokeColor=none;fillColor=none;" vertex="1" parent="1">
          <mxGeometry x="590" y="1030" width="90" height="30" as="geometry" />
        </mxCell>
        <mxCell id="it1oy1Ev6lmP9NEfRzvG-304" value="[^a-zA-Z0-9]" style="text;html=1;align=center;verticalAlign=middle;resizable=0;points=[];autosize=1;strokeColor=none;fillColor=none;" vertex="1" parent="1">
          <mxGeometry x="736" y="1030" width="90" height="30" as="geometry" />
        </mxCell>
        <mxCell id="it1oy1Ev6lmP9NEfRzvG-305" value="[^a-zA-Z0-9]" style="text;html=1;align=center;verticalAlign=middle;resizable=0;points=[];autosize=1;strokeColor=none;fillColor=none;" vertex="1" parent="1">
          <mxGeometry x="880" y="1030" width="90" height="30" as="geometry" />
        </mxCell>
        <mxCell id="it1oy1Ev6lmP9NEfRzvG-310" value="[^a-zA-Z0-9]" style="text;html=1;align=center;verticalAlign=middle;resizable=0;points=[];autosize=1;strokeColor=none;fillColor=none;" vertex="1" parent="1">
          <mxGeometry x="436" y="1240" width="90" height="30" as="geometry" />
        </mxCell>
        <mxCell id="it1oy1Ev6lmP9NEfRzvG-311" value="[^a-zA-Z0-9]" style="text;html=1;align=center;verticalAlign=middle;resizable=0;points=[];autosize=1;strokeColor=none;fillColor=none;" vertex="1" parent="1">
          <mxGeometry x="585" y="1240" width="90" height="30" as="geometry" />
        </mxCell>
        <mxCell id="it1oy1Ev6lmP9NEfRzvG-312" value="[^a-zA-Z0-9]" style="text;html=1;align=center;verticalAlign=middle;resizable=0;points=[];autosize=1;strokeColor=none;fillColor=none;" vertex="1" parent="1">
          <mxGeometry x="732" y="1240" width="90" height="30" as="geometry" />
        </mxCell>
        <mxCell id="it1oy1Ev6lmP9NEfRzvG-313" value="[^a-zA-Z0-9]" style="text;html=1;align=center;verticalAlign=middle;resizable=0;points=[];autosize=1;strokeColor=none;fillColor=none;" vertex="1" parent="1">
          <mxGeometry x="904" y="1240" width="90" height="30" as="geometry" />
        </mxCell>
        <mxCell id="it1oy1Ev6lmP9NEfRzvG-315" value="u" style="text;html=1;strokeColor=none;fillColor=none;align=center;verticalAlign=middle;whiteSpace=wrap;rounded=0;" vertex="1" parent="1">
          <mxGeometry x="290" y="1400" width="40" height="20" as="geometry" />
        </mxCell>
        <mxCell id="it1oy1Ev6lmP9NEfRzvG-316" style="edgeStyle=orthogonalEdgeStyle;rounded=0;orthogonalLoop=1;jettySize=auto;html=1;entryX=0;entryY=0.5;entryDx=0;entryDy=0;" edge="1" parent="1" source="it1oy1Ev6lmP9NEfRzvG-317" target="it1oy1Ev6lmP9NEfRzvG-320">
          <mxGeometry relative="1" as="geometry" />
        </mxCell>
        <mxCell id="it1oy1Ev6lmP9NEfRzvG-332" style="edgeStyle=orthogonalEdgeStyle;rounded=0;orthogonalLoop=1;jettySize=auto;html=1;entryX=0.5;entryY=1;entryDx=0;entryDy=0;" edge="1" parent="1" source="it1oy1Ev6lmP9NEfRzvG-317" target="it1oy1Ev6lmP9NEfRzvG-34">
          <mxGeometry relative="1" as="geometry">
            <Array as="points">
              <mxPoint x="390" y="1320" />
              <mxPoint x="1580" y="1320" />
            </Array>
          </mxGeometry>
        </mxCell>
        <mxCell id="it1oy1Ev6lmP9NEfRzvG-344" style="edgeStyle=orthogonalEdgeStyle;rounded=0;orthogonalLoop=1;jettySize=auto;html=1;entryX=0.5;entryY=1;entryDx=0;entryDy=0;" edge="1" parent="1" source="it1oy1Ev6lmP9NEfRzvG-317" target="it1oy1Ev6lmP9NEfRzvG-256">
          <mxGeometry relative="1" as="geometry">
            <Array as="points">
              <mxPoint x="390" y="1460" />
              <mxPoint x="1780" y="1460" />
            </Array>
          </mxGeometry>
        </mxCell>
        <mxCell id="it1oy1Ev6lmP9NEfRzvG-317" value="40" style="ellipse;whiteSpace=wrap;html=1;aspect=fixed;" vertex="1" parent="1">
          <mxGeometry x="350" y="1350" width="80" height="80" as="geometry" />
        </mxCell>
        <mxCell id="it1oy1Ev6lmP9NEfRzvG-318" value="n" style="text;html=1;strokeColor=none;fillColor=none;align=center;verticalAlign=middle;whiteSpace=wrap;rounded=0;" vertex="1" parent="1">
          <mxGeometry x="440" y="1400" width="40" height="20" as="geometry" />
        </mxCell>
        <mxCell id="it1oy1Ev6lmP9NEfRzvG-319" style="edgeStyle=orthogonalEdgeStyle;rounded=0;orthogonalLoop=1;jettySize=auto;html=1;entryX=0;entryY=0.5;entryDx=0;entryDy=0;" edge="1" parent="1" source="it1oy1Ev6lmP9NEfRzvG-320" target="it1oy1Ev6lmP9NEfRzvG-323">
          <mxGeometry relative="1" as="geometry" />
        </mxCell>
        <mxCell id="it1oy1Ev6lmP9NEfRzvG-333" style="edgeStyle=orthogonalEdgeStyle;rounded=0;orthogonalLoop=1;jettySize=auto;html=1;" edge="1" parent="1" source="it1oy1Ev6lmP9NEfRzvG-320">
          <mxGeometry relative="1" as="geometry">
            <mxPoint x="1580" y="680" as="targetPoint" />
            <Array as="points">
              <mxPoint x="540" y="1320" />
              <mxPoint x="1581" y="1320" />
              <mxPoint x="1581" y="680" />
            </Array>
          </mxGeometry>
        </mxCell>
        <mxCell id="it1oy1Ev6lmP9NEfRzvG-345" style="edgeStyle=orthogonalEdgeStyle;rounded=0;orthogonalLoop=1;jettySize=auto;html=1;" edge="1" parent="1" source="it1oy1Ev6lmP9NEfRzvG-320">
          <mxGeometry relative="1" as="geometry">
            <mxPoint x="1780" y="680.8695652173913" as="targetPoint" />
            <Array as="points">
              <mxPoint x="540" y="1460" />
              <mxPoint x="1781" y="1460" />
              <mxPoint x="1781" y="681" />
            </Array>
          </mxGeometry>
        </mxCell>
        <mxCell id="it1oy1Ev6lmP9NEfRzvG-320" value="41" style="ellipse;whiteSpace=wrap;html=1;aspect=fixed;" vertex="1" parent="1">
          <mxGeometry x="500" y="1350" width="80" height="80" as="geometry" />
        </mxCell>
        <mxCell id="it1oy1Ev6lmP9NEfRzvG-321" value="t" style="text;html=1;strokeColor=none;fillColor=none;align=center;verticalAlign=middle;whiteSpace=wrap;rounded=0;" vertex="1" parent="1">
          <mxGeometry x="590" y="1400" width="40" height="20" as="geometry" />
        </mxCell>
        <mxCell id="it1oy1Ev6lmP9NEfRzvG-322" style="edgeStyle=orthogonalEdgeStyle;rounded=0;orthogonalLoop=1;jettySize=auto;html=1;entryX=0;entryY=0.5;entryDx=0;entryDy=0;" edge="1" parent="1" source="it1oy1Ev6lmP9NEfRzvG-323" target="it1oy1Ev6lmP9NEfRzvG-326">
          <mxGeometry relative="1" as="geometry" />
        </mxCell>
        <mxCell id="it1oy1Ev6lmP9NEfRzvG-334" style="edgeStyle=orthogonalEdgeStyle;rounded=0;orthogonalLoop=1;jettySize=auto;html=1;" edge="1" parent="1" source="it1oy1Ev6lmP9NEfRzvG-323">
          <mxGeometry relative="1" as="geometry">
            <mxPoint x="1580" y="680" as="targetPoint" />
            <Array as="points">
              <mxPoint x="690" y="1320" />
              <mxPoint x="1581" y="1320" />
              <mxPoint x="1581" y="680" />
            </Array>
          </mxGeometry>
        </mxCell>
        <mxCell id="it1oy1Ev6lmP9NEfRzvG-346" style="edgeStyle=orthogonalEdgeStyle;rounded=0;orthogonalLoop=1;jettySize=auto;html=1;" edge="1" parent="1" source="it1oy1Ev6lmP9NEfRzvG-323" target="it1oy1Ev6lmP9NEfRzvG-256">
          <mxGeometry relative="1" as="geometry">
            <Array as="points">
              <mxPoint x="690" y="1460" />
              <mxPoint x="1780" y="1460" />
            </Array>
          </mxGeometry>
        </mxCell>
        <mxCell id="it1oy1Ev6lmP9NEfRzvG-323" value="42" style="ellipse;whiteSpace=wrap;html=1;aspect=fixed;" vertex="1" parent="1">
          <mxGeometry x="650" y="1350" width="80" height="80" as="geometry" />
        </mxCell>
        <mxCell id="it1oy1Ev6lmP9NEfRzvG-324" value="i" style="text;html=1;strokeColor=none;fillColor=none;align=center;verticalAlign=middle;whiteSpace=wrap;rounded=0;" vertex="1" parent="1">
          <mxGeometry x="740" y="1400" width="40" height="20" as="geometry" />
        </mxCell>
        <mxCell id="it1oy1Ev6lmP9NEfRzvG-335" style="edgeStyle=orthogonalEdgeStyle;rounded=0;orthogonalLoop=1;jettySize=auto;html=1;" edge="1" parent="1" source="it1oy1Ev6lmP9NEfRzvG-326">
          <mxGeometry relative="1" as="geometry">
            <mxPoint x="1580" y="680" as="targetPoint" />
            <Array as="points">
              <mxPoint x="840" y="1320" />
              <mxPoint x="1581" y="1320" />
              <mxPoint x="1581" y="680" />
            </Array>
          </mxGeometry>
        </mxCell>
        <mxCell id="it1oy1Ev6lmP9NEfRzvG-341" style="edgeStyle=orthogonalEdgeStyle;rounded=0;orthogonalLoop=1;jettySize=auto;html=1;entryX=0;entryY=0.5;entryDx=0;entryDy=0;" edge="1" parent="1" source="it1oy1Ev6lmP9NEfRzvG-326" target="it1oy1Ev6lmP9NEfRzvG-339">
          <mxGeometry relative="1" as="geometry" />
        </mxCell>
        <mxCell id="it1oy1Ev6lmP9NEfRzvG-347" style="edgeStyle=orthogonalEdgeStyle;rounded=0;orthogonalLoop=1;jettySize=auto;html=1;" edge="1" parent="1" source="it1oy1Ev6lmP9NEfRzvG-326">
          <mxGeometry relative="1" as="geometry">
            <mxPoint x="1780" y="690" as="targetPoint" />
            <Array as="points">
              <mxPoint x="840" y="1460" />
              <mxPoint x="1780" y="1460" />
            </Array>
          </mxGeometry>
        </mxCell>
        <mxCell id="it1oy1Ev6lmP9NEfRzvG-326" value="43" style="ellipse;whiteSpace=wrap;html=1;aspect=fixed;" vertex="1" parent="1">
          <mxGeometry x="800" y="1350" width="80" height="80" as="geometry" />
        </mxCell>
        <mxCell id="it1oy1Ev6lmP9NEfRzvG-327" value="l" style="text;html=1;strokeColor=none;fillColor=none;align=center;verticalAlign=middle;whiteSpace=wrap;rounded=0;" vertex="1" parent="1">
          <mxGeometry x="890" y="1400" width="40" height="20" as="geometry" />
        </mxCell>
        <mxCell id="it1oy1Ev6lmP9NEfRzvG-328" value="45" style="ellipse;shape=doubleEllipse;whiteSpace=wrap;html=1;aspect=fixed;" vertex="1" parent="1">
          <mxGeometry x="1140" y="1350" width="80" height="80" as="geometry" />
        </mxCell>
        <mxCell id="it1oy1Ev6lmP9NEfRzvG-329" value="RETURN(until, NULL)" style="text;html=1;strokeColor=none;fillColor=none;align=center;verticalAlign=middle;whiteSpace=wrap;rounded=0;" vertex="1" parent="1">
          <mxGeometry x="1260" y="1380" width="40" height="20" as="geometry" />
        </mxCell>
        <mxCell id="it1oy1Ev6lmP9NEfRzvG-342" style="edgeStyle=orthogonalEdgeStyle;rounded=0;orthogonalLoop=1;jettySize=auto;html=1;" edge="1" parent="1" source="it1oy1Ev6lmP9NEfRzvG-339" target="it1oy1Ev6lmP9NEfRzvG-328">
          <mxGeometry relative="1" as="geometry" />
        </mxCell>
        <mxCell id="it1oy1Ev6lmP9NEfRzvG-426" style="edgeStyle=orthogonalEdgeStyle;rounded=0;orthogonalLoop=1;jettySize=auto;html=1;entryX=0.5;entryY=1;entryDx=0;entryDy=0;" edge="1" parent="1" source="it1oy1Ev6lmP9NEfRzvG-339" target="it1oy1Ev6lmP9NEfRzvG-34">
          <mxGeometry relative="1" as="geometry">
            <Array as="points">
              <mxPoint x="1020" y="1320" />
              <mxPoint x="1580" y="1320" />
            </Array>
          </mxGeometry>
        </mxCell>
        <mxCell id="it1oy1Ev6lmP9NEfRzvG-339" value="44" style="ellipse;whiteSpace=wrap;html=1;aspect=fixed;" vertex="1" parent="1">
          <mxGeometry x="980" y="1350" width="80" height="80" as="geometry" />
        </mxCell>
        <mxCell id="it1oy1Ev6lmP9NEfRzvG-343" value="[^a-zA-Z0-9_]&lt;br&gt;" style="text;html=1;align=center;verticalAlign=middle;resizable=0;points=[];autosize=1;strokeColor=none;fillColor=none;" vertex="1" parent="1">
          <mxGeometry x="1050" y="1395" width="100" height="30" as="geometry" />
        </mxCell>
        <mxCell id="it1oy1Ev6lmP9NEfRzvG-348" value="[a-mo-zA-Z0-9_]" style="text;html=1;align=center;verticalAlign=middle;resizable=0;points=[];autosize=1;strokeColor=none;fillColor=none;" vertex="1" parent="1">
          <mxGeometry x="389" y="1320" width="110" height="30" as="geometry" />
        </mxCell>
        <mxCell id="it1oy1Ev6lmP9NEfRzvG-349" value="[a-su-zA-Z0-9_]" style="text;html=1;align=center;verticalAlign=middle;resizable=0;points=[];autosize=1;strokeColor=none;fillColor=none;" vertex="1" parent="1">
          <mxGeometry x="534" y="1320" width="110" height="30" as="geometry" />
        </mxCell>
        <mxCell id="it1oy1Ev6lmP9NEfRzvG-350" value="[a-hj-zA-Z0-9_]" style="text;html=1;align=center;verticalAlign=middle;resizable=0;points=[];autosize=1;strokeColor=none;fillColor=none;" vertex="1" parent="1">
          <mxGeometry x="690" y="1320" width="100" height="30" as="geometry" />
        </mxCell>
        <mxCell id="it1oy1Ev6lmP9NEfRzvG-351" value="[a-km-zA-Z0-9_]" style="text;html=1;align=center;verticalAlign=middle;resizable=0;points=[];autosize=1;strokeColor=none;fillColor=none;" vertex="1" parent="1">
          <mxGeometry x="834" y="1320" width="110" height="30" as="geometry" />
        </mxCell>
        <mxCell id="it1oy1Ev6lmP9NEfRzvG-352" value="[^a-zA-Z0-9]" style="text;html=1;align=center;verticalAlign=middle;resizable=0;points=[];autosize=1;strokeColor=none;fillColor=none;" vertex="1" parent="1">
          <mxGeometry x="420" y="1460" width="90" height="30" as="geometry" />
        </mxCell>
        <mxCell id="it1oy1Ev6lmP9NEfRzvG-353" value="[^a-zA-Z0-9]" style="text;html=1;align=center;verticalAlign=middle;resizable=0;points=[];autosize=1;strokeColor=none;fillColor=none;" vertex="1" parent="1">
          <mxGeometry x="574" y="1460" width="90" height="30" as="geometry" />
        </mxCell>
        <mxCell id="it1oy1Ev6lmP9NEfRzvG-354" value="[^a-zA-Z0-9]" style="text;html=1;align=center;verticalAlign=middle;resizable=0;points=[];autosize=1;strokeColor=none;fillColor=none;" vertex="1" parent="1">
          <mxGeometry x="725" y="1460" width="90" height="30" as="geometry" />
        </mxCell>
        <mxCell id="it1oy1Ev6lmP9NEfRzvG-355" value="[^a-zA-Z0-9]" style="text;html=1;align=center;verticalAlign=middle;resizable=0;points=[];autosize=1;strokeColor=none;fillColor=none;" vertex="1" parent="1">
          <mxGeometry x="905" y="1460" width="90" height="30" as="geometry" />
        </mxCell>
        <mxCell id="it1oy1Ev6lmP9NEfRzvG-357" value="," style="text;html=1;strokeColor=none;fillColor=none;align=center;verticalAlign=middle;whiteSpace=wrap;rounded=0;" vertex="1" parent="1">
          <mxGeometry x="290" y="1530" width="40" height="20" as="geometry" />
        </mxCell>
        <mxCell id="it1oy1Ev6lmP9NEfRzvG-358" value="46" style="ellipse;shape=doubleEllipse;whiteSpace=wrap;html=1;aspect=fixed;" vertex="1" parent="1">
          <mxGeometry x="350" y="1530" width="80" height="80" as="geometry" />
        </mxCell>
        <mxCell id="it1oy1Ev6lmP9NEfRzvG-359" value="RETURN(,, NULL)" style="text;html=1;strokeColor=none;fillColor=none;align=center;verticalAlign=middle;whiteSpace=wrap;rounded=0;" vertex="1" parent="1">
          <mxGeometry x="470" y="1560" width="40" height="20" as="geometry" />
        </mxCell>
        <mxCell id="it1oy1Ev6lmP9NEfRzvG-361" value=":" style="text;html=1;strokeColor=none;fillColor=none;align=center;verticalAlign=middle;whiteSpace=wrap;rounded=0;" vertex="1" parent="1">
          <mxGeometry x="290" y="1650" width="40" height="20" as="geometry" />
        </mxCell>
        <mxCell id="it1oy1Ev6lmP9NEfRzvG-363" value="RETURN(:, NULL)" style="text;html=1;strokeColor=none;fillColor=none;align=center;verticalAlign=middle;whiteSpace=wrap;rounded=0;" vertex="1" parent="1">
          <mxGeometry x="630" y="1680" width="40" height="20" as="geometry" />
        </mxCell>
        <mxCell id="it1oy1Ev6lmP9NEfRzvG-367" style="edgeStyle=orthogonalEdgeStyle;rounded=0;orthogonalLoop=1;jettySize=auto;html=1;entryX=0;entryY=0.5;entryDx=0;entryDy=0;" edge="1" parent="1" source="it1oy1Ev6lmP9NEfRzvG-364" target="it1oy1Ev6lmP9NEfRzvG-366">
          <mxGeometry relative="1" as="geometry" />
        </mxCell>
        <mxCell id="it1oy1Ev6lmP9NEfRzvG-364" value="47" style="ellipse;whiteSpace=wrap;html=1;aspect=fixed;" vertex="1" parent="1">
          <mxGeometry x="350" y="1650" width="80" height="80" as="geometry" />
        </mxCell>
        <mxCell id="it1oy1Ev6lmP9NEfRzvG-366" value="48" style="ellipse;shape=doubleEllipse;whiteSpace=wrap;html=1;aspect=fixed;" vertex="1" parent="1">
          <mxGeometry x="515" y="1650" width="80" height="80" as="geometry" />
        </mxCell>
        <mxCell id="it1oy1Ev6lmP9NEfRzvG-368" value="[^=]" style="text;html=1;align=center;verticalAlign=middle;resizable=0;points=[];autosize=1;strokeColor=none;fillColor=none;" vertex="1" parent="1">
          <mxGeometry x="454" y="1660" width="40" height="30" as="geometry" />
        </mxCell>
        <mxCell id="it1oy1Ev6lmP9NEfRzvG-370" value="49" style="ellipse;shape=doubleEllipse;whiteSpace=wrap;html=1;aspect=fixed;" vertex="1" parent="1">
          <mxGeometry x="514" y="1770" width="80" height="80" as="geometry" />
        </mxCell>
        <mxCell id="it1oy1Ev6lmP9NEfRzvG-371" style="edgeStyle=orthogonalEdgeStyle;rounded=0;orthogonalLoop=1;jettySize=auto;html=1;entryX=0.013;entryY=0.572;entryDx=0;entryDy=0;entryPerimeter=0;" edge="1" parent="1" source="it1oy1Ev6lmP9NEfRzvG-364" target="it1oy1Ev6lmP9NEfRzvG-370">
          <mxGeometry relative="1" as="geometry">
            <Array as="points">
              <mxPoint x="390" y="1816" />
            </Array>
          </mxGeometry>
        </mxCell>
        <mxCell id="it1oy1Ev6lmP9NEfRzvG-372" value="=" style="text;html=1;align=center;verticalAlign=middle;resizable=0;points=[];autosize=1;strokeColor=none;fillColor=none;" vertex="1" parent="1">
          <mxGeometry x="436" y="1790" width="30" height="30" as="geometry" />
        </mxCell>
        <mxCell id="it1oy1Ev6lmP9NEfRzvG-373" value="+" style="text;html=1;strokeColor=none;fillColor=none;align=center;verticalAlign=middle;whiteSpace=wrap;rounded=0;" vertex="1" parent="1">
          <mxGeometry x="290" y="1860" width="40" height="20" as="geometry" />
        </mxCell>
        <mxCell id="it1oy1Ev6lmP9NEfRzvG-374" value="50" style="ellipse;shape=doubleEllipse;whiteSpace=wrap;html=1;aspect=fixed;" vertex="1" parent="1">
          <mxGeometry x="350" y="1860" width="80" height="80" as="geometry" />
        </mxCell>
        <mxCell id="it1oy1Ev6lmP9NEfRzvG-375" value="-" style="text;html=1;strokeColor=none;fillColor=none;align=center;verticalAlign=middle;whiteSpace=wrap;rounded=0;" vertex="1" parent="1">
          <mxGeometry x="290" y="1960" width="40" height="20" as="geometry" />
        </mxCell>
        <mxCell id="it1oy1Ev6lmP9NEfRzvG-376" value="51" style="ellipse;shape=doubleEllipse;whiteSpace=wrap;html=1;aspect=fixed;" vertex="1" parent="1">
          <mxGeometry x="350" y="1960" width="80" height="80" as="geometry" />
        </mxCell>
        <mxCell id="it1oy1Ev6lmP9NEfRzvG-377" style="edgeStyle=orthogonalEdgeStyle;rounded=0;orthogonalLoop=1;jettySize=auto;html=1;entryX=-0.028;entryY=0.568;entryDx=0;entryDy=0;entryPerimeter=0;" edge="1" parent="1" source="it1oy1Ev6lmP9NEfRzvG-1" target="it1oy1Ev6lmP9NEfRzvG-374">
          <mxGeometry relative="1" as="geometry">
            <Array as="points">
              <mxPoint x="250" y="1905" />
            </Array>
          </mxGeometry>
        </mxCell>
        <mxCell id="it1oy1Ev6lmP9NEfRzvG-379" value=";" style="text;html=1;strokeColor=none;fillColor=none;align=center;verticalAlign=middle;whiteSpace=wrap;rounded=0;" vertex="1" parent="1">
          <mxGeometry x="290" y="2080" width="40" height="20" as="geometry" />
        </mxCell>
        <mxCell id="it1oy1Ev6lmP9NEfRzvG-380" value="52" style="ellipse;shape=doubleEllipse;whiteSpace=wrap;html=1;aspect=fixed;" vertex="1" parent="1">
          <mxGeometry x="350" y="2080" width="80" height="80" as="geometry" />
        </mxCell>
        <mxCell id="it1oy1Ev6lmP9NEfRzvG-383" value="e" style="text;html=1;strokeColor=none;fillColor=none;align=center;verticalAlign=middle;whiteSpace=wrap;rounded=0;" vertex="1" parent="1">
          <mxGeometry x="294" y="2270" width="40" height="20" as="geometry" />
        </mxCell>
        <mxCell id="it1oy1Ev6lmP9NEfRzvG-384" style="edgeStyle=orthogonalEdgeStyle;rounded=0;orthogonalLoop=1;jettySize=auto;html=1;entryX=0;entryY=0.5;entryDx=0;entryDy=0;" edge="1" parent="1" source="it1oy1Ev6lmP9NEfRzvG-385" target="it1oy1Ev6lmP9NEfRzvG-388">
          <mxGeometry relative="1" as="geometry" />
        </mxCell>
        <mxCell id="it1oy1Ev6lmP9NEfRzvG-402" style="edgeStyle=orthogonalEdgeStyle;rounded=0;orthogonalLoop=1;jettySize=auto;html=1;entryX=0;entryY=0.5;entryDx=0;entryDy=0;" edge="1" parent="1" source="it1oy1Ev6lmP9NEfRzvG-385" target="it1oy1Ev6lmP9NEfRzvG-396">
          <mxGeometry relative="1" as="geometry">
            <Array as="points">
              <mxPoint x="394" y="2520" />
            </Array>
          </mxGeometry>
        </mxCell>
        <mxCell id="it1oy1Ev6lmP9NEfRzvG-405" style="edgeStyle=orthogonalEdgeStyle;rounded=0;orthogonalLoop=1;jettySize=auto;html=1;" edge="1" parent="1" source="it1oy1Ev6lmP9NEfRzvG-385" target="it1oy1Ev6lmP9NEfRzvG-34">
          <mxGeometry relative="1" as="geometry">
            <Array as="points">
              <mxPoint x="394" y="2190" />
              <mxPoint x="1580" y="2190" />
            </Array>
          </mxGeometry>
        </mxCell>
        <mxCell id="it1oy1Ev6lmP9NEfRzvG-409" style="edgeStyle=orthogonalEdgeStyle;rounded=0;orthogonalLoop=1;jettySize=auto;html=1;entryX=0.5;entryY=1;entryDx=0;entryDy=0;" edge="1" parent="1" source="it1oy1Ev6lmP9NEfRzvG-385" target="it1oy1Ev6lmP9NEfRzvG-256">
          <mxGeometry relative="1" as="geometry">
            <Array as="points">
              <mxPoint x="394" y="2340" />
              <mxPoint x="1780" y="2340" />
            </Array>
          </mxGeometry>
        </mxCell>
        <mxCell id="it1oy1Ev6lmP9NEfRzvG-385" value="53" style="ellipse;whiteSpace=wrap;html=1;aspect=fixed;" vertex="1" parent="1">
          <mxGeometry x="354" y="2220" width="80" height="80" as="geometry" />
        </mxCell>
        <mxCell id="it1oy1Ev6lmP9NEfRzvG-386" value="l" style="text;html=1;strokeColor=none;fillColor=none;align=center;verticalAlign=middle;whiteSpace=wrap;rounded=0;" vertex="1" parent="1">
          <mxGeometry x="444" y="2270" width="40" height="20" as="geometry" />
        </mxCell>
        <mxCell id="it1oy1Ev6lmP9NEfRzvG-387" style="edgeStyle=orthogonalEdgeStyle;rounded=0;orthogonalLoop=1;jettySize=auto;html=1;entryX=0;entryY=0.5;entryDx=0;entryDy=0;" edge="1" parent="1" source="it1oy1Ev6lmP9NEfRzvG-388" target="it1oy1Ev6lmP9NEfRzvG-391">
          <mxGeometry relative="1" as="geometry" />
        </mxCell>
        <mxCell id="it1oy1Ev6lmP9NEfRzvG-406" style="edgeStyle=orthogonalEdgeStyle;rounded=0;orthogonalLoop=1;jettySize=auto;html=1;" edge="1" parent="1" source="it1oy1Ev6lmP9NEfRzvG-388">
          <mxGeometry relative="1" as="geometry">
            <mxPoint x="1580" y="690" as="targetPoint" />
            <Array as="points">
              <mxPoint x="544" y="2190" />
              <mxPoint x="1581" y="2190" />
              <mxPoint x="1581" y="690" />
            </Array>
          </mxGeometry>
        </mxCell>
        <mxCell id="it1oy1Ev6lmP9NEfRzvG-410" style="edgeStyle=orthogonalEdgeStyle;rounded=0;orthogonalLoop=1;jettySize=auto;html=1;" edge="1" parent="1" source="it1oy1Ev6lmP9NEfRzvG-388">
          <mxGeometry relative="1" as="geometry">
            <mxPoint x="1780" y="670" as="targetPoint" />
            <Array as="points">
              <mxPoint x="544" y="2340" />
              <mxPoint x="1781" y="2340" />
              <mxPoint x="1781" y="670" />
            </Array>
          </mxGeometry>
        </mxCell>
        <mxCell id="it1oy1Ev6lmP9NEfRzvG-388" value="54" style="ellipse;whiteSpace=wrap;html=1;aspect=fixed;" vertex="1" parent="1">
          <mxGeometry x="504" y="2220" width="80" height="80" as="geometry" />
        </mxCell>
        <mxCell id="it1oy1Ev6lmP9NEfRzvG-389" value="s" style="text;html=1;strokeColor=none;fillColor=none;align=center;verticalAlign=middle;whiteSpace=wrap;rounded=0;" vertex="1" parent="1">
          <mxGeometry x="594" y="2270" width="40" height="20" as="geometry" />
        </mxCell>
        <mxCell id="it1oy1Ev6lmP9NEfRzvG-400" style="edgeStyle=orthogonalEdgeStyle;rounded=0;orthogonalLoop=1;jettySize=auto;html=1;entryX=0;entryY=0.5;entryDx=0;entryDy=0;" edge="1" parent="1" source="it1oy1Ev6lmP9NEfRzvG-391" target="it1oy1Ev6lmP9NEfRzvG-398">
          <mxGeometry relative="1" as="geometry" />
        </mxCell>
        <mxCell id="it1oy1Ev6lmP9NEfRzvG-407" style="edgeStyle=orthogonalEdgeStyle;rounded=0;orthogonalLoop=1;jettySize=auto;html=1;entryX=0.5;entryY=1;entryDx=0;entryDy=0;" edge="1" parent="1" source="it1oy1Ev6lmP9NEfRzvG-391" target="it1oy1Ev6lmP9NEfRzvG-34">
          <mxGeometry relative="1" as="geometry">
            <Array as="points">
              <mxPoint x="694" y="2190" />
              <mxPoint x="1580" y="2190" />
            </Array>
          </mxGeometry>
        </mxCell>
        <mxCell id="it1oy1Ev6lmP9NEfRzvG-411" style="edgeStyle=orthogonalEdgeStyle;rounded=0;orthogonalLoop=1;jettySize=auto;html=1;" edge="1" parent="1" source="it1oy1Ev6lmP9NEfRzvG-391">
          <mxGeometry relative="1" as="geometry">
            <mxPoint x="1780" y="680" as="targetPoint" />
            <Array as="points">
              <mxPoint x="694" y="2340" />
              <mxPoint x="1781" y="2340" />
              <mxPoint x="1781" y="680" />
            </Array>
          </mxGeometry>
        </mxCell>
        <mxCell id="it1oy1Ev6lmP9NEfRzvG-391" value="55" style="ellipse;whiteSpace=wrap;html=1;aspect=fixed;" vertex="1" parent="1">
          <mxGeometry x="654" y="2220" width="80" height="80" as="geometry" />
        </mxCell>
        <mxCell id="it1oy1Ev6lmP9NEfRzvG-392" value="e" style="text;html=1;strokeColor=none;fillColor=none;align=center;verticalAlign=middle;whiteSpace=wrap;rounded=0;" vertex="1" parent="1">
          <mxGeometry x="744" y="2270" width="40" height="20" as="geometry" />
        </mxCell>
        <mxCell id="it1oy1Ev6lmP9NEfRzvG-393" value="57" style="ellipse;shape=doubleEllipse;whiteSpace=wrap;html=1;aspect=fixed;" vertex="1" parent="1">
          <mxGeometry x="975" y="2220" width="80" height="80" as="geometry" />
        </mxCell>
        <mxCell id="it1oy1Ev6lmP9NEfRzvG-394" value="RETURN(else, NULL)" style="text;html=1;strokeColor=none;fillColor=none;align=center;verticalAlign=middle;whiteSpace=wrap;rounded=0;" vertex="1" parent="1">
          <mxGeometry x="1095" y="2250" width="40" height="20" as="geometry" />
        </mxCell>
        <mxCell id="it1oy1Ev6lmP9NEfRzvG-403" style="edgeStyle=orthogonalEdgeStyle;rounded=0;orthogonalLoop=1;jettySize=auto;html=1;entryX=0;entryY=0.5;entryDx=0;entryDy=0;" edge="1" parent="1" source="it1oy1Ev6lmP9NEfRzvG-396" target="it1oy1Ev6lmP9NEfRzvG-397">
          <mxGeometry relative="1" as="geometry" />
        </mxCell>
        <mxCell id="it1oy1Ev6lmP9NEfRzvG-421" style="edgeStyle=orthogonalEdgeStyle;rounded=0;orthogonalLoop=1;jettySize=auto;html=1;" edge="1" parent="1" source="it1oy1Ev6lmP9NEfRzvG-396" target="it1oy1Ev6lmP9NEfRzvG-256">
          <mxGeometry relative="1" as="geometry">
            <Array as="points">
              <mxPoint x="539" y="2620" />
              <mxPoint x="1780" y="2620" />
            </Array>
          </mxGeometry>
        </mxCell>
        <mxCell id="it1oy1Ev6lmP9NEfRzvG-473" style="edgeStyle=orthogonalEdgeStyle;rounded=0;orthogonalLoop=1;jettySize=auto;html=1;" edge="1" parent="1" source="it1oy1Ev6lmP9NEfRzvG-396" target="it1oy1Ev6lmP9NEfRzvG-34">
          <mxGeometry relative="1" as="geometry">
            <Array as="points">
              <mxPoint x="539" y="2430" />
              <mxPoint x="1580" y="2430" />
            </Array>
          </mxGeometry>
        </mxCell>
        <mxCell id="it1oy1Ev6lmP9NEfRzvG-396" value="58" style="ellipse;whiteSpace=wrap;html=1;aspect=fixed;" vertex="1" parent="1">
          <mxGeometry x="499" y="2480" width="80" height="80" as="geometry" />
        </mxCell>
        <mxCell id="it1oy1Ev6lmP9NEfRzvG-420" style="edgeStyle=orthogonalEdgeStyle;rounded=0;orthogonalLoop=1;jettySize=auto;html=1;entryX=0;entryY=0.5;entryDx=0;entryDy=0;" edge="1" parent="1" source="it1oy1Ev6lmP9NEfRzvG-397" target="it1oy1Ev6lmP9NEfRzvG-419">
          <mxGeometry relative="1" as="geometry" />
        </mxCell>
        <mxCell id="it1oy1Ev6lmP9NEfRzvG-422" style="edgeStyle=orthogonalEdgeStyle;rounded=0;orthogonalLoop=1;jettySize=auto;html=1;" edge="1" parent="1" source="it1oy1Ev6lmP9NEfRzvG-397">
          <mxGeometry relative="1" as="geometry">
            <mxPoint x="1580" y="680" as="targetPoint" />
            <Array as="points">
              <mxPoint x="688" y="2430" />
              <mxPoint x="1580" y="2430" />
            </Array>
          </mxGeometry>
        </mxCell>
        <mxCell id="it1oy1Ev6lmP9NEfRzvG-397" value="59" style="ellipse;whiteSpace=wrap;html=1;aspect=fixed;" vertex="1" parent="1">
          <mxGeometry x="648" y="2480" width="80" height="80" as="geometry" />
        </mxCell>
        <mxCell id="it1oy1Ev6lmP9NEfRzvG-401" style="edgeStyle=orthogonalEdgeStyle;rounded=0;orthogonalLoop=1;jettySize=auto;html=1;entryX=0;entryY=0.5;entryDx=0;entryDy=0;" edge="1" parent="1" source="it1oy1Ev6lmP9NEfRzvG-398" target="it1oy1Ev6lmP9NEfRzvG-393">
          <mxGeometry relative="1" as="geometry" />
        </mxCell>
        <mxCell id="it1oy1Ev6lmP9NEfRzvG-408" style="edgeStyle=orthogonalEdgeStyle;rounded=0;orthogonalLoop=1;jettySize=auto;html=1;" edge="1" parent="1" source="it1oy1Ev6lmP9NEfRzvG-398">
          <mxGeometry relative="1" as="geometry">
            <mxPoint x="1580" y="680" as="targetPoint" />
            <Array as="points">
              <mxPoint x="846" y="2190" />
              <mxPoint x="1581" y="2190" />
              <mxPoint x="1581" y="680" />
            </Array>
          </mxGeometry>
        </mxCell>
        <mxCell id="it1oy1Ev6lmP9NEfRzvG-398" value="56" style="ellipse;whiteSpace=wrap;html=1;aspect=fixed;" vertex="1" parent="1">
          <mxGeometry x="806" y="2220" width="80" height="80" as="geometry" />
        </mxCell>
        <mxCell id="it1oy1Ev6lmP9NEfRzvG-404" value="n" style="text;html=1;align=center;verticalAlign=middle;resizable=0;points=[];autosize=1;strokeColor=none;fillColor=none;" vertex="1" parent="1">
          <mxGeometry x="444" y="2480" width="30" height="30" as="geometry" />
        </mxCell>
        <mxCell id="it1oy1Ev6lmP9NEfRzvG-413" value="d" style="text;html=1;align=center;verticalAlign=middle;resizable=0;points=[];autosize=1;strokeColor=none;fillColor=none;" vertex="1" parent="1">
          <mxGeometry x="595" y="2480" width="30" height="30" as="geometry" />
        </mxCell>
        <mxCell id="it1oy1Ev6lmP9NEfRzvG-414" value="[a-km-zA-Z0-9_]" style="text;html=1;align=center;verticalAlign=middle;resizable=0;points=[];autosize=1;strokeColor=none;fillColor=none;" vertex="1" parent="1">
          <mxGeometry x="394" y="2190" width="110" height="30" as="geometry" />
        </mxCell>
        <mxCell id="it1oy1Ev6lmP9NEfRzvG-415" value="[a-rt-zA-Z0-9_]" style="text;html=1;align=center;verticalAlign=middle;resizable=0;points=[];autosize=1;strokeColor=none;fillColor=none;" vertex="1" parent="1">
          <mxGeometry x="545" y="2190" width="100" height="30" as="geometry" />
        </mxCell>
        <mxCell id="it1oy1Ev6lmP9NEfRzvG-416" value="[a-rt-zA-Z0-9_]" style="text;html=1;align=center;verticalAlign=middle;resizable=0;points=[];autosize=1;strokeColor=none;fillColor=none;" vertex="1" parent="1">
          <mxGeometry x="690" y="2190" width="100" height="30" as="geometry" />
        </mxCell>
        <mxCell id="it1oy1Ev6lmP9NEfRzvG-419" value="60" style="ellipse;shape=doubleEllipse;whiteSpace=wrap;html=1;aspect=fixed;" vertex="1" parent="1">
          <mxGeometry x="805" y="2480" width="80" height="80" as="geometry" />
        </mxCell>
        <mxCell id="it1oy1Ev6lmP9NEfRzvG-423" value="[a-rt-zA-Z0-9_]" style="text;html=1;align=center;verticalAlign=middle;resizable=0;points=[];autosize=1;strokeColor=none;fillColor=none;" vertex="1" parent="1">
          <mxGeometry x="544" y="2440" width="100" height="30" as="geometry" />
        </mxCell>
        <mxCell id="it1oy1Ev6lmP9NEfRzvG-424" value="[a-rt-zA-Z0-9_]" style="text;html=1;align=center;verticalAlign=middle;resizable=0;points=[];autosize=1;strokeColor=none;fillColor=none;" vertex="1" parent="1">
          <mxGeometry x="685" y="2430" width="100" height="30" as="geometry" />
        </mxCell>
        <mxCell id="it1oy1Ev6lmP9NEfRzvG-425" value="[^a-zA-Z0-9_]&lt;br&gt;" style="text;html=1;align=center;verticalAlign=middle;resizable=0;points=[];autosize=1;strokeColor=none;fillColor=none;" vertex="1" parent="1">
          <mxGeometry x="881" y="2265" width="100" height="30" as="geometry" />
        </mxCell>
        <mxCell id="it1oy1Ev6lmP9NEfRzvG-427" value="[a-zA-Z0-9_]" style="text;html=1;align=center;verticalAlign=middle;resizable=0;points=[];autosize=1;strokeColor=none;fillColor=none;" vertex="1" parent="1">
          <mxGeometry x="1020" y="1320" width="90" height="30" as="geometry" />
        </mxCell>
        <mxCell id="it1oy1Ev6lmP9NEfRzvG-428" value="[^a-zA-Z0-9_]&lt;br&gt;" style="text;html=1;align=center;verticalAlign=middle;resizable=0;points=[];autosize=1;strokeColor=none;fillColor=none;" vertex="1" parent="1">
          <mxGeometry x="719" y="2530" width="100" height="30" as="geometry" />
        </mxCell>
        <mxCell id="it1oy1Ev6lmP9NEfRzvG-429" value="[^a-zA-Z0-9]" style="text;html=1;align=center;verticalAlign=middle;resizable=0;points=[];autosize=1;strokeColor=none;fillColor=none;" vertex="1" parent="1">
          <mxGeometry x="424" y="2340" width="90" height="30" as="geometry" />
        </mxCell>
        <mxCell id="it1oy1Ev6lmP9NEfRzvG-430" value="[^a-zA-Z0-9]" style="text;html=1;align=center;verticalAlign=middle;resizable=0;points=[];autosize=1;strokeColor=none;fillColor=none;" vertex="1" parent="1">
          <mxGeometry x="579" y="2340" width="90" height="30" as="geometry" />
        </mxCell>
        <mxCell id="it1oy1Ev6lmP9NEfRzvG-431" value="[^a-zA-Z0-9]" style="text;html=1;align=center;verticalAlign=middle;resizable=0;points=[];autosize=1;strokeColor=none;fillColor=none;" vertex="1" parent="1">
          <mxGeometry x="734" y="2340" width="90" height="30" as="geometry" />
        </mxCell>
        <mxCell id="it1oy1Ev6lmP9NEfRzvG-432" value="[a-zA-Z0-9_]" style="text;html=1;align=center;verticalAlign=middle;resizable=0;points=[];autosize=1;strokeColor=none;fillColor=none;" vertex="1" parent="1">
          <mxGeometry x="845" y="2190" width="90" height="30" as="geometry" />
        </mxCell>
        <mxCell id="it1oy1Ev6lmP9NEfRzvG-433" value="[^a-zA-Z0-9_]&lt;br&gt;" style="text;html=1;align=center;verticalAlign=middle;resizable=0;points=[];autosize=1;strokeColor=none;fillColor=none;" vertex="1" parent="1">
          <mxGeometry x="534" y="2590" width="100" height="30" as="geometry" />
        </mxCell>
        <mxCell id="it1oy1Ev6lmP9NEfRzvG-434" value="i" style="text;html=1;strokeColor=none;fillColor=none;align=center;verticalAlign=middle;whiteSpace=wrap;rounded=0;" vertex="1" parent="1">
          <mxGeometry x="440" y="2750" width="40" height="20" as="geometry" />
        </mxCell>
        <mxCell id="it1oy1Ev6lmP9NEfRzvG-442" style="edgeStyle=orthogonalEdgeStyle;rounded=0;orthogonalLoop=1;jettySize=auto;html=1;entryX=0;entryY=0.5;entryDx=0;entryDy=0;" edge="1" parent="1" source="it1oy1Ev6lmP9NEfRzvG-436" target="it1oy1Ev6lmP9NEfRzvG-441">
          <mxGeometry relative="1" as="geometry">
            <Array as="points">
              <mxPoint x="540" y="3003" />
            </Array>
          </mxGeometry>
        </mxCell>
        <mxCell id="it1oy1Ev6lmP9NEfRzvG-446" style="edgeStyle=orthogonalEdgeStyle;rounded=0;orthogonalLoop=1;jettySize=auto;html=1;entryX=0;entryY=0.5;entryDx=0;entryDy=0;" edge="1" parent="1" source="it1oy1Ev6lmP9NEfRzvG-436" target="it1oy1Ev6lmP9NEfRzvG-445">
          <mxGeometry relative="1" as="geometry" />
        </mxCell>
        <mxCell id="it1oy1Ev6lmP9NEfRzvG-472" style="edgeStyle=orthogonalEdgeStyle;rounded=0;orthogonalLoop=1;jettySize=auto;html=1;" edge="1" parent="1" source="it1oy1Ev6lmP9NEfRzvG-436" target="it1oy1Ev6lmP9NEfRzvG-34">
          <mxGeometry relative="1" as="geometry">
            <Array as="points">
              <mxPoint x="540" y="2870" />
              <mxPoint x="1580" y="2870" />
            </Array>
          </mxGeometry>
        </mxCell>
        <mxCell id="it1oy1Ev6lmP9NEfRzvG-475" style="edgeStyle=orthogonalEdgeStyle;rounded=0;orthogonalLoop=1;jettySize=auto;html=1;" edge="1" parent="1" source="it1oy1Ev6lmP9NEfRzvG-436" target="it1oy1Ev6lmP9NEfRzvG-34">
          <mxGeometry relative="1" as="geometry">
            <Array as="points">
              <mxPoint x="540" y="2700" />
              <mxPoint x="1580" y="2700" />
            </Array>
          </mxGeometry>
        </mxCell>
        <mxCell id="it1oy1Ev6lmP9NEfRzvG-436" value="61" style="ellipse;whiteSpace=wrap;html=1;aspect=fixed;" vertex="1" parent="1">
          <mxGeometry x="500" y="2750" width="80" height="80" as="geometry" />
        </mxCell>
        <mxCell id="it1oy1Ev6lmP9NEfRzvG-437" value="f" style="text;html=1;strokeColor=none;fillColor=none;align=center;verticalAlign=middle;whiteSpace=wrap;rounded=0;" vertex="1" parent="1">
          <mxGeometry x="569" y="2975" width="40" height="20" as="geometry" />
        </mxCell>
        <mxCell id="it1oy1Ev6lmP9NEfRzvG-438" value="64" style="ellipse;shape=doubleEllipse;whiteSpace=wrap;html=1;aspect=fixed;" vertex="1" parent="1">
          <mxGeometry x="960" y="2750" width="80" height="80" as="geometry" />
        </mxCell>
        <mxCell id="it1oy1Ev6lmP9NEfRzvG-439" value="RETURN(if, NULL)" style="text;html=1;strokeColor=none;fillColor=none;align=center;verticalAlign=middle;whiteSpace=wrap;rounded=0;" vertex="1" parent="1">
          <mxGeometry x="911" y="2993" width="40" height="20" as="geometry" />
        </mxCell>
        <mxCell id="it1oy1Ev6lmP9NEfRzvG-456" style="edgeStyle=orthogonalEdgeStyle;rounded=0;orthogonalLoop=1;jettySize=auto;html=1;" edge="1" parent="1" source="it1oy1Ev6lmP9NEfRzvG-441" target="it1oy1Ev6lmP9NEfRzvG-453">
          <mxGeometry relative="1" as="geometry" />
        </mxCell>
        <mxCell id="it1oy1Ev6lmP9NEfRzvG-480" style="edgeStyle=orthogonalEdgeStyle;rounded=0;orthogonalLoop=1;jettySize=auto;html=1;" edge="1" parent="1" source="it1oy1Ev6lmP9NEfRzvG-441" target="it1oy1Ev6lmP9NEfRzvG-34">
          <mxGeometry relative="1" as="geometry">
            <Array as="points">
              <mxPoint x="688" y="2920" />
              <mxPoint x="1580" y="2920" />
            </Array>
          </mxGeometry>
        </mxCell>
        <mxCell id="it1oy1Ev6lmP9NEfRzvG-441" value="65" style="ellipse;whiteSpace=wrap;html=1;aspect=fixed;" vertex="1" parent="1">
          <mxGeometry x="648" y="2963" width="80" height="80" as="geometry" />
        </mxCell>
        <mxCell id="it1oy1Ev6lmP9NEfRzvG-448" style="edgeStyle=orthogonalEdgeStyle;rounded=0;orthogonalLoop=1;jettySize=auto;html=1;entryX=0;entryY=0.5;entryDx=0;entryDy=0;" edge="1" parent="1" source="it1oy1Ev6lmP9NEfRzvG-445" target="it1oy1Ev6lmP9NEfRzvG-447">
          <mxGeometry relative="1" as="geometry" />
        </mxCell>
        <mxCell id="it1oy1Ev6lmP9NEfRzvG-471" style="edgeStyle=orthogonalEdgeStyle;rounded=0;orthogonalLoop=1;jettySize=auto;html=1;" edge="1" parent="1" source="it1oy1Ev6lmP9NEfRzvG-445" target="it1oy1Ev6lmP9NEfRzvG-34">
          <mxGeometry relative="1" as="geometry">
            <Array as="points">
              <mxPoint x="688" y="2870" />
              <mxPoint x="1580" y="2870" />
            </Array>
          </mxGeometry>
        </mxCell>
        <mxCell id="it1oy1Ev6lmP9NEfRzvG-476" style="edgeStyle=orthogonalEdgeStyle;rounded=0;orthogonalLoop=1;jettySize=auto;html=1;" edge="1" parent="1" source="it1oy1Ev6lmP9NEfRzvG-445" target="it1oy1Ev6lmP9NEfRzvG-34">
          <mxGeometry relative="1" as="geometry">
            <Array as="points">
              <mxPoint x="688" y="2700" />
              <mxPoint x="1580" y="2700" />
            </Array>
          </mxGeometry>
        </mxCell>
        <mxCell id="it1oy1Ev6lmP9NEfRzvG-445" value="62" style="ellipse;whiteSpace=wrap;html=1;aspect=fixed;" vertex="1" parent="1">
          <mxGeometry x="648" y="2750" width="80" height="80" as="geometry" />
        </mxCell>
        <mxCell id="it1oy1Ev6lmP9NEfRzvG-449" style="edgeStyle=orthogonalEdgeStyle;rounded=0;orthogonalLoop=1;jettySize=auto;html=1;entryX=0;entryY=0.5;entryDx=0;entryDy=0;" edge="1" parent="1" source="it1oy1Ev6lmP9NEfRzvG-447" target="it1oy1Ev6lmP9NEfRzvG-438">
          <mxGeometry relative="1" as="geometry" />
        </mxCell>
        <mxCell id="it1oy1Ev6lmP9NEfRzvG-477" style="edgeStyle=orthogonalEdgeStyle;rounded=0;orthogonalLoop=1;jettySize=auto;html=1;" edge="1" parent="1" source="it1oy1Ev6lmP9NEfRzvG-447" target="it1oy1Ev6lmP9NEfRzvG-34">
          <mxGeometry relative="1" as="geometry">
            <Array as="points">
              <mxPoint x="845" y="2700" />
              <mxPoint x="1580" y="2700" />
            </Array>
          </mxGeometry>
        </mxCell>
        <mxCell id="it1oy1Ev6lmP9NEfRzvG-447" value="63" style="ellipse;whiteSpace=wrap;html=1;aspect=fixed;" vertex="1" parent="1">
          <mxGeometry x="805" y="2750" width="80" height="80" as="geometry" />
        </mxCell>
        <mxCell id="it1oy1Ev6lmP9NEfRzvG-450" value="n" style="text;html=1;align=center;verticalAlign=middle;resizable=0;points=[];autosize=1;strokeColor=none;fillColor=none;" vertex="1" parent="1">
          <mxGeometry x="594" y="2750" width="30" height="30" as="geometry" />
        </mxCell>
        <mxCell id="it1oy1Ev6lmP9NEfRzvG-451" value="t" style="text;html=1;align=center;verticalAlign=middle;resizable=0;points=[];autosize=1;strokeColor=none;fillColor=none;" vertex="1" parent="1">
          <mxGeometry x="750" y="2750" width="30" height="30" as="geometry" />
        </mxCell>
        <mxCell id="it1oy1Ev6lmP9NEfRzvG-452" value="[^a-zA-Z0-9_]&lt;br&gt;" style="text;html=1;align=center;verticalAlign=middle;resizable=0;points=[];autosize=1;strokeColor=none;fillColor=none;" vertex="1" parent="1">
          <mxGeometry x="874" y="2750" width="100" height="30" as="geometry" />
        </mxCell>
        <mxCell id="it1oy1Ev6lmP9NEfRzvG-453" value="66" style="ellipse;shape=doubleEllipse;whiteSpace=wrap;html=1;aspect=fixed;" vertex="1" parent="1">
          <mxGeometry x="805" y="2963" width="80" height="80" as="geometry" />
        </mxCell>
        <mxCell id="it1oy1Ev6lmP9NEfRzvG-454" value="RETURN(end, NULL)" style="text;html=1;strokeColor=none;fillColor=none;align=center;verticalAlign=middle;whiteSpace=wrap;rounded=0;" vertex="1" parent="1">
          <mxGeometry x="915" y="2510" width="40" height="20" as="geometry" />
        </mxCell>
        <mxCell id="it1oy1Ev6lmP9NEfRzvG-457" value="[^a-zA-Z0-9_]&lt;br&gt;" style="text;html=1;align=center;verticalAlign=middle;resizable=0;points=[];autosize=1;strokeColor=none;fillColor=none;" vertex="1" parent="1">
          <mxGeometry x="714" y="2970" width="100" height="30" as="geometry" />
        </mxCell>
        <mxCell id="it1oy1Ev6lmP9NEfRzvG-458" value="RETURN(+, NULL)" style="text;html=1;strokeColor=none;fillColor=none;align=center;verticalAlign=middle;whiteSpace=wrap;rounded=0;" vertex="1" parent="1">
          <mxGeometry x="464" y="1890" width="40" height="20" as="geometry" />
        </mxCell>
        <mxCell id="it1oy1Ev6lmP9NEfRzvG-459" value="RETURN(-, NULL)" style="text;html=1;strokeColor=none;fillColor=none;align=center;verticalAlign=middle;whiteSpace=wrap;rounded=0;" vertex="1" parent="1">
          <mxGeometry x="464" y="1990" width="40" height="20" as="geometry" />
        </mxCell>
        <mxCell id="it1oy1Ev6lmP9NEfRzvG-460" value="RETURN(;, NULL)" style="text;html=1;strokeColor=none;fillColor=none;align=center;verticalAlign=middle;whiteSpace=wrap;rounded=0;" vertex="1" parent="1">
          <mxGeometry x="455" y="2110" width="40" height="20" as="geometry" />
        </mxCell>
        <mxCell id="it1oy1Ev6lmP9NEfRzvG-461" value="RETURN(:=, NULL)" style="text;html=1;strokeColor=none;fillColor=none;align=center;verticalAlign=middle;whiteSpace=wrap;rounded=0;" vertex="1" parent="1">
          <mxGeometry x="615" y="1800" width="40" height="20" as="geometry" />
        </mxCell>
        <mxCell id="it1oy1Ev6lmP9NEfRzvG-465" value="[a-mo-zA-Z0-9_]" style="text;html=1;align=center;verticalAlign=middle;resizable=0;points=[];autosize=1;strokeColor=none;fillColor=none;" vertex="1" parent="1">
          <mxGeometry x="539" y="2700" width="110" height="30" as="geometry" />
        </mxCell>
        <mxCell id="it1oy1Ev6lmP9NEfRzvG-466" value="[a-su-zA-Z0-9_]" style="text;html=1;align=center;verticalAlign=middle;resizable=0;points=[];autosize=1;strokeColor=none;fillColor=none;" vertex="1" parent="1">
          <mxGeometry x="690" y="2700" width="110" height="30" as="geometry" />
        </mxCell>
        <mxCell id="it1oy1Ev6lmP9NEfRzvG-468" value="[a-zA-Z0-9_]" style="text;html=1;align=center;verticalAlign=middle;resizable=0;points=[];autosize=1;strokeColor=none;fillColor=none;" vertex="1" parent="1">
          <mxGeometry x="849" y="2700" width="90" height="30" as="geometry" />
        </mxCell>
        <mxCell id="it1oy1Ev6lmP9NEfRzvG-478" value="[^a-zA-Z0-9_]&lt;br&gt;" style="text;html=1;align=center;verticalAlign=middle;resizable=0;points=[];autosize=1;strokeColor=none;fillColor=none;" vertex="1" parent="1">
          <mxGeometry x="534" y="2840" width="100" height="30" as="geometry" />
        </mxCell>
        <mxCell id="it1oy1Ev6lmP9NEfRzvG-479" value="[^a-zA-Z0-9_]&lt;br&gt;" style="text;html=1;align=center;verticalAlign=middle;resizable=0;points=[];autosize=1;strokeColor=none;fillColor=none;" vertex="1" parent="1">
          <mxGeometry x="684" y="2840" width="100" height="30" as="geometry" />
        </mxCell>
        <mxCell id="it1oy1Ev6lmP9NEfRzvG-481" value="[a-zA-Z0-9_]" style="text;html=1;align=center;verticalAlign=middle;resizable=0;points=[];autosize=1;strokeColor=none;fillColor=none;" vertex="1" parent="1">
          <mxGeometry x="685" y="2923" width="90" height="30" as="geometry" />
        </mxCell>
        <mxCell id="it1oy1Ev6lmP9NEfRzvG-483" value="" style="edgeStyle=orthogonalEdgeStyle;rounded=0;orthogonalLoop=1;jettySize=auto;html=1;" edge="1" parent="1" source="it1oy1Ev6lmP9NEfRzvG-484" target="it1oy1Ev6lmP9NEfRzvG-486">
          <mxGeometry relative="1" as="geometry" />
        </mxCell>
        <mxCell id="it1oy1Ev6lmP9NEfRzvG-484" value="67" style="ellipse;whiteSpace=wrap;html=1;aspect=fixed;" vertex="1" parent="1">
          <mxGeometry x="480" y="3112" width="80" height="80" as="geometry" />
        </mxCell>
        <mxCell id="it1oy1Ev6lmP9NEfRzvG-485" style="edgeStyle=orthogonalEdgeStyle;rounded=0;orthogonalLoop=1;jettySize=auto;html=1;entryX=0;entryY=0.5;entryDx=0;entryDy=0;" edge="1" parent="1" source="it1oy1Ev6lmP9NEfRzvG-486" target="it1oy1Ev6lmP9NEfRzvG-487">
          <mxGeometry relative="1" as="geometry" />
        </mxCell>
        <mxCell id="it1oy1Ev6lmP9NEfRzvG-486" value="68" style="ellipse;whiteSpace=wrap;html=1;aspect=fixed;" vertex="1" parent="1">
          <mxGeometry x="640" y="3112" width="80" height="80" as="geometry" />
        </mxCell>
        <mxCell id="it1oy1Ev6lmP9NEfRzvG-487" value="69" style="ellipse;shape=doubleEllipse;whiteSpace=wrap;html=1;aspect=fixed;" vertex="1" parent="1">
          <mxGeometry x="780" y="3112" width="80" height="80" as="geometry" />
        </mxCell>
        <mxCell id="it1oy1Ev6lmP9NEfRzvG-488" value="&#39;" style="text;html=1;align=center;verticalAlign=middle;resizable=0;points=[];autosize=1;strokeColor=none;fillColor=none;" vertex="1" parent="1">
          <mxGeometry x="415" y="3110" width="30" height="30" as="geometry" />
        </mxCell>
        <mxCell id="it1oy1Ev6lmP9NEfRzvG-489" value="&#39;" style="text;html=1;align=center;verticalAlign=middle;resizable=0;points=[];autosize=1;strokeColor=none;fillColor=none;" vertex="1" parent="1">
          <mxGeometry x="735" y="3120" width="30" height="30" as="geometry" />
        </mxCell>
        <mxCell id="it1oy1Ev6lmP9NEfRzvG-490" value="[.|\n]" style="text;html=1;align=center;verticalAlign=middle;resizable=0;points=[];autosize=1;strokeColor=none;fillColor=none;" vertex="1" parent="1">
          <mxGeometry x="575" y="3110" width="50" height="30" as="geometry" />
        </mxCell>
        <mxCell id="it1oy1Ev6lmP9NEfRzvG-492" value="70" style="ellipse;shape=doubleEllipse;whiteSpace=wrap;html=1;aspect=fixed;" vertex="1" parent="1">
          <mxGeometry x="510" y="3259" width="80" height="80" as="geometry" />
        </mxCell>
        <mxCell id="it1oy1Ev6lmP9NEfRzvG-493" value="[\s\n\t]" style="text;html=1;align=center;verticalAlign=middle;resizable=0;points=[];autosize=1;strokeColor=none;fillColor=none;" vertex="1" parent="1">
          <mxGeometry x="410" y="3260" width="60" height="30" as="geometry" />
        </mxCell>
        <mxCell id="it1oy1Ev6lmP9NEfRzvG-495" value="71" style="ellipse;whiteSpace=wrap;html=1;aspect=fixed;" vertex="1" parent="1">
          <mxGeometry x="485" y="3452" width="80" height="80" as="geometry" />
        </mxCell>
        <mxCell id="it1oy1Ev6lmP9NEfRzvG-496" style="edgeStyle=orthogonalEdgeStyle;rounded=0;orthogonalLoop=1;jettySize=auto;html=1;entryX=0;entryY=0.5;entryDx=0;entryDy=0;" edge="1" parent="1" target="it1oy1Ev6lmP9NEfRzvG-497">
          <mxGeometry relative="1" as="geometry">
            <mxPoint x="565" y="3490" as="sourcePoint" />
          </mxGeometry>
        </mxCell>
        <mxCell id="it1oy1Ev6lmP9NEfRzvG-497" value="72" style="ellipse;shape=doubleEllipse;whiteSpace=wrap;html=1;aspect=fixed;" vertex="1" parent="1">
          <mxGeometry x="630" y="3450" width="80" height="80" as="geometry" />
        </mxCell>
        <mxCell id="it1oy1Ev6lmP9NEfRzvG-498" value="{" style="text;html=1;align=center;verticalAlign=middle;resizable=0;points=[];autosize=1;strokeColor=none;fillColor=none;" vertex="1" parent="1">
          <mxGeometry x="415" y="3450" width="30" height="30" as="geometry" />
        </mxCell>
        <mxCell id="it1oy1Ev6lmP9NEfRzvG-499" value="" style="curved=1;endArrow=classic;html=1;rounded=0;entryX=1;entryY=0;entryDx=0;entryDy=0;exitX=0;exitY=0;exitDx=0;exitDy=0;" edge="1" parent="1">
          <mxGeometry width="50" height="50" relative="1" as="geometry">
            <mxPoint x="497" y="3464" as="sourcePoint" />
            <mxPoint x="553" y="3464" as="targetPoint" />
            <Array as="points">
              <mxPoint x="475" y="3422" />
              <mxPoint x="515" y="3422" />
              <mxPoint x="575" y="3422" />
            </Array>
          </mxGeometry>
        </mxCell>
        <mxCell id="it1oy1Ev6lmP9NEfRzvG-500" value="[.|\n]" style="text;html=1;align=center;verticalAlign=middle;resizable=0;points=[];autosize=1;strokeColor=none;fillColor=none;" vertex="1" parent="1">
          <mxGeometry x="500" y="3390" width="50" height="30" as="geometry" />
        </mxCell>
        <mxCell id="it1oy1Ev6lmP9NEfRzvG-501" value="}" style="text;html=1;align=center;verticalAlign=middle;resizable=0;points=[];autosize=1;strokeColor=none;fillColor=none;" vertex="1" parent="1">
          <mxGeometry x="575" y="3452" width="30" height="30" as="geometry" />
        </mxCell>
        <mxCell id="it1oy1Ev6lmP9NEfRzvG-502" value="RETURN(letra, POS)" style="text;html=1;strokeColor=none;fillColor=none;align=center;verticalAlign=middle;whiteSpace=wrap;rounded=0;" vertex="1" parent="1">
          <mxGeometry x="890" y="3142" width="40" height="20" as="geometry" />
        </mxCell>
        <mxCell id="it1oy1Ev6lmP9NEfRzvG-503" value="RETURN(ws, NULL)" style="text;html=1;strokeColor=none;fillColor=none;align=center;verticalAlign=middle;whiteSpace=wrap;rounded=0;" vertex="1" parent="1">
          <mxGeometry x="625" y="3290" width="40" height="20" as="geometry" />
        </mxCell>
        <mxCell id="it1oy1Ev6lmP9NEfRzvG-504" value="RETURN(comentario, NULL)" style="text;html=1;strokeColor=none;fillColor=none;align=center;verticalAlign=middle;whiteSpace=wrap;rounded=0;" vertex="1" parent="1">
          <mxGeometry x="757" y="3482" width="40" height="20" as="geometry" />
        </mxCell>
        <mxCell id="it1oy1Ev6lmP9NEfRzvG-506" style="edgeStyle=orthogonalEdgeStyle;rounded=0;orthogonalLoop=1;jettySize=auto;html=1;entryX=0;entryY=0.5;entryDx=0;entryDy=0;" edge="1" parent="1" source="it1oy1Ev6lmP9NEfRzvG-508" target="it1oy1Ev6lmP9NEfRzvG-514">
          <mxGeometry relative="1" as="geometry" />
        </mxCell>
        <mxCell id="it1oy1Ev6lmP9NEfRzvG-507" style="edgeStyle=orthogonalEdgeStyle;rounded=0;orthogonalLoop=1;jettySize=auto;html=1;entryX=0.5;entryY=0;entryDx=0;entryDy=0;" edge="1" parent="1" source="it1oy1Ev6lmP9NEfRzvG-508" target="it1oy1Ev6lmP9NEfRzvG-540">
          <mxGeometry relative="1" as="geometry" />
        </mxCell>
        <mxCell id="it1oy1Ev6lmP9NEfRzvG-508" value="73" style="ellipse;whiteSpace=wrap;html=1;aspect=fixed;" vertex="1" parent="1">
          <mxGeometry x="485" y="3632" width="80" height="80" as="geometry" />
        </mxCell>
        <mxCell id="it1oy1Ev6lmP9NEfRzvG-509" value="digito" style="text;html=1;align=center;verticalAlign=middle;resizable=0;points=[];autosize=1;strokeColor=none;fillColor=none;" vertex="1" parent="1">
          <mxGeometry x="415" y="3642" width="50" height="30" as="geometry" />
        </mxCell>
        <mxCell id="it1oy1Ev6lmP9NEfRzvG-510" value="" style="curved=1;endArrow=classic;html=1;rounded=0;entryX=1;entryY=0;entryDx=0;entryDy=0;exitX=0;exitY=0;exitDx=0;exitDy=0;" edge="1" parent="1">
          <mxGeometry width="50" height="50" relative="1" as="geometry">
            <mxPoint x="497" y="3644" as="sourcePoint" />
            <mxPoint x="553" y="3644" as="targetPoint" />
            <Array as="points">
              <mxPoint x="475" y="3602" />
              <mxPoint x="515" y="3602" />
              <mxPoint x="575" y="3602" />
            </Array>
          </mxGeometry>
        </mxCell>
        <mxCell id="it1oy1Ev6lmP9NEfRzvG-511" value="." style="text;html=1;align=center;verticalAlign=middle;resizable=0;points=[];autosize=1;strokeColor=none;fillColor=none;" vertex="1" parent="1">
          <mxGeometry x="580" y="3632" width="30" height="30" as="geometry" />
        </mxCell>
        <mxCell id="it1oy1Ev6lmP9NEfRzvG-512" value="digito" style="text;html=1;align=center;verticalAlign=middle;resizable=0;points=[];autosize=1;strokeColor=none;fillColor=none;" vertex="1" parent="1">
          <mxGeometry x="500" y="3572" width="50" height="30" as="geometry" />
        </mxCell>
        <mxCell id="it1oy1Ev6lmP9NEfRzvG-513" style="edgeStyle=orthogonalEdgeStyle;rounded=0;orthogonalLoop=1;jettySize=auto;html=1;entryX=0;entryY=0.5;entryDx=0;entryDy=0;" edge="1" parent="1" source="it1oy1Ev6lmP9NEfRzvG-514" target="it1oy1Ev6lmP9NEfRzvG-517">
          <mxGeometry relative="1" as="geometry">
            <mxPoint x="790" y="3672" as="targetPoint" />
          </mxGeometry>
        </mxCell>
        <mxCell id="it1oy1Ev6lmP9NEfRzvG-514" value="75" style="ellipse;whiteSpace=wrap;html=1;aspect=fixed;" vertex="1" parent="1">
          <mxGeometry x="630" y="3632" width="80" height="80" as="geometry" />
        </mxCell>
        <mxCell id="it1oy1Ev6lmP9NEfRzvG-515" style="edgeStyle=orthogonalEdgeStyle;rounded=0;orthogonalLoop=1;jettySize=auto;html=1;entryX=0;entryY=0.5;entryDx=0;entryDy=0;" edge="1" parent="1" source="it1oy1Ev6lmP9NEfRzvG-517" target="it1oy1Ev6lmP9NEfRzvG-523">
          <mxGeometry relative="1" as="geometry" />
        </mxCell>
        <mxCell id="it1oy1Ev6lmP9NEfRzvG-516" style="edgeStyle=orthogonalEdgeStyle;rounded=0;orthogonalLoop=1;jettySize=auto;html=1;" edge="1" parent="1" source="it1oy1Ev6lmP9NEfRzvG-517" target="it1oy1Ev6lmP9NEfRzvG-539">
          <mxGeometry relative="1" as="geometry" />
        </mxCell>
        <mxCell id="it1oy1Ev6lmP9NEfRzvG-517" value="76" style="ellipse;whiteSpace=wrap;html=1;aspect=fixed;" vertex="1" parent="1">
          <mxGeometry x="810" y="3632" width="80" height="80" as="geometry" />
        </mxCell>
        <mxCell id="it1oy1Ev6lmP9NEfRzvG-518" value="" style="curved=1;endArrow=classic;html=1;rounded=0;entryX=1;entryY=0;entryDx=0;entryDy=0;exitX=0;exitY=0;exitDx=0;exitDy=0;" edge="1" parent="1">
          <mxGeometry width="50" height="50" relative="1" as="geometry">
            <mxPoint x="822" y="3644" as="sourcePoint" />
            <mxPoint x="878" y="3644" as="targetPoint" />
            <Array as="points">
              <mxPoint x="800" y="3602" />
              <mxPoint x="840" y="3602" />
              <mxPoint x="900" y="3602" />
            </Array>
          </mxGeometry>
        </mxCell>
        <mxCell id="it1oy1Ev6lmP9NEfRzvG-519" value="digito" style="text;html=1;align=center;verticalAlign=middle;resizable=0;points=[];autosize=1;strokeColor=none;fillColor=none;" vertex="1" parent="1">
          <mxGeometry x="825" y="3572" width="50" height="30" as="geometry" />
        </mxCell>
        <mxCell id="it1oy1Ev6lmP9NEfRzvG-520" value="digito" style="text;html=1;align=center;verticalAlign=middle;resizable=0;points=[];autosize=1;strokeColor=none;fillColor=none;" vertex="1" parent="1">
          <mxGeometry x="730" y="3642" width="50" height="30" as="geometry" />
        </mxCell>
        <mxCell id="it1oy1Ev6lmP9NEfRzvG-521" style="edgeStyle=orthogonalEdgeStyle;rounded=0;orthogonalLoop=1;jettySize=auto;html=1;" edge="1" parent="1" source="it1oy1Ev6lmP9NEfRzvG-523" target="it1oy1Ev6lmP9NEfRzvG-526">
          <mxGeometry relative="1" as="geometry" />
        </mxCell>
        <mxCell id="it1oy1Ev6lmP9NEfRzvG-522" style="edgeStyle=orthogonalEdgeStyle;rounded=0;orthogonalLoop=1;jettySize=auto;html=1;" edge="1" parent="1" source="it1oy1Ev6lmP9NEfRzvG-523">
          <mxGeometry relative="1" as="geometry">
            <mxPoint x="1260" y="3712" as="targetPoint" />
            <Array as="points">
              <mxPoint x="1000" y="3732" />
              <mxPoint x="1260" y="3732" />
              <mxPoint x="1260" y="3712" />
            </Array>
          </mxGeometry>
        </mxCell>
        <mxCell id="it1oy1Ev6lmP9NEfRzvG-523" value="78" style="ellipse;whiteSpace=wrap;html=1;aspect=fixed;" vertex="1" parent="1">
          <mxGeometry x="960" y="3632" width="80" height="80" as="geometry" />
        </mxCell>
        <mxCell id="it1oy1Ev6lmP9NEfRzvG-524" value="E" style="text;html=1;align=center;verticalAlign=middle;resizable=0;points=[];autosize=1;strokeColor=none;fillColor=none;" vertex="1" parent="1">
          <mxGeometry x="910" y="3642" width="30" height="30" as="geometry" />
        </mxCell>
        <mxCell id="it1oy1Ev6lmP9NEfRzvG-525" style="edgeStyle=orthogonalEdgeStyle;rounded=0;orthogonalLoop=1;jettySize=auto;html=1;entryX=0;entryY=0.5;entryDx=0;entryDy=0;" edge="1" parent="1" source="it1oy1Ev6lmP9NEfRzvG-526" target="it1oy1Ev6lmP9NEfRzvG-529">
          <mxGeometry relative="1" as="geometry" />
        </mxCell>
        <mxCell id="it1oy1Ev6lmP9NEfRzvG-526" value="79" style="ellipse;whiteSpace=wrap;html=1;aspect=fixed;" vertex="1" parent="1">
          <mxGeometry x="1100" y="3632" width="80" height="80" as="geometry" />
        </mxCell>
        <mxCell id="it1oy1Ev6lmP9NEfRzvG-527" value="[ + - ]" style="text;html=1;align=center;verticalAlign=middle;resizable=0;points=[];autosize=1;strokeColor=none;fillColor=none;" vertex="1" parent="1">
          <mxGeometry x="1045" y="3642" width="50" height="30" as="geometry" />
        </mxCell>
        <mxCell id="it1oy1Ev6lmP9NEfRzvG-528" style="edgeStyle=orthogonalEdgeStyle;rounded=0;orthogonalLoop=1;jettySize=auto;html=1;entryX=0.5;entryY=0;entryDx=0;entryDy=0;" edge="1" parent="1" source="it1oy1Ev6lmP9NEfRzvG-529" target="it1oy1Ev6lmP9NEfRzvG-535">
          <mxGeometry relative="1" as="geometry">
            <mxPoint x="1280" y="3782" as="targetPoint" />
          </mxGeometry>
        </mxCell>
        <mxCell id="it1oy1Ev6lmP9NEfRzvG-529" value="80" style="ellipse;whiteSpace=wrap;html=1;aspect=fixed;" vertex="1" parent="1">
          <mxGeometry x="1240" y="3632" width="80" height="80" as="geometry" />
        </mxCell>
        <mxCell id="it1oy1Ev6lmP9NEfRzvG-530" value="digito" style="text;html=1;align=center;verticalAlign=middle;resizable=0;points=[];autosize=1;strokeColor=none;fillColor=none;" vertex="1" parent="1">
          <mxGeometry x="1180" y="3642" width="50" height="30" as="geometry" />
        </mxCell>
        <mxCell id="it1oy1Ev6lmP9NEfRzvG-531" value="" style="curved=1;endArrow=classic;html=1;rounded=0;entryX=1;entryY=0;entryDx=0;entryDy=0;exitX=0;exitY=0;exitDx=0;exitDy=0;" edge="1" parent="1">
          <mxGeometry width="50" height="50" relative="1" as="geometry">
            <mxPoint x="1252" y="3642" as="sourcePoint" />
            <mxPoint x="1308" y="3642" as="targetPoint" />
            <Array as="points">
              <mxPoint x="1230" y="3600" />
              <mxPoint x="1270" y="3600" />
              <mxPoint x="1330" y="3600" />
            </Array>
          </mxGeometry>
        </mxCell>
        <mxCell id="it1oy1Ev6lmP9NEfRzvG-532" value="digito" style="text;html=1;align=center;verticalAlign=middle;resizable=0;points=[];autosize=1;strokeColor=none;fillColor=none;" vertex="1" parent="1">
          <mxGeometry x="1255" y="3570" width="50" height="30" as="geometry" />
        </mxCell>
        <mxCell id="it1oy1Ev6lmP9NEfRzvG-533" value="digito" style="text;html=1;align=center;verticalAlign=middle;resizable=0;points=[];autosize=1;strokeColor=none;fillColor=none;" vertex="1" parent="1">
          <mxGeometry x="1130" y="3732" width="50" height="30" as="geometry" />
        </mxCell>
        <mxCell id="it1oy1Ev6lmP9NEfRzvG-534" value="[^digito . E]" style="text;html=1;align=center;verticalAlign=middle;resizable=0;points=[];autosize=1;strokeColor=none;fillColor=none;" vertex="1" parent="1">
          <mxGeometry x="1270" y="3732" width="80" height="30" as="geometry" />
        </mxCell>
        <mxCell id="it1oy1Ev6lmP9NEfRzvG-535" value="81" style="ellipse;shape=doubleEllipse;whiteSpace=wrap;html=1;aspect=fixed;" vertex="1" parent="1">
          <mxGeometry x="1240" y="3792" width="80" height="80" as="geometry" />
        </mxCell>
        <mxCell id="it1oy1Ev6lmP9NEfRzvG-536" style="edgeStyle=orthogonalEdgeStyle;rounded=0;orthogonalLoop=1;jettySize=auto;html=1;entryX=0.264;entryY=0.984;entryDx=0;entryDy=0;entryPerimeter=0;" edge="1" parent="1" source="it1oy1Ev6lmP9NEfRzvG-508" target="it1oy1Ev6lmP9NEfRzvG-523">
          <mxGeometry relative="1" as="geometry">
            <Array as="points">
              <mxPoint x="540" y="3732" />
              <mxPoint x="981" y="3732" />
            </Array>
          </mxGeometry>
        </mxCell>
        <mxCell id="it1oy1Ev6lmP9NEfRzvG-537" value="E" style="text;html=1;align=center;verticalAlign=middle;resizable=0;points=[];autosize=1;strokeColor=none;fillColor=none;" vertex="1" parent="1">
          <mxGeometry x="740" y="3732" width="30" height="30" as="geometry" />
        </mxCell>
        <mxCell id="it1oy1Ev6lmP9NEfRzvG-538" value="E" style="text;html=1;align=center;verticalAlign=middle;resizable=0;points=[];autosize=1;strokeColor=none;fillColor=none;" vertex="1" parent="1">
          <mxGeometry x="930" y="3662" width="30" height="30" as="geometry" />
        </mxCell>
        <mxCell id="it1oy1Ev6lmP9NEfRzvG-539" value="77" style="ellipse;shape=doubleEllipse;whiteSpace=wrap;html=1;aspect=fixed;" vertex="1" parent="1">
          <mxGeometry x="810" y="3782" width="80" height="80" as="geometry" />
        </mxCell>
        <mxCell id="it1oy1Ev6lmP9NEfRzvG-540" value="74" style="ellipse;shape=doubleEllipse;whiteSpace=wrap;html=1;aspect=fixed;" vertex="1" parent="1">
          <mxGeometry x="485" y="3782" width="80" height="80" as="geometry" />
        </mxCell>
        <mxCell id="it1oy1Ev6lmP9NEfRzvG-541" value="*" style="text;strokeColor=none;fillColor=none;html=1;fontSize=24;fontStyle=1;verticalAlign=middle;align=center;" vertex="1" parent="1">
          <mxGeometry x="540" y="3772" width="50" height="40" as="geometry" />
        </mxCell>
        <mxCell id="it1oy1Ev6lmP9NEfRzvG-542" value="*" style="text;strokeColor=none;fillColor=none;html=1;fontSize=24;fontStyle=1;verticalAlign=middle;align=center;" vertex="1" parent="1">
          <mxGeometry x="870" y="3772" width="50" height="40" as="geometry" />
        </mxCell>
        <mxCell id="it1oy1Ev6lmP9NEfRzvG-543" value="*" style="text;strokeColor=none;fillColor=none;html=1;fontSize=24;fontStyle=1;verticalAlign=middle;align=center;" vertex="1" parent="1">
          <mxGeometry x="1295" y="3782" width="50" height="40" as="geometry" />
        </mxCell>
        <mxCell id="it1oy1Ev6lmP9NEfRzvG-544" value="RETURN setAsInt()" style="text;html=1;strokeColor=none;fillColor=none;align=center;verticalAlign=middle;whiteSpace=wrap;rounded=0;" vertex="1" parent="1">
          <mxGeometry x="505" y="3882" width="40" height="20" as="geometry" />
        </mxCell>
        <mxCell id="it1oy1Ev6lmP9NEfRzvG-545" value="RETURN setAsFloat()" style="text;html=1;strokeColor=none;fillColor=none;align=center;verticalAlign=middle;whiteSpace=wrap;rounded=0;" vertex="1" parent="1">
          <mxGeometry x="830" y="3882" width="40" height="20" as="geometry" />
        </mxCell>
        <mxCell id="it1oy1Ev6lmP9NEfRzvG-546" value="RETURN setAsExp()" style="text;html=1;strokeColor=none;fillColor=none;align=center;verticalAlign=middle;whiteSpace=wrap;rounded=0;" vertex="1" parent="1">
          <mxGeometry x="1260" y="3882" width="40" height="20" as="geometry" />
        </mxCell>
        <mxCell id="it1oy1Ev6lmP9NEfRzvG-552" value="" style="curved=1;endArrow=classic;html=1;rounded=0;entryX=1;entryY=0;entryDx=0;entryDy=0;exitX=0;exitY=0;exitDx=0;exitDy=0;" edge="1" parent="1">
          <mxGeometry width="50" height="50" relative="1" as="geometry">
            <mxPoint x="1552" y="611" as="sourcePoint" />
            <mxPoint x="1608" y="611" as="targetPoint" />
            <Array as="points">
              <mxPoint x="1530" y="569" />
              <mxPoint x="1570" y="569" />
              <mxPoint x="1630" y="569" />
            </Array>
          </mxGeometry>
        </mxCell>
        <mxCell id="it1oy1Ev6lmP9NEfRzvG-553" value="[0-9a-zA-Z_]" style="text;html=1;align=center;verticalAlign=middle;resizable=0;points=[];autosize=1;strokeColor=none;fillColor=none;" vertex="1" parent="1">
          <mxGeometry x="1490" y="540" width="90" height="30" as="geometry" />
        </mxCell>
        <mxCell id="it1oy1Ev6lmP9NEfRzvG-554" value="[adghj-oqsvxyzA-Z_]" style="text;html=1;align=center;verticalAlign=middle;resizable=0;points=[];autosize=1;strokeColor=none;fillColor=none;" vertex="1" parent="1">
          <mxGeometry x="305" y="610" width="130" height="30" as="geometry" />
        </mxCell>
        <mxCell id="it1oy1Ev6lmP9NEfRzvG-555" style="edgeStyle=orthogonalEdgeStyle;rounded=0;orthogonalLoop=1;jettySize=auto;html=1;exitX=1;exitY=1;exitDx=0;exitDy=0;entryX=0;entryY=0.5;entryDx=0;entryDy=0;" edge="1" parent="1" source="it1oy1Ev6lmP9NEfRzvG-557" target="it1oy1Ev6lmP9NEfRzvG-569">
          <mxGeometry relative="1" as="geometry">
            <mxPoint x="695" y="4108" as="targetPoint" />
          </mxGeometry>
        </mxCell>
        <mxCell id="it1oy1Ev6lmP9NEfRzvG-556" style="edgeStyle=orthogonalEdgeStyle;rounded=0;orthogonalLoop=1;jettySize=auto;html=1;entryX=0;entryY=0.5;entryDx=0;entryDy=0;" edge="1" parent="1" source="it1oy1Ev6lmP9NEfRzvG-557" target="it1oy1Ev6lmP9NEfRzvG-570">
          <mxGeometry relative="1" as="geometry" />
        </mxCell>
        <mxCell id="it1oy1Ev6lmP9NEfRzvG-557" value="82" style="ellipse;whiteSpace=wrap;html=1;aspect=fixed;" vertex="1" parent="1">
          <mxGeometry x="525" y="3990" width="80" height="80" as="geometry" />
        </mxCell>
        <mxCell id="it1oy1Ev6lmP9NEfRzvG-558" style="edgeStyle=orthogonalEdgeStyle;rounded=0;orthogonalLoop=1;jettySize=auto;html=1;entryX=0;entryY=0.5;entryDx=0;entryDy=0;" edge="1" parent="1" source="it1oy1Ev6lmP9NEfRzvG-559" target="it1oy1Ev6lmP9NEfRzvG-572">
          <mxGeometry relative="1" as="geometry" />
        </mxCell>
        <mxCell id="it1oy1Ev6lmP9NEfRzvG-559" value="86" style="ellipse;whiteSpace=wrap;html=1;aspect=fixed;" vertex="1" parent="1">
          <mxGeometry x="525" y="4370" width="80" height="80" as="geometry" />
        </mxCell>
        <mxCell id="it1oy1Ev6lmP9NEfRzvG-560" style="edgeStyle=orthogonalEdgeStyle;rounded=0;orthogonalLoop=1;jettySize=auto;html=1;entryX=0;entryY=0.5;entryDx=0;entryDy=0;" edge="1" parent="1" source="it1oy1Ev6lmP9NEfRzvG-562" target="it1oy1Ev6lmP9NEfRzvG-575">
          <mxGeometry relative="1" as="geometry" />
        </mxCell>
        <mxCell id="it1oy1Ev6lmP9NEfRzvG-561" style="edgeStyle=orthogonalEdgeStyle;rounded=0;orthogonalLoop=1;jettySize=auto;html=1;exitX=0.5;exitY=1;exitDx=0;exitDy=0;" edge="1" parent="1" source="it1oy1Ev6lmP9NEfRzvG-562" target="it1oy1Ev6lmP9NEfRzvG-574">
          <mxGeometry relative="1" as="geometry" />
        </mxCell>
        <mxCell id="it1oy1Ev6lmP9NEfRzvG-562" value="88" style="ellipse;whiteSpace=wrap;html=1;aspect=fixed;" vertex="1" parent="1">
          <mxGeometry x="525" y="4540" width="80" height="80" as="geometry" />
        </mxCell>
        <mxCell id="it1oy1Ev6lmP9NEfRzvG-563" value="&amp;lt;" style="text;html=1;strokeColor=none;fillColor=none;align=center;verticalAlign=middle;whiteSpace=wrap;rounded=0;" vertex="1" parent="1">
          <mxGeometry x="395" y="4000" width="60" height="30" as="geometry" />
        </mxCell>
        <mxCell id="it1oy1Ev6lmP9NEfRzvG-564" value="=" style="text;html=1;align=center;verticalAlign=middle;resizable=0;points=[];autosize=1;strokeColor=none;fillColor=none;" vertex="1" parent="1">
          <mxGeometry x="410" y="4170" width="30" height="30" as="geometry" />
        </mxCell>
        <mxCell id="it1oy1Ev6lmP9NEfRzvG-565" value="!" style="text;html=1;align=center;verticalAlign=middle;resizable=0;points=[];autosize=1;strokeColor=none;fillColor=none;" vertex="1" parent="1">
          <mxGeometry x="403" y="4378" width="30" height="30" as="geometry" />
        </mxCell>
        <mxCell id="it1oy1Ev6lmP9NEfRzvG-566" value="&amp;gt;" style="text;html=1;align=center;verticalAlign=middle;resizable=0;points=[];autosize=1;strokeColor=none;fillColor=none;" vertex="1" parent="1">
          <mxGeometry x="410" y="4548" width="30" height="30" as="geometry" />
        </mxCell>
        <mxCell id="it1oy1Ev6lmP9NEfRzvG-567" value="[^=]" style="text;html=1;strokeColor=none;fillColor=none;align=center;verticalAlign=middle;whiteSpace=wrap;rounded=0;" vertex="1" parent="1">
          <mxGeometry x="595" y="4060" width="60" height="30" as="geometry" />
        </mxCell>
        <mxCell id="it1oy1Ev6lmP9NEfRzvG-568" value="=" style="text;html=1;strokeColor=none;fillColor=none;align=center;verticalAlign=middle;whiteSpace=wrap;rounded=0;" vertex="1" parent="1">
          <mxGeometry x="625" y="3960" width="60" height="30" as="geometry" />
        </mxCell>
        <mxCell id="it1oy1Ev6lmP9NEfRzvG-569" value="84" style="ellipse;shape=doubleEllipse;whiteSpace=wrap;html=1;aspect=fixed;" vertex="1" parent="1">
          <mxGeometry x="695" y="4068" width="80" height="80" as="geometry" />
        </mxCell>
        <mxCell id="it1oy1Ev6lmP9NEfRzvG-570" value="83" style="ellipse;shape=doubleEllipse;whiteSpace=wrap;html=1;aspect=fixed;" vertex="1" parent="1">
          <mxGeometry x="695" y="3950" width="80" height="80" as="geometry" />
        </mxCell>
        <mxCell id="it1oy1Ev6lmP9NEfRzvG-571" value="85" style="ellipse;shape=doubleEllipse;whiteSpace=wrap;html=1;aspect=fixed;" vertex="1" parent="1">
          <mxGeometry x="535" y="4160" width="80" height="80" as="geometry" />
        </mxCell>
        <mxCell id="it1oy1Ev6lmP9NEfRzvG-572" value="87" style="ellipse;shape=doubleEllipse;whiteSpace=wrap;html=1;aspect=fixed;" vertex="1" parent="1">
          <mxGeometry x="705" y="4370" width="80" height="80" as="geometry" />
        </mxCell>
        <mxCell id="it1oy1Ev6lmP9NEfRzvG-573" value="&lt;h1&gt;*&lt;/h1&gt;" style="text;html=1;align=center;verticalAlign=middle;resizable=0;points=[];autosize=1;strokeColor=none;fillColor=none;" vertex="1" parent="1">
          <mxGeometry x="775" y="4040" width="30" height="70" as="geometry" />
        </mxCell>
        <mxCell id="it1oy1Ev6lmP9NEfRzvG-574" value="90" style="ellipse;shape=doubleEllipse;whiteSpace=wrap;html=1;aspect=fixed;" vertex="1" parent="1">
          <mxGeometry x="685" y="4620" width="80" height="80" as="geometry" />
        </mxCell>
        <mxCell id="it1oy1Ev6lmP9NEfRzvG-575" value="89" style="ellipse;shape=doubleEllipse;whiteSpace=wrap;html=1;aspect=fixed;" vertex="1" parent="1">
          <mxGeometry x="685" y="4498" width="80" height="80" as="geometry" />
        </mxCell>
        <mxCell id="it1oy1Ev6lmP9NEfRzvG-576" value="=" style="text;html=1;align=center;verticalAlign=middle;resizable=0;points=[];autosize=1;strokeColor=none;fillColor=none;" vertex="1" parent="1">
          <mxGeometry x="620" y="4508" width="30" height="30" as="geometry" />
        </mxCell>
        <mxCell id="it1oy1Ev6lmP9NEfRzvG-577" value="[^=]" style="text;html=1;align=center;verticalAlign=middle;resizable=0;points=[];autosize=1;strokeColor=none;fillColor=none;" vertex="1" parent="1">
          <mxGeometry x="595" y="4628" width="40" height="30" as="geometry" />
        </mxCell>
        <mxCell id="it1oy1Ev6lmP9NEfRzvG-578" value="=" style="text;html=1;align=center;verticalAlign=middle;resizable=0;points=[];autosize=1;strokeColor=none;fillColor=none;" vertex="1" parent="1">
          <mxGeometry x="620" y="4378" width="30" height="30" as="geometry" />
        </mxCell>
        <mxCell id="it1oy1Ev6lmP9NEfRzvG-579" value="*" style="text;strokeColor=none;fillColor=none;html=1;fontSize=24;fontStyle=1;verticalAlign=middle;align=center;" vertex="1" parent="1">
          <mxGeometry x="755" y="4610" width="50" height="40" as="geometry" />
        </mxCell>
        <mxCell id="it1oy1Ev6lmP9NEfRzvG-580" value="RETURN(op_rel, LE)" style="text;html=1;strokeColor=none;fillColor=none;align=center;verticalAlign=middle;whiteSpace=wrap;rounded=0;" vertex="1" parent="1">
          <mxGeometry x="832" y="3980" width="40" height="20" as="geometry" />
        </mxCell>
        <mxCell id="it1oy1Ev6lmP9NEfRzvG-581" value="RETURN(op_rel, LT)" style="text;html=1;strokeColor=none;fillColor=none;align=center;verticalAlign=middle;whiteSpace=wrap;rounded=0;" vertex="1" parent="1">
          <mxGeometry x="832" y="4110" width="40" height="20" as="geometry" />
        </mxCell>
        <mxCell id="it1oy1Ev6lmP9NEfRzvG-582" value="RETURN(op_rel, EQ)" style="text;html=1;strokeColor=none;fillColor=none;align=center;verticalAlign=middle;whiteSpace=wrap;rounded=0;" vertex="1" parent="1">
          <mxGeometry x="655" y="4200" width="40" height="20" as="geometry" />
        </mxCell>
        <mxCell id="it1oy1Ev6lmP9NEfRzvG-583" value="RETURN(op_rel, NE)" style="text;html=1;strokeColor=none;fillColor=none;align=center;verticalAlign=middle;whiteSpace=wrap;rounded=0;" vertex="1" parent="1">
          <mxGeometry x="835" y="4400" width="40" height="20" as="geometry" />
        </mxCell>
        <mxCell id="it1oy1Ev6lmP9NEfRzvG-584" value="RETURN(op_rel, GE)" style="text;html=1;strokeColor=none;fillColor=none;align=center;verticalAlign=middle;whiteSpace=wrap;rounded=0;" vertex="1" parent="1">
          <mxGeometry x="815" y="4528" width="40" height="20" as="geometry" />
        </mxCell>
        <mxCell id="it1oy1Ev6lmP9NEfRzvG-585" value="RETURN(op_rel, GT)" style="text;html=1;strokeColor=none;fillColor=none;align=center;verticalAlign=middle;whiteSpace=wrap;rounded=0;" vertex="1" parent="1">
          <mxGeometry x="815" y="4650" width="40" height="20" as="geometry" />
        </mxCell>
        <mxCell id="it1oy1Ev6lmP9NEfRzvG-591" value="[^0-9a-zA-Z_]" style="text;html=1;align=center;verticalAlign=middle;resizable=0;points=[];autosize=1;strokeColor=none;fillColor=none;" vertex="1" parent="1">
          <mxGeometry x="1625" y="610" width="100" height="30" as="geometry" />
        </mxCell>
      </root>
    </mxGraphModel>
  </diagram>
</mxfile>
